<svg width="32" height="32" viewBox="0 0 32 32" fill="none" xmlns="http://www.w3.org/2000/svg">
<rect width="32" height="32" fill="#1D3462"/>
<path fill-rule="evenodd" clip-rule="evenodd" d="M19.1832 9.42976C20.205 10.2518 20.9228 11.3893 21.2799 12.749L24 11.2073V15.5965L21.5422 16.9764V18.7155H24V22.4H8V14.8347C8 12.8215 8.65198 11.1066 9.84344 9.89334C11.0357 8.67925 12.7365 8 14.7711 8C16.528 8 18.0357 8.5067 19.1832 9.42976ZM11.7112 14.5912V18.7155H17.831V14.5912C17.831 13.6107 17.5324 12.899 17.0331 12.43C16.5303 11.9576 15.7743 11.6845 14.7711 11.6845C13.7679 11.6845 13.0119 11.9576 12.5091 12.43C12.0099 12.899 11.7112 13.6107 11.7112 14.5912Z" fill="#F4E6D7"/>
</svg>
