<svg width="75" height="51" viewBox="0 0 75 51" fill="none" xmlns="http://www.w3.org/2000/svg">
<path d="M49.0875 33.341L33.6662 6.53998L44.7449 0.176514L63.9213 33.341H49.0875Z" fill="#1D3462"/>
<path d="M8.01166 29.586L19.0904 23.1796L24.9522 33.341H10.1615L8.01166 29.586Z" fill="#1D3462"/>
<path d="M29.7535 50.4392H32.9065V37.6837H29.7535V50.4392Z" fill="#1D3462"/>
<path d="M69.2672 50.7402C65.7414 50.7402 63.6203 48.9201 63.5056 46.3546H66.8307C66.8307 47.1572 67.3323 48.3324 69.4821 48.3754C70.9154 48.3754 71.589 47.5298 71.589 46.8992C71.503 45.896 70.2417 45.81 68.8945 45.595C67.5473 45.38 66.4007 45.1364 65.5695 44.7064C64.5089 44.1618 63.7923 42.9866 63.7923 41.6393C63.7923 39.3605 65.7701 37.5547 69.0665 37.5547C72.2626 37.5547 74.2834 39.2315 74.4984 41.7253H71.288C71.2593 41.0517 71.1303 39.9912 69.2385 39.9912C67.9629 39.9912 67.1173 40.2491 67.0457 41.1377C67.0457 42.4419 69.6971 42.3559 71.7609 42.9006C73.7388 43.4022 75 44.6348 75 46.3546C75 49.522 72.4345 50.7402 69.2672 50.7402Z" fill="#1D3462"/>
<path d="M20.9966 18.2063L32.0753 11.8142L44.5012 33.341H32.9065V36.4941H29.7535V33.3267L20.9966 18.2063Z" fill="#1D3462"/>
<path fill-rule="evenodd" clip-rule="evenodd" d="M21.2832 50.7402C17.6142 50.7402 14.6331 47.7448 14.6331 44.1188C14.6331 40.4498 17.6142 37.5547 21.2832 37.5547C22.6734 37.5547 23.9346 37.9273 25.0382 38.6869V33.341H28.1913V50.4393H25.0382V49.5937C23.9346 50.3103 22.6734 50.7402 21.2832 50.7402ZM17.6572 44.1188C17.6572 46.0966 19.3484 47.7448 21.3692 47.7448C23.347 47.7448 25.0382 46.0966 25.0382 44.1188C25.0382 42.141 23.347 40.4498 21.3692 40.4498C19.3484 40.4498 17.6572 42.141 17.6572 44.1188Z" fill="#1D3462"/>
<path fill-rule="evenodd" clip-rule="evenodd" d="M44.5872 33.341H47.6973V50.4393H44.5872V49.5937C43.5267 50.3103 42.2224 50.7402 40.7892 50.7402C37.1632 50.7402 34.1821 47.7448 34.1821 44.1188C34.1821 40.4498 37.1632 37.5547 40.7892 37.5547C42.2224 37.5547 43.4837 37.9273 44.5872 38.6869V33.341ZM37.2492 44.1188C37.2492 46.0966 38.9404 47.7448 40.8752 47.7448C42.896 47.7448 44.5872 46.0966 44.5872 44.1188C44.5872 42.141 42.896 40.4498 40.8752 40.4498C38.9404 40.4498 37.2492 42.141 37.2492 44.1188Z" fill="#1D3462"/>
<path fill-rule="evenodd" clip-rule="evenodd" d="M55.365 50.7402C51.7533 50.7402 48.7579 47.7448 48.7579 44.1188C48.7579 40.4498 51.7533 37.5547 55.365 37.5547C56.7552 37.5547 58.0594 37.9273 59.12 38.6869V37.6694H62.2731V50.4393H59.12V49.5937C58.0594 50.3103 56.7982 50.7402 55.365 50.7402ZM51.825 44.1188C51.825 46.0966 53.5162 47.7448 55.494 47.7448C57.4718 47.7448 59.12 46.0966 59.12 44.1188C59.12 42.141 57.4718 40.4498 55.494 40.4498C53.5162 40.4498 51.825 42.141 51.825 44.1188Z" fill="#1D3462"/>
<path fill-rule="evenodd" clip-rule="evenodd" d="M3.03841 44.1188C3.03841 46.0966 4.7296 47.7448 6.70743 47.7448C8.72826 47.7448 10.4195 46.0966 10.4195 44.1188C10.4195 42.141 8.72826 40.4498 6.70743 40.4498C4.7296 40.4498 3.03841 42.141 3.03841 44.1188ZM6.62144 50.7402C2.99541 50.7402 0 47.7448 0 44.1188C0 40.4498 2.99541 37.5547 6.62144 37.5547C8.01166 37.5547 9.31588 37.9273 10.4195 38.6869V37.6694H13.5295V50.4393H10.4195V49.5937C9.35888 50.3103 8.05465 50.7402 6.62144 50.7402Z" fill="#1D3462"/>
</svg>
