<svg width="180" height="32" viewBox="0 0 180 32" fill="none" xmlns="http://www.w3.org/2000/svg">
<path d="M49.6901 25.5403V25.0328H49.8945V24.9295H49.3735V25.0328H49.578V25.5403H49.6901ZM50.7014 25.5403V24.9286H50.5416L50.3577 25.3494L50.1739 24.9286H50.0141V25.5403H50.127V25.0788L50.2991 25.4768H50.416L50.588 25.0779V25.5403H50.7014ZM78.308 21.0829V14.5044C78.308 12.0264 76.7293 10.3601 74.1856 10.3377C72.8481 10.3158 71.4663 10.7322 70.5014 12.2019C69.7777 11.04 68.6376 10.3377 67.0366 10.3377C65.9184 10.3377 64.8217 10.6665 63.9666 11.8946V10.6009H61.6861V21.0829H63.9885V15.2719C63.9885 13.4519 64.9972 12.4874 66.5541 12.4874C68.0672 12.4874 68.8347 13.4742 68.8347 15.2504V21.0834H71.1371V15.2723C71.1371 13.4523 72.1896 12.4878 73.7027 12.4878C75.2595 12.4878 76.0051 13.4746 76.0051 15.2508V21.0838H78.3076L78.308 21.0829ZM112.385 10.6009H108.657V7.42148H106.355V10.6009H104.227V12.684H106.355V17.4644C106.355 19.8986 107.298 21.346 109.995 21.346C110.981 21.346 112.121 21.0387 112.845 20.5348L112.188 18.583C111.508 18.9775 110.762 19.1749 110.17 19.1749C109.03 19.1749 108.657 18.4731 108.657 17.4206V12.684H112.385V10.6009ZM131.836 10.3377C130.52 10.3377 129.665 10.952 129.073 11.8727V10.6009H126.814V21.0829H129.094V15.2062C129.094 13.4738 129.84 12.5088 131.331 12.5088C131.792 12.5088 132.274 12.5745 132.757 12.772L133.459 10.6232C132.954 10.4257 132.296 10.3377 131.836 10.3377ZM102.43 11.4344C101.333 10.7107 99.8198 10.3377 98.1535 10.3377C95.4999 10.3377 93.7899 11.6096 93.7899 13.6927C93.7899 15.4032 95.0617 16.4557 97.4079 16.7849L98.4827 16.9386C99.7327 17.1137 100.325 17.443 100.325 18.0349C100.325 18.8461 99.4915 19.3067 97.9346 19.3067C96.3559 19.3067 95.2154 18.8024 94.4479 18.2104L93.3735 19.9866C94.6234 20.9078 96.2022 21.3465 97.9127 21.3465C100.939 21.3465 102.693 19.921 102.693 17.9254C102.693 16.0836 101.312 15.1186 99.0313 14.7898L97.9569 14.6362C96.9701 14.5048 96.1807 14.3074 96.1807 13.6056C96.1807 12.8381 96.9259 12.3775 98.1763 12.3775C99.5138 12.3775 100.808 12.8818 101.444 13.2768L102.43 11.4349L102.43 11.4344ZM163.523 10.3377C162.207 10.3377 161.351 10.952 160.76 11.8727V10.6009H158.501V21.0829H160.781V15.2062C160.781 13.4738 161.527 12.5088 163.018 12.5088C163.479 12.5088 163.961 12.5745 164.444 12.772L165.146 10.6232C164.641 10.4257 163.983 10.3377 163.523 10.3377ZM134.138 15.8419C134.138 19.0217 136.353 21.346 139.73 21.346C141.309 21.346 142.361 20.9949 143.502 20.0961L142.405 18.2542C141.55 18.8685 140.651 19.1973 139.664 19.1973C137.844 19.1754 136.507 17.8598 136.507 15.8423C136.507 13.8249 137.844 12.5093 139.664 12.4874C140.651 12.4874 141.55 12.8162 142.405 13.4304L143.502 11.5886C142.361 10.6893 141.309 10.3386 139.73 10.3386C136.353 10.3386 134.138 12.6621 134.138 15.8419ZM155.497 15.8419V10.6009H153.216V11.8727C152.492 10.9297 151.396 10.3377 149.905 10.3377C146.967 10.3377 144.664 12.6406 144.664 15.8419C144.664 19.0432 146.967 21.346 149.905 21.346C151.396 21.346 152.492 20.7537 153.216 19.8111V21.0829H155.497V15.8419ZM147.01 15.8419C147.01 14 148.216 12.4869 150.19 12.4869C152.076 12.4869 153.347 13.9339 153.347 15.8419C153.347 17.7499 152.076 19.1968 150.19 19.1968C148.216 19.1968 147.01 17.6838 147.01 15.8419ZM119.49 10.3377C116.42 10.3377 114.271 12.5745 114.271 15.8419C114.271 19.1749 116.507 21.346 119.643 21.346C121.222 21.346 122.669 20.9511 123.941 19.8768L122.822 18.1881C121.945 18.8899 120.827 19.2844 119.774 19.2844C118.305 19.2844 116.968 18.6049 116.639 16.7188H124.423C124.445 16.4338 124.467 16.1488 124.467 15.8419C124.445 12.5745 122.428 10.3377 119.49 10.3377ZM119.446 12.3771C120.915 12.3771 121.858 13.2978 122.1 14.9207H116.661C116.902 13.4077 117.823 12.3771 119.446 12.3771ZM176.658 15.8414V6.39087H174.377V11.8727C173.654 10.9297 172.557 10.3377 171.066 10.3377C168.127 10.3377 165.825 12.6406 165.825 15.8419C165.825 19.0432 168.127 21.346 171.066 21.346C172.557 21.346 173.654 20.7537 174.377 19.8111V21.0829H176.658V15.8414ZM179.323 20.1154C179.417 20.1154 179.504 20.1329 179.587 20.1675C179.669 20.202 179.74 20.2498 179.802 20.3102C179.863 20.3706 179.912 20.4411 179.947 20.5221C179.983 20.6031 180 20.6889 180 20.7804C180 20.8719 179.982 20.9577 179.947 21.0383C179.912 21.1188 179.863 21.1889 179.802 21.2493C179.741 21.3097 179.669 21.3574 179.587 21.3929C179.504 21.4283 179.417 21.4459 179.323 21.4459C179.228 21.4459 179.138 21.4283 179.055 21.3929C178.972 21.3574 178.9 21.3097 178.839 21.2493C178.779 21.1889 178.73 21.1184 178.695 21.0383C178.659 20.9577 178.642 20.8719 178.642 20.7804C178.642 20.6889 178.659 20.6031 178.695 20.5221C178.73 20.4411 178.779 20.3706 178.839 20.3102C178.9 20.2498 178.972 20.2025 179.055 20.1675C179.138 20.1324 179.228 20.1154 179.323 20.1154ZM179.323 21.2992C179.395 21.2992 179.462 21.2856 179.524 21.2585C179.585 21.2313 179.64 21.1941 179.687 21.1477C179.733 21.1009 179.77 21.0461 179.796 20.9831C179.823 20.9201 179.836 20.8526 179.836 20.7808C179.836 20.709 179.823 20.6416 179.796 20.579C179.77 20.516 179.733 20.4612 179.687 20.4139C179.64 20.3671 179.585 20.3308 179.524 20.3041C179.462 20.2773 179.395 20.2642 179.323 20.2642C179.251 20.2642 179.182 20.2773 179.119 20.3041C179.055 20.3308 179 20.3671 178.953 20.4139C178.906 20.4608 178.87 20.516 178.843 20.579C178.817 20.642 178.803 20.7095 178.803 20.7808C178.803 20.8522 178.817 20.9201 178.843 20.9831C178.87 21.0461 178.907 21.1009 178.953 21.1477C179 21.1946 179.055 21.2313 179.119 21.2585C179.182 21.2856 179.251 21.2992 179.323 21.2992ZM179.362 20.4691C179.441 20.4691 179.503 20.4866 179.546 20.5221C179.588 20.5575 179.61 20.6053 179.61 20.6661C179.61 20.7173 179.593 20.7594 179.559 20.7927C179.525 20.8259 179.476 20.8461 179.413 20.8539L179.615 21.0869H179.457L179.27 20.8553H179.209V21.0869H179.078V20.4691H179.362ZM179.209 20.5847V20.7493H179.36C179.395 20.7493 179.423 20.7427 179.444 20.7287C179.464 20.7152 179.475 20.6941 179.475 20.6661C179.475 20.639 179.464 20.6184 179.444 20.6048C179.423 20.5913 179.395 20.5847 179.36 20.5847H179.209ZM168.171 15.8414C168.171 13.9996 169.377 12.4865 171.351 12.4865C173.236 12.4865 174.508 13.9335 174.508 15.8414C174.508 17.7494 173.236 19.1964 171.351 19.1964C169.377 19.1964 168.171 17.6833 168.171 15.8414ZM91.1582 15.8414V10.6004H88.8776V11.8723C88.1539 10.9292 87.0576 10.3373 85.5665 10.3373C82.6283 10.3373 80.3259 12.6402 80.3259 15.8414C80.3259 19.0427 82.6283 21.3456 85.5665 21.3456C87.0576 21.3456 88.1539 20.7532 88.8776 19.8106V21.0825H91.1582V15.8414ZM82.6721 15.8414C82.6721 13.9996 83.8783 12.4865 85.8515 12.4865C87.7371 12.4865 89.009 13.9335 89.009 15.8414C89.009 17.7494 87.7371 19.1964 85.8515 19.1964C83.8778 19.1964 82.6721 17.6833 82.6721 15.8414Z" fill="#1D3462"/>
<path d="M32.3393 3.36353H18.573V28.1018H32.3393V3.36353Z" fill="#121F3B"/>
<path d="M50.9114 15.7331C50.9114 24.4221 43.8683 31.4656 35.1797 31.466C31.6534 31.466 28.2293 30.2817 25.4568 28.1023C32.2879 22.7308 33.4714 12.8382 28.0999 6.00666C27.3273 5.02378 26.4397 4.13662 25.4568 3.36352C32.2879 -2.00578 42.1783 -0.821002 47.5476 6.00971C49.727 8.78221 50.9114 12.2063 50.9114 15.7327V15.7331Z" fill="#1D3462"/>
<path d="M19.4472 15.7333C19.4428 10.9059 21.6585 6.34469 25.4563 3.36418C18.6247 -2.00556 8.73393 -0.820787 3.36419 6.0108C-2.00511 12.842 -0.820336 22.7327 6.01126 28.1025C11.7171 32.5872 19.7505 32.5872 25.4563 28.1025C21.659 25.122 19.4428 20.5607 19.4472 15.7333Z" fill="#1D3462"/>
</svg>
