<svg width="140" height="35" viewBox="0 0 140 35" fill="none" xmlns="http://www.w3.org/2000/svg">
<path d="M17.2634 0.194946C7.72941 0.194946 0 7.92436 0 17.4584C0 26.9924 7.72941 34.7218 17.2634 34.7218C26.7974 34.7218 34.5236 26.9924 34.5236 17.4584C34.5236 7.92436 26.7974 0.194946 17.2634 0.194946ZM17.3997 27.0842C12.6581 27.1004 7.72292 23.0531 7.70067 16.5512C7.68468 12.2537 10.0064 8.11465 12.9689 5.6597C15.8614 3.26826 19.8229 1.72998 23.4131 1.71723C23.8761 1.71723 24.3615 1.75525 24.6563 1.85676C21.5165 2.50689 19.017 5.43117 19.0265 8.74553C19.0265 8.85655 19.036 8.97383 19.0485 9.02783C24.304 10.3093 26.6892 13.4809 26.7049 17.8672C26.7177 22.2568 23.2543 27.0649 17.3992 27.0842H17.3997Z" fill="#1D3462"/>
<path d="M45.6719 24.6072L40.3942 12.0126H43.8418L47.1339 20.3764L50.3245 12.0126H53.6166L48.4944 24.6072H45.6717H45.6719Z" fill="#1D3462"/>
<path d="M62.802 18.2448C62.802 17.7214 62.7418 17.2236 62.618 16.751C62.4975 16.2784 62.3135 15.8723 62.0694 15.533C61.8251 15.1905 61.5303 14.9209 61.1812 14.7211C60.8324 14.5181 60.4231 14.4166 59.9538 14.4166C59.4844 14.4166 59.0721 14.5181 58.7263 14.7211C58.3775 14.9209 58.0792 15.1905 57.8381 15.533C57.5939 15.8723 57.4101 16.2784 57.2895 16.751C57.1658 17.2236 57.1055 17.7214 57.1055 18.2448C57.1055 18.7871 57.1658 19.2915 57.2895 19.7545C57.4101 20.2176 57.5876 20.6237 57.8224 20.9725C58.0572 21.3213 58.3552 21.5974 58.7136 21.8004C59.0689 22.0002 59.4842 22.1017 59.9538 22.1017C60.4233 22.1017 60.8324 22.0002 61.1812 21.8004C61.5301 21.5974 61.8251 21.3216 62.0694 20.9725C62.3137 20.6235 62.4975 20.2176 62.618 19.7545C62.7418 19.2915 62.802 18.7871 62.802 18.2448ZM65.9896 18.2587C65.9896 19.0801 65.8628 19.8857 65.6123 20.6786C65.3585 21.4715 64.9842 22.1789 64.4863 22.8068C63.9915 23.4349 63.3636 23.939 62.6055 24.3228C61.8474 24.7066 60.9627 24.8969 59.954 24.8969C58.9453 24.8969 58.0574 24.7066 57.3025 24.3228C56.5444 23.939 55.9165 23.4346 55.4187 22.8068C54.9238 22.1787 54.5495 21.4715 54.296 20.6786C54.0454 19.8857 53.9186 19.0801 53.9186 18.2587C53.9186 17.4373 54.0454 16.6411 54.296 15.8545C54.5497 15.0711 54.9241 14.3702 55.4187 13.7516C55.9165 13.1332 56.5446 12.6384 57.3025 12.2641C58.0574 11.8898 58.9423 11.6995 59.954 11.6995C60.9657 11.6995 61.8443 11.8898 62.5927 12.2641C63.3414 12.6384 63.9692 13.133 64.4736 13.7516C64.9809 14.37 65.3585 15.0711 65.6123 15.8545C65.8628 16.6411 65.9896 17.4403 65.9896 18.2587Z" fill="#1D3462"/>
<path d="M75.7234 14.7846C75.0985 14.5403 74.5182 14.4168 73.9791 14.4168C73.4272 14.4168 72.9484 14.5248 72.5518 14.7339C72.1522 14.9432 71.8224 15.2255 71.5624 15.5838C71.3023 15.9421 71.1088 16.3449 70.9788 16.7922C70.8487 17.2363 70.7822 17.6962 70.7822 18.1688C70.7822 18.6921 70.8392 19.1932 70.9535 19.6753C71.0645 20.1541 71.2391 20.576 71.4736 20.9345C71.7052 21.2928 72.0002 21.5816 72.3553 21.8004C72.7106 22.0162 73.1324 22.127 73.6175 22.127C74.0171 22.127 74.4232 22.016 74.8385 21.8004C75.2541 21.5816 75.5489 21.3216 75.7234 21.0265V14.7846ZM75.9835 24.6072L75.8534 23.643C75.5584 23.9728 75.1683 24.2646 74.68 24.5152C74.1946 24.769 73.6205 24.8957 72.9609 24.8957C72.095 24.8957 71.3276 24.7119 70.671 24.3471C70.0081 23.9823 69.453 23.494 69.0027 22.8851C68.5523 22.2762 68.2065 21.5689 67.972 20.7665C67.7404 19.9671 67.6232 19.1299 67.6232 18.2578C67.6232 17.4394 67.7437 16.637 67.9847 15.8536C68.229 15.0702 68.5968 14.3693 69.0917 13.7507C69.5895 13.1323 70.2081 12.6375 70.9565 12.2632C71.7019 11.8888 72.5803 11.6986 73.5858 11.6986C74.2454 11.6986 74.959 11.8221 75.7234 12.0634V7.17898H78.9617V24.6072H75.9835Z" fill="#1D3462"/>
<path d="M88.0834 18.7016C87.7346 18.7199 87.373 18.7524 87.005 18.7936C86.6372 18.8381 86.2881 18.8951 85.955 18.9649C85.2509 19.1044 84.7656 19.3422 84.493 19.6818C84.2235 20.0243 84.087 20.3922 84.087 20.795C84.087 21.2105 84.2392 21.5466 84.5468 21.8004C84.8544 22.051 85.2857 22.1777 85.8473 22.1777C86.2691 22.1777 86.6782 22.0922 87.0715 21.9177C87.4648 21.7432 87.8041 21.5244 88.0832 21.2643L88.0834 18.7016ZM88.3435 24.5977L88.2167 23.6558C87.8646 24.0426 87.4206 24.3471 86.8782 24.5659C86.3359 24.7847 85.7427 24.8957 85.0956 24.8957C84.5533 24.8957 84.0299 24.8037 83.5351 24.6199C83.034 24.4392 82.5932 24.1759 82.2094 23.8365C81.8255 23.4972 81.5147 23.0817 81.28 22.5838C81.0422 22.086 80.9246 21.5244 80.9246 20.8965C80.9246 20.2716 81.0452 19.7165 81.2925 19.2377C81.5368 18.7588 81.8666 18.356 82.2884 18.023C82.707 17.6932 83.1891 17.4236 83.7314 17.2143C84.2705 17.005 84.8414 16.8463 85.4345 16.7417C85.8531 16.6562 86.3131 16.5925 86.811 16.5482C87.3088 16.5037 87.7244 16.4659 88.0575 16.4309V16.2471C88.0575 15.5492 87.8799 15.0546 87.5184 14.7563C87.16 14.4613 86.6652 14.3123 86.0371 14.3123C85.6693 14.3123 85.3172 14.3568 84.9842 14.4455C84.6511 14.5311 84.356 14.6391 84.093 14.7691C83.8297 14.9024 83.5981 15.0324 83.3951 15.1624C83.1953 15.2924 83.0335 15.4097 82.9098 15.5145L81.8378 13.2436C81.9773 13.12 82.1899 12.974 82.4784 12.7995C82.767 12.625 83.1128 12.4537 83.5251 12.2889C83.9342 12.1239 84.3943 11.9843 84.9079 11.8703C85.4215 11.7563 85.9768 11.699 86.5667 11.699C87.2646 11.699 87.9019 11.791 88.476 11.9751C89.0501 12.1591 89.548 12.4444 89.9668 12.8377C90.3824 13.2278 90.709 13.7226 90.9468 14.3252C91.1815 14.9246 91.2988 15.651 91.2988 16.5042V24.5981H88.3428L88.3435 24.5977Z" fill="#1D3462"/>
<path d="M101.309 10.0525C101.204 10.002 101.002 9.92573 100.697 9.83047C100.389 9.73544 99.9866 9.68769 99.479 9.68769C99.0287 9.68769 98.6481 9.82421 98.3436 10.0938C98.039 10.3633 97.8867 10.8041 97.8867 11.4132V12.0126H100.605V14.6261H97.912V24.6074H94.6707V14.6261H92.9991V12.0126H94.6707V11.3337C94.6707 10.5154 94.7754 9.82398 94.9847 9.25636C95.194 8.69176 95.4858 8.22868 95.8601 7.8736C96.2344 7.51528 96.6753 7.25199 97.1796 7.08696C97.6872 6.92194 98.2358 6.83966 98.8289 6.83966C99.6123 6.83966 100.259 6.91267 100.773 7.0617C101.287 7.21096 101.588 7.309 101.674 7.36301L101.309 10.0525H101.309Z" fill="#1D3462"/>
<path d="M110.142 18.2448C110.142 17.7214 110.079 17.2236 109.958 16.751C109.838 16.2784 109.654 15.8723 109.41 15.533C109.165 15.1905 108.87 14.9209 108.521 14.7211C108.173 14.5181 107.763 14.4166 107.294 14.4166C106.825 14.4166 106.412 14.5181 106.066 14.7211C105.718 14.9209 105.419 15.1905 105.175 15.533C104.934 15.8723 104.75 16.2784 104.627 16.751C104.506 17.2236 104.446 17.7214 104.446 18.2448C104.446 18.7871 104.506 19.2915 104.627 19.7545C104.75 20.2176 104.928 20.6237 105.163 20.9725C105.398 21.3213 105.696 21.5974 106.051 21.8004C106.409 22.0002 106.825 22.1017 107.294 22.1017C107.764 22.1017 108.173 22.0002 108.522 21.8004C108.87 21.5974 109.166 21.3216 109.41 20.9725C109.654 20.6235 109.838 20.2176 109.958 19.7545C110.079 19.2915 110.142 18.7871 110.142 18.2448H110.142ZM113.33 18.2587C113.33 19.0801 113.203 19.8857 112.949 20.6786C112.699 21.4715 112.325 22.1789 111.827 22.8068C111.332 23.4349 110.704 23.939 109.946 24.3228C109.188 24.7066 108.303 24.8969 107.294 24.8969C106.286 24.8969 105.398 24.7066 104.643 24.3228C103.885 23.939 103.257 23.4346 102.759 22.8068C102.264 22.1787 101.89 21.4715 101.636 20.6786C101.383 19.8857 101.259 19.0801 101.259 18.2587C101.259 17.4373 101.383 16.6411 101.636 15.8545C101.89 15.0711 102.264 14.3702 102.759 13.7516C103.257 13.1332 103.885 12.6384 104.643 12.2641C105.398 11.8898 106.283 11.6995 107.294 11.6995C108.306 11.6995 109.185 11.8898 109.933 12.2641C110.682 12.6384 111.31 13.133 111.814 13.7516C112.321 14.37 112.699 15.0711 112.949 15.8545C113.203 16.6411 113.33 17.4403 113.33 18.2587Z" fill="#1D3462"/>
<path d="M123.387 24.6072V17.4234C123.387 16.4654 123.187 15.7233 122.788 15.2C122.385 14.6799 121.83 14.4166 121.113 14.4166C120.609 14.4166 120.143 14.5466 119.718 14.8099C119.29 15.0699 118.919 15.3585 118.605 15.6725V24.6072H115.366V12.0126H118.319L118.474 13.0053C118.982 12.5897 119.549 12.2664 120.187 12.0411C120.821 11.8128 121.462 11.7018 122.106 11.7018C122.769 11.7018 123.378 11.8001 123.936 11.9999C124.494 12.2029 124.973 12.52 125.373 12.9545C125.776 13.3891 126.083 13.9567 126.302 14.6514C126.518 15.3492 126.629 16.1864 126.629 17.1601V24.6072H123.387Z" fill="#1D3462"/>
<path d="M136.708 16.7955C136.673 16.3609 136.581 15.9803 136.432 15.66C136.283 15.3365 136.099 15.0764 135.88 14.8766C135.661 14.6736 135.427 14.5278 135.173 14.4293C134.916 14.3343 134.659 14.2865 134.396 14.2865C133.834 14.2865 133.302 14.4958 132.794 14.9144C132.287 15.333 131.988 15.9579 131.9 16.7953H136.708L136.708 16.7955ZM131.824 19.1204C131.893 20.1829 132.223 20.9505 132.82 21.4198C133.413 21.8892 134.183 22.1272 135.125 22.1272C135.563 22.1272 135.975 22.086 136.359 22.0099C136.743 21.9307 137.085 21.8322 137.383 21.7086C137.682 21.5881 137.935 21.4643 138.145 21.3438C138.354 21.2203 138.509 21.106 138.617 21.0013L139.48 23.6432C139.356 23.7288 139.16 23.8463 138.89 23.9953C138.62 24.1446 138.284 24.2808 137.885 24.4139C137.485 24.5439 137.012 24.6549 136.473 24.7532C135.934 24.8482 135.341 24.896 134.697 24.896C133.876 24.896 133.098 24.766 132.356 24.5059C131.617 24.2426 130.967 23.8368 130.412 23.2879C129.854 22.7393 129.41 22.0572 129.08 21.2391C128.747 20.4207 128.582 19.444 128.582 18.3115C128.582 17.2491 128.734 16.3069 129.039 15.4888C129.344 14.6704 129.762 13.9822 130.292 13.4241C130.825 12.869 131.443 12.4409 132.147 12.1426C132.854 11.8478 133.606 11.6986 134.408 11.6986C135.211 11.6986 135.95 11.8318 136.632 12.0919C137.31 12.3519 137.897 12.758 138.395 13.3066C138.89 13.8552 139.283 14.5658 139.569 15.438C139.857 16.3071 140 17.3441 140 18.5463V19.1204H131.824Z" fill="#1D3462"/>
</svg>
