<svg width="60" height="61" viewBox="0 0 60 61" fill="none" xmlns="http://www.w3.org/2000/svg">
<path d="M55.0015 47.4215C56.384 49.3984 57.7116 51.3556 59.1003 53.2682C61.0318 55.9283 59.6223 59.6094 56.41 60.1129C54.6883 60.3827 53.3183 59.6805 52.2959 58.2924C51.3658 57.0295 50.3849 55.8112 49.2429 54.731C48.7576 54.2721 48.2508 53.8368 47.6254 53.575C46.7383 53.2037 46.0751 53.6478 46.0856 54.6067C46.0881 54.8384 46.1145 55.0731 46.1598 55.3005C46.6345 58.1146 44.6246 60.4992 41.7874 60.3867C39.3331 60.2893 37.7144 58.5834 37.5655 55.8879C37.3919 52.7445 37.2549 49.599 37.0904 46.4552C36.9363 43.5108 36.76 40.5667 36.933 37.6174C37.0141 36.2349 37.1783 34.8644 37.6482 33.5468C38.4233 31.3727 40.3583 30.5239 42.3182 30.8151C44.4434 31.1308 45.9047 32.8196 45.9929 34.9321C46.0554 36.4332 45.6532 37.8699 45.3941 39.3264C45.2742 40.0003 45.1842 40.6759 45.2195 41.3631C45.2367 41.6984 45.2943 42.0244 45.4138 42.3391C45.9184 43.6691 46.9273 44.0451 48.1632 43.3468C49.1287 42.8012 49.9164 42.0262 50.7424 41.3017C51.8315 40.3463 52.8924 39.3519 54.2022 38.6912C54.5131 38.5344 54.8349 38.3801 55.1694 38.2926C56.9405 37.8292 58.0131 38.2863 59.0195 40.2511C59.9303 42.0291 59.4348 43.9787 57.8388 45.2714C56.9341 46.0041 55.9839 46.6805 55.0017 47.4217L55.0015 47.4215Z" fill="#1D3462"/>
<path d="M59.9734 11.7983C60.2161 14.3369 58.7847 16.3386 56.2518 17.6994C55.6342 18.0312 55.0025 18.3331 54.3426 18.5661C53.5891 18.832 52.8342 19.1055 52.0605 19.2979C51.5971 19.4131 51.4923 19.6219 51.5379 20.061C51.6896 21.5212 51.7549 22.9864 51.6158 24.4521C51.489 25.7874 51.2516 27.0954 50.5129 28.2531C49.5744 29.7237 48.1906 30.2331 46.515 30.0452C44.8093 29.8539 43.5832 28.9992 43.012 27.3403C42.5093 25.8807 42.5418 24.3951 42.8917 22.9068C42.9565 22.6313 43.0441 22.3605 43.0955 22.0827C43.3336 20.7946 42.9808 20.1173 41.7976 19.5572C41.3912 19.3648 40.9933 19.1537 40.5826 18.9712C38.0222 17.8331 36.6812 15.6672 35.7914 13.172C34.605 9.8445 34.5977 6.48934 35.9622 3.21347C36.8797 1.01025 38.6056 0.304281 40.7585 0.509972C42.717 0.697065 44.0574 2.59779 43.7594 4.64711C43.5557 6.04795 43.2966 7.4407 43.0757 8.83914C43.0161 9.21623 42.9676 9.60221 42.9792 9.9821C43.0184 11.2644 43.8618 11.9074 44.9464 12.2842C46.535 12.8361 48.1506 12.8492 49.7631 12.3633C50.1958 12.2329 50.5998 12.0365 50.9481 11.7376C51.4268 11.327 51.6183 10.8189 51.565 10.1854C51.4446 8.75425 51.2386 7.3297 50.8809 5.94736C50.2637 3.56205 51.7521 1.59053 54.5769 1.47583C55.9314 1.42084 56.984 2.03101 57.8444 3.02237C58.4762 3.75034 58.9106 4.57701 59.1384 5.52577C59.5987 7.4427 59.9542 9.37102 59.9734 11.7986V11.7983Z" fill="#1D3462"/>
<path d="M25.0363 41.674C25.0518 42.6781 25.0089 43.6109 24.6987 44.5051C24.1276 46.1515 22.8792 47.1751 21.4261 47.9956C20.0829 48.754 18.6395 49.2696 17.1521 49.6519C16.7075 49.7662 16.575 49.9485 16.6166 50.4015C16.7903 52.2961 16.872 54.1941 16.5197 56.0798C16.3032 57.2386 15.9481 58.3511 15.114 59.2294C13.9117 60.4954 12.4113 60.6469 10.819 60.2507C9.21939 59.8526 8.30483 58.7493 7.93164 57.1857C7.60475 55.8163 7.64555 54.4443 8.01584 53.0824C8.10293 52.7619 8.18313 52.4347 8.21733 52.1055C8.32592 51.0599 7.96534 50.4369 7.01968 49.9795C6.57009 49.762 6.12691 49.5295 5.66883 49.3314C3.44112 48.3681 2.12947 46.5595 1.2177 44.4236C-0.317335 40.8277 -0.43003 37.1757 1.04471 33.5362C1.83398 31.5882 3.74381 30.5749 5.82122 30.8597C7.89994 31.1445 9.19889 33.0878 8.79511 35.2901C8.52772 36.7481 8.26103 38.2067 8.09293 39.6809C7.92784 41.1291 8.40792 42.0156 9.78077 42.5464C11.571 43.2386 13.3965 43.2748 15.1998 42.5771C16.3718 42.1236 16.7158 41.5044 16.6097 40.257C16.4837 38.7757 16.156 37.3283 15.8855 35.8715C15.6107 34.3911 16.2464 33.0572 17.5761 32.3592C19.4738 31.363 21.5156 31.7447 22.9092 33.3687C23.5128 34.072 23.9636 34.8583 24.1865 35.7719C24.4869 37.0027 24.746 38.2406 24.8997 39.4984C24.9906 40.2427 25.0619 40.9894 25.0364 41.6741L25.0363 41.674Z" fill="#1D3462"/>
<path d="M9.03221 6.16705C8.97071 8.85674 9.3033 11.4874 10.3688 13.9836C11.8485 17.4503 14.4728 19.7392 17.8702 21.2232C19.6935 22.0197 21.5937 22.5767 23.5307 23.009C24.1294 23.1426 24.757 23.1226 25.3543 23.2876C27.1018 23.7704 28.1229 25.0517 28.0125 26.6232C27.8908 28.3547 26.5849 29.7831 24.8563 29.9853C22.7206 30.2352 20.5944 30.0519 18.4893 29.6655C13.6935 28.7852 9.40929 26.8087 5.81513 23.488C3.64412 21.482 2.22808 18.952 1.26751 16.1751C0.00666296 12.5304 -0.283326 8.79184 0.32765 4.98779C0.724635 2.51569 2.17898 1.01025 4.43609 0.538868C6.83599 0.037688 9.2378 2.1786 9.03911 4.51921C8.99281 5.06479 9.03221 5.61757 9.03221 6.16705Z" fill="#1D3462"/>
<path d="M11.4097 7.55189C11.4319 6.11584 11.5238 4.6887 12.0105 3.31896C12.5203 1.88431 13.4347 0.896851 14.9963 0.615662C16.3901 0.364672 17.6387 0.967448 18.2791 2.2341C18.6712 3.00947 18.8198 3.83613 18.7609 4.7039C18.6628 6.14944 18.5619 7.59499 18.4828 9.04163C18.3873 10.7899 19.106 11.7332 20.8155 12.1027C22.1083 12.3821 23.367 12.2535 24.5705 11.6928C25.677 11.1772 26.0823 10.4557 25.9046 9.24512C25.6842 7.74388 25.2725 6.28294 24.9165 4.8105C24.3397 2.42429 25.9801 0.384071 28.3914 0.481867C29.105 0.510766 29.7159 0.805555 30.2462 1.25794C31.0882 1.97621 31.7003 2.86427 32.0232 3.92533C32.7131 6.19274 33.2526 8.48845 33.3308 10.875C33.4397 14.2014 31.9025 16.5795 29.1092 18.2159C27.095 19.3958 24.9004 20.2087 22.5726 20.1671C19.127 20.1055 15.92 19.2742 13.8575 16.1237C12.5572 14.1374 11.8116 11.9483 11.5258 9.59661C11.4433 8.91743 11.3974 8.23686 11.4098 7.55209L11.4097 7.55189Z" fill="#1D3462"/>
<path d="M30.5021 49.1572C30.8258 48.698 31.219 48.3026 31.8012 48.1562C32.4476 47.9936 33.1257 48.226 33.3223 48.7968C34.3617 51.815 35.0346 54.888 34.508 58.1076C34.4377 58.5373 34.277 58.9434 34.0497 59.3162C33.2437 60.6378 31.79 60.7992 30.7715 59.6448C30.502 59.3394 30.3698 59.3628 30.0682 59.5758C27.7614 61.2045 24.2068 60.4854 22.4203 58.0482C20.1122 54.8995 21.1623 50.3 24.6029 48.6315C26.4512 47.7351 28.2835 47.8937 30.0497 48.9207C30.1787 48.9957 30.3043 49.0763 30.4324 49.1527C30.4445 49.1599 30.4638 49.1552 30.5021 49.1572ZM28.7444 54.2667C28.7522 53.4695 28.1186 52.7899 27.363 52.7849C26.6388 52.7802 26.0271 53.4509 26.0291 54.2475C26.0311 55.0527 26.6287 55.6979 27.37 55.6953C28.1084 55.6927 28.7367 55.0396 28.7443 54.2667H28.7444Z" fill="#1D3462"/>
<path d="M35.1773 31.1072C32.908 31.0072 31.0195 29.929 29.908 27.7409C28.7664 25.4935 28.9683 23.2477 30.5127 21.2532C32.0101 19.3195 34.0513 18.5211 36.484 18.9853C37.8273 19.2417 39.0461 19.814 40.008 20.8395C40.8339 21.72 40.9543 22.972 40.2864 23.8468C39.6652 24.6601 38.3497 24.869 37.3273 24.3013C36.8178 24.0184 36.3291 23.6911 35.7454 23.5785C34.9946 23.4337 34.4447 23.7103 34.1401 24.3668C33.8494 24.9936 34.0344 25.7142 34.5985 26.1586C35.0092 26.482 35.4674 26.4566 35.9298 26.3247C36.381 26.1959 36.7891 25.9655 37.1917 25.7298C38.1933 25.1435 39.3848 25.2173 40.1119 25.9155C40.791 26.5676 40.9164 27.7561 40.4022 28.7516C40.1448 29.2497 39.7859 29.674 39.3003 29.9517C38.0822 30.6484 36.7747 31.0604 35.1773 31.1072Z" fill="#1D3462"/>
<path d="M31.9968 42.9866C31.068 43.8834 30.0102 43.8829 28.9395 43.4999C27.5197 42.9919 27.198 41.002 28.4124 39.9599C29.1987 39.2852 29.1752 39.6137 28.7637 38.5653C28.5032 37.9016 28.4474 37.1978 28.7992 36.5291C29.3076 35.5627 30.4478 35.1892 31.5607 35.6132C32.6274 36.0196 33.1657 37.0871 32.8863 38.254C32.7198 38.9494 32.347 39.4977 31.603 39.8827C32.2292 39.9838 32.7586 40.0558 33.2817 40.1593C33.5401 40.2105 33.7979 40.2968 34.036 40.4094C34.2655 40.5179 34.4518 40.6909 34.4308 40.9894C34.4089 41.301 34.2586 41.5204 33.9736 41.6484C33.7158 41.7642 33.4344 41.7852 33.096 41.827C33.3101 42.2158 33.5867 42.5145 33.6816 42.9046C33.7552 43.2072 33.8148 43.5153 33.5071 43.7171C33.1977 43.9202 32.897 43.8185 32.6382 43.5952C32.4255 43.4116 32.2293 43.2087 31.9967 42.9865L31.9968 42.9866ZM30.8028 38.2081C31.0623 38.177 31.2623 38.0504 31.2719 37.7498C31.2812 37.4574 31.1171 37.2746 30.8261 37.2585C30.5308 37.2421 30.3567 37.4198 30.3385 37.7052C30.3197 38.0007 30.4997 38.1568 30.8028 38.2081ZM29.9995 41.0872C29.7242 41.1231 29.5293 41.2529 29.5204 41.5569C29.5116 41.8564 29.6848 42.0384 29.9688 42.0533C30.2614 42.0686 30.4419 41.8781 30.4559 41.5928C30.4703 41.3012 30.2881 41.1395 29.9994 41.0871L29.9995 41.0872Z" fill="#1D3462"/>
<path d="M48.8221 7.4897C48.8087 8.25176 48.1939 8.84194 47.4366 8.81964C46.6646 8.79694 46.0932 8.19337 46.1169 7.4256C46.1396 6.68813 46.7376 6.11105 47.4754 6.11465C48.2302 6.11825 48.8354 6.73632 48.8222 7.4897H48.8221Z" fill="#1D3462"/>
<path d="M11.2026 37.7429C11.2045 36.9575 11.7761 36.378 12.546 36.3811C13.3096 36.3841 13.9004 36.9815 13.8973 37.7474C13.8942 38.5042 13.2854 39.0942 12.517 39.0853C11.7728 39.0766 11.2008 38.4925 11.2026 37.7429Z" fill="#1D3462"/>
</svg>
