<svg width="200" height="29" viewBox="0 0 200 29" fill="none" xmlns="http://www.w3.org/2000/svg">
<path d="M200 17.9143C200 16.4086 199.113 15.6304 197.741 15.0957C196.66 14.676 195.712 14.3195 194.99 14.0449C194.27 13.7703 193.658 13.2936 193.658 12.7776C193.658 12.0729 194.564 11.6636 195.763 11.6636C197.178 11.6636 198.291 11.8542 199.366 11.9485H199.398C199.435 11.9488 199.471 11.9417 199.505 11.9276C199.539 11.9134 199.57 11.8925 199.595 11.8662C199.621 11.8399 199.641 11.8086 199.654 11.7743C199.668 11.74 199.674 11.7034 199.673 11.6667V10.504C199.673 10.3485 199.545 10.2377 199.381 10.2076C198.83 10.0801 197.412 9.79517 195.862 9.79517C192.839 9.79517 191.399 11.0501 191.399 12.7776C191.399 13.8739 191.901 14.9558 193.316 15.5206C194.736 16.0864 197.642 16.7382 197.642 17.9143C197.642 18.8242 197.203 19.3237 195.755 19.3237C194.253 19.3237 192.732 19.1185 192.081 19.0397H192.05C191.969 19.0386 191.891 19.0695 191.833 19.1257C191.776 19.1818 191.742 19.2586 191.741 19.3392V20.4688C191.741 20.6418 191.886 20.7506 192.049 20.7817C192.83 20.9548 194.288 21.1941 195.723 21.1941C198.977 21.1941 200 19.4978 200 17.9143ZM95.2808 17.9143C95.2808 16.4086 94.3948 15.6304 93.0218 15.0957C91.9409 14.676 90.9928 14.3195 90.2705 14.0449C89.5513 13.7703 88.9399 13.2936 88.9399 12.7776C88.9399 12.0729 89.8446 11.6636 91.0435 11.6636C92.4601 11.6636 93.572 11.8542 94.6466 11.9485H94.6788C94.7155 11.9488 94.752 11.9417 94.7859 11.9276C94.8198 11.9134 94.8505 11.8925 94.8762 11.8662C94.9019 11.8399 94.9219 11.8086 94.9352 11.7743C94.9484 11.74 94.9546 11.7034 94.9534 11.6667V10.504C94.9534 10.3485 94.8259 10.2377 94.6632 10.2076C94.1098 10.0801 92.6922 9.79517 91.142 9.79517C88.1202 9.79517 86.6787 11.0501 86.6787 12.7776C86.6787 13.8739 87.1803 14.9558 88.5959 15.5206C90.0155 16.0864 92.9223 16.7382 92.9223 17.9143C92.9223 18.8242 92.4839 19.3237 91.0363 19.3237C89.5337 19.3237 88.0114 19.1185 87.3606 19.0397H87.3295C87.2489 19.0386 87.1711 19.0695 87.1132 19.1257C87.0554 19.1818 87.0221 19.2586 87.0207 19.3392V20.4688C87.0207 20.6418 87.1658 20.7506 87.3285 20.7817C88.1098 20.9548 89.5679 21.1941 91.0031 21.1941C94.257 21.1941 95.2808 19.4978 95.2808 17.9143ZM119.405 20.4397V10.22C119.405 10.046 119.275 9.9216 119.096 9.9216H117.697C117.517 9.9216 117.388 10.046 117.388 10.22V17.961C117.388 18.0532 117.342 18.1029 117.309 18.1029C117.257 18.1029 117.21 18.0532 117.179 17.9765L112.594 10.4252C112.397 10.0149 112.219 9.9216 111.879 9.9216H110.121C109.952 9.91911 109.789 9.98373 109.668 10.1013C109.547 10.2188 109.477 10.3797 109.475 10.5485V20.7548C109.475 20.9257 109.617 21.0688 109.799 21.0688H111.177C111.356 21.0688 111.488 20.9257 111.488 20.7548V13.3734C111.488 13.2801 111.522 13.247 111.569 13.247C111.618 13.247 111.668 13.2812 111.714 13.3734L116.124 20.504C116.379 21.0687 116.722 21.0688 117.112 21.0688H118.756C118.926 21.0712 119.09 21.0064 119.211 20.8885C119.333 20.7706 119.402 20.6092 119.405 20.4397ZM84.5575 20.8335V10.5475C84.554 10.3782 84.4835 10.2172 84.3615 10.0997C84.2396 9.98219 84.0761 9.91779 83.9067 9.92056H82.5731C82.4481 9.92235 82.326 9.95836 82.22 10.0247C82.114 10.091 82.0283 10.1851 81.972 10.2967L78.8549 16.4273C78.772 16.5693 78.7389 16.647 78.6756 16.647C78.6072 16.647 78.5741 16.5693 78.4943 16.4273L75.3751 10.2978C75.319 10.1863 75.2334 10.0923 75.1276 10.026C75.0218 9.95967 74.8999 9.92357 74.7751 9.9216H73.4415C73.2721 9.91882 73.1086 9.98323 72.9866 10.1007C72.8647 10.2182 72.7942 10.3792 72.7907 10.5485V20.8325C72.7907 20.9879 72.9212 21.0688 73.0694 21.0688H74.7088C74.856 21.0688 74.9699 20.9092 74.9699 20.7548V13.9693C74.9699 13.8594 74.9865 13.8138 75.0187 13.8138C75.0332 13.8138 75.0663 13.8594 75.1016 13.9071L77.743 19.5164C77.8363 19.6884 78.0487 19.7838 78.2611 19.7838H79.1057C79.3171 19.7838 79.5275 19.6884 79.6228 19.5164L82.2466 13.9071C82.2819 13.8594 82.314 13.8138 82.3264 13.8138C82.3617 13.8138 82.3782 13.8594 82.3782 13.9693V20.7548C82.3782 20.9092 82.4922 21.0688 82.6373 21.0688H84.2788C84.4259 21.0688 84.5575 20.989 84.5575 20.8325V20.8335ZM105.028 14.6915C105.028 12.6211 103.733 11.6947 102.139 11.6947C100.546 11.6947 99.2487 12.6211 99.2487 14.6915V16.2978C99.2487 18.3693 100.546 19.2926 102.139 19.2926C103.732 19.2926 105.028 18.3693 105.028 16.2978V14.6915ZM107.306 14.6915V16.2978C107.306 19.7496 104.822 21.1931 102.139 21.1931C99.458 21.1931 96.9751 19.7496 96.9751 16.2967V14.6915C96.9751 11.2408 99.458 9.79725 102.139 9.79725C104.822 9.79725 107.306 11.2397 107.306 14.6915ZM68.5223 14.6915C68.5223 12.6211 67.2269 11.6947 65.6332 11.6947C64.0404 11.6947 62.743 12.6211 62.743 14.6915V16.2978C62.743 18.3693 64.0404 19.2926 65.6342 19.2926C67.2269 19.2926 68.5223 18.3693 68.5223 16.2978V14.6915ZM70.801 14.6915V16.2978C70.801 19.7496 68.3161 21.1931 65.6332 21.1931C62.9523 21.1931 60.4705 19.7496 60.4705 16.2967V14.6915C60.4705 11.2408 62.9523 9.79725 65.6332 9.79725C68.3161 9.79725 70.801 11.2397 70.801 14.6915ZM58.2539 20.7537V10.22C58.2539 10.046 58.1057 9.9216 57.9285 9.9216H56.3223C56.1399 9.9216 55.9938 10.046 55.9938 10.22V14.2947H50.8456V10.22C50.8456 10.046 50.6984 9.9216 50.5223 9.9216H48.914C48.7326 9.9216 48.5876 10.046 48.5876 10.22V20.7548C48.5876 20.9257 48.7326 21.0688 48.914 21.0688H50.5223C50.6066 21.0693 50.6878 21.0367 50.7482 20.978C50.8087 20.9192 50.8437 20.8391 50.8456 20.7548V16.2086H55.9938V20.7548C55.9938 20.9257 56.1389 21.0688 56.3223 21.0688H57.9285C58.1047 21.0688 58.2539 20.9247 58.2539 20.7537ZM168.149 11.7403H164.908V20.7548C164.906 20.8399 164.87 20.9207 164.808 20.9795C164.747 21.0383 164.664 21.0704 164.579 21.0688H162.973C162.888 21.0699 162.807 21.0375 162.746 20.9786C162.685 20.9198 162.65 20.8393 162.649 20.7548V11.7403H159.403C159.225 11.7403 159.077 11.6325 159.077 11.4605V10.22C159.077 10.046 159.225 9.9216 159.403 9.9216H168.149C168.327 9.9216 168.475 10.046 168.475 10.22V11.4594C168.475 11.6325 168.327 11.7403 168.149 11.7403ZM46.3772 11.7403H43.1357V20.7548C43.1336 20.8397 43.098 20.9203 43.0366 20.9791C42.9753 21.0379 42.8932 21.0701 42.8083 21.0688H41.2021C41.1175 21.0699 41.0359 21.0375 40.9752 20.9786C40.9144 20.9198 40.8794 20.8393 40.8777 20.7548V11.7403H37.6311C37.4539 11.7403 37.3057 11.6325 37.3057 11.4605V10.22C37.3057 10.046 37.4539 9.9216 37.6311 9.9216H46.3772C46.5565 9.9216 46.7036 10.046 46.7036 10.22V11.4594C46.7036 11.6325 46.5554 11.7403 46.3772 11.7403ZM157.639 16.7506V10.22C157.639 10.046 157.492 9.9216 157.312 9.9216H155.703C155.524 9.9216 155.379 10.046 155.379 10.22V16.7506C155.379 18.5403 154.523 19.3879 152.768 19.3879C151.015 19.3879 150.158 18.5403 150.158 16.7506V10.22C150.158 10.046 150.012 9.9216 149.832 9.9216H148.226C148.048 9.9216 147.899 10.046 147.899 10.22V16.7506C147.899 20.0947 150.152 21.1931 152.768 21.1931C155.385 21.1931 157.639 20.0947 157.639 16.7506ZM172.213 16.2086H177.416C177.5 16.2098 177.581 16.1777 177.642 16.1193C177.703 16.061 177.738 15.981 177.741 15.8967V14.7631C177.738 14.6788 177.703 14.5988 177.642 14.5404C177.581 14.4821 177.5 14.45 177.416 14.4511H172.213V13.0107C172.213 11.6988 172.265 11.6636 173.494 11.6636H177.61C177.695 11.6641 177.777 11.6315 177.837 11.5725C177.898 11.5136 177.934 11.4332 177.936 11.3485V10.3444C177.936 10.1237 177.854 10.0439 177.61 10.0138C177.089 9.93714 176.031 9.79621 174.097 9.79621C171.4 9.79621 169.968 9.77756 169.968 13.0107V17.9755C169.968 21.2086 171.4 21.1921 174.097 21.1921C176.031 21.1921 177.089 21.0511 177.61 20.9724C177.854 20.9413 177.936 20.8625 177.936 20.6408V19.6397C177.934 19.5553 177.898 19.475 177.837 19.4165C177.776 19.3579 177.695 19.3257 177.61 19.3268H173.494C172.265 19.3268 172.213 19.2905 172.213 17.9755V16.2086ZM140.097 16.2086H145.299C145.384 16.21 145.466 16.1781 145.527 16.1197C145.588 16.0613 145.623 15.9812 145.626 15.8967V14.7631C145.623 14.6786 145.588 14.5985 145.527 14.5401C145.466 14.4817 145.384 14.4497 145.299 14.4511H140.097V13.0107C140.097 11.6988 140.149 11.6636 141.379 11.6636H145.494C145.579 11.6644 145.661 11.6319 145.722 11.5729C145.783 11.514 145.819 11.4334 145.821 11.3485V10.3444C145.821 10.1237 145.738 10.0439 145.494 10.0138C144.974 9.93714 143.915 9.79621 141.981 9.79621C139.284 9.79621 137.853 9.77756 137.853 13.0107V17.9755C137.853 21.2086 139.284 21.1921 141.982 21.1921C143.915 21.1921 144.974 21.0511 145.494 20.9724C145.738 20.9413 145.821 20.8625 145.821 20.6408V19.6397C145.819 19.5551 145.783 19.4747 145.722 19.4161C145.661 19.3575 145.579 19.3254 145.494 19.3268H141.379C140.149 19.3268 140.097 19.2905 140.097 17.9755V16.2086ZM187.434 13.3423C187.434 12.1651 186.488 11.6636 184.862 11.6636C184.52 11.6636 183.04 11.6947 182.75 11.7257V15.1278C183.008 15.1444 184.583 15.1765 184.862 15.1765C186.535 15.1765 187.433 14.8656 187.433 13.4853L187.434 13.3423ZM190.066 20.8812C190.066 20.989 190.002 21.0677 189.873 21.0677H187.887C187.709 21.0677 187.644 20.9092 187.563 20.7548L185.222 16.9496H184.862C184.437 16.9496 183.124 16.904 182.75 16.8853V20.7548C182.751 20.7959 182.743 20.8368 182.728 20.875C182.713 20.9132 182.69 20.948 182.661 20.9772C182.632 21.0065 182.597 21.0296 182.559 21.0454C182.521 21.0611 182.481 21.069 182.439 21.0688H180.814C180.73 21.0696 180.649 21.0371 180.588 20.9783C180.527 20.9196 180.492 20.8392 180.49 20.7548V10.4688C180.49 10.1548 180.683 10.0439 181.01 9.99828C181.857 9.87393 183.674 9.79517 184.862 9.79517C187.365 9.79517 189.676 10.6594 189.676 13.3413V13.4843C189.676 15.1444 188.816 16.0542 187.483 16.5537L190.033 20.7537C190.067 20.8004 190.067 20.8449 190.067 20.8801L190.066 20.8812ZM133.481 13.3423C133.481 12.1651 132.535 11.6636 130.91 11.6636C130.567 11.6636 129.088 11.6947 128.798 11.7257V15.1278C129.056 15.1444 130.631 15.1765 130.91 15.1765C132.582 15.1765 133.48 14.8656 133.48 13.4853L133.481 13.3423ZM136.114 20.8812C136.114 20.989 136.049 21.0677 135.92 21.0677H133.935C133.758 21.0677 133.691 20.9092 133.61 20.7548L131.269 16.9496H130.91C130.485 16.9496 129.172 16.904 128.798 16.8853V20.7548C128.799 20.796 128.791 20.8369 128.776 20.8752C128.761 20.9134 128.738 20.9483 128.709 20.9775C128.68 21.0068 128.645 21.03 128.607 21.0457C128.569 21.0613 128.528 21.0692 128.487 21.0688H126.862C126.778 21.0693 126.697 21.0367 126.636 20.978C126.576 20.9192 126.541 20.8391 126.539 20.7548V10.4688C126.539 10.1548 126.731 10.0439 127.058 9.99828C127.905 9.87393 129.721 9.79517 130.91 9.79517C133.412 9.79517 135.723 10.6594 135.723 13.3413V13.4843C135.723 15.1444 134.863 16.0542 133.531 16.5537L136.08 20.7537C136.114 20.8004 136.114 20.846 136.114 20.8812Z" fill="#1D3462"/>
<path d="M28.7917 17.3879C28.0052 17.3879 27.3668 18.0149 27.3668 18.79C27.3668 19.563 28.0052 20.191 28.7917 20.191C29.5782 20.191 30.2166 19.563 30.2166 18.79C30.2166 18.0149 29.5793 17.3879 28.7917 17.3879ZM26.9845 21.0263C26.3171 21.0263 25.7762 21.5589 25.7762 22.2149C25.7762 22.8719 26.3171 23.4045 26.9845 23.4045C27.6508 23.4045 28.1917 22.8719 28.1917 22.2149C28.1917 21.5589 27.6508 21.0263 26.9845 21.0263ZM24.3005 23.877C24.1643 23.8758 24.0293 23.9014 23.903 23.9524C23.7767 24.0035 23.6618 24.0788 23.5647 24.1743C23.4676 24.2698 23.3902 24.3835 23.3371 24.5088C23.2839 24.6342 23.256 24.7688 23.2549 24.905C23.2559 25.0412 23.2837 25.1758 23.3367 25.3013C23.3897 25.4267 23.4669 25.5405 23.5639 25.636C23.6609 25.7316 23.7758 25.8071 23.902 25.8582C24.0283 25.9094 24.1633 25.9351 24.2995 25.934C24.4357 25.9353 24.5709 25.9096 24.6972 25.8585C24.8236 25.8075 24.9386 25.732 25.0357 25.6364C25.1328 25.5408 25.2101 25.427 25.2632 25.3015C25.3163 25.176 25.3441 25.0413 25.3451 24.905C25.344 24.7688 25.3161 24.6342 25.2629 24.5088C25.2098 24.3835 25.1324 24.2698 25.0353 24.1743C24.9382 24.0788 24.8233 24.0035 24.697 23.9524C24.5707 23.9014 24.4357 23.8758 24.2995 23.877H24.3005ZM21.287 25.7952C21.1764 25.7941 21.0666 25.8148 20.9639 25.8562C20.8613 25.8976 20.7678 25.9589 20.6889 26.0365C20.6099 26.1141 20.5471 26.2065 20.5039 26.3084C20.4608 26.4103 20.4381 26.5197 20.4373 26.6304C20.4373 27.0915 20.8176 27.4656 21.287 27.4656C21.7565 27.4656 22.1347 27.0915 22.1347 26.6304C22.1339 26.5199 22.1113 26.4106 22.0683 26.3089C22.0253 26.2071 21.9626 26.1148 21.8839 26.0372C21.8052 25.9597 21.7119 25.8984 21.6095 25.8568C21.5071 25.8153 21.3975 25.7944 21.287 25.7952ZM18.3233 26.8107C18.1321 26.8093 17.9482 26.8838 17.8118 27.0179C17.6754 27.1519 17.5978 27.3345 17.5959 27.5257C17.5959 27.9226 17.9212 28.2439 18.3233 28.2439C18.7254 28.2439 19.0518 27.9226 19.0518 27.5268C19.0511 27.4318 19.0317 27.338 18.9948 27.2505C18.9578 27.1631 18.9039 27.0838 18.8362 27.0172C18.7686 26.9506 18.6884 26.898 18.6004 26.8624C18.5124 26.8268 18.4183 26.8099 18.3233 26.8107ZM15.5482 27.2138C15.4665 27.2131 15.3855 27.2285 15.3099 27.2592C15.2342 27.2898 15.1652 27.335 15.107 27.3923C15.0488 27.4495 15.0024 27.5177 14.9705 27.5929C14.9387 27.668 14.9219 27.7488 14.9212 27.8304C14.9218 27.9121 14.9384 27.993 14.9703 28.0683C15.0021 28.1436 15.0484 28.2119 15.1066 28.2692C15.1649 28.3266 15.2338 28.3719 15.3096 28.4026C15.3854 28.4333 15.4664 28.4487 15.5482 28.448C15.6298 28.4486 15.7108 28.433 15.7864 28.4023C15.8621 28.3715 15.9309 28.3262 15.9891 28.2689C16.0472 28.2115 16.0934 28.1433 16.1252 28.068C16.1569 27.9928 16.1736 27.9121 16.1741 27.8304C16.1727 27.6657 16.106 27.5082 15.9887 27.3926C15.8713 27.277 15.7129 27.2127 15.5482 27.2138ZM12.7679 26.8107C12.6729 26.8099 12.5788 26.8278 12.4908 26.8634C12.4027 26.899 12.3226 26.9516 12.255 27.0182C12.1873 27.0848 12.1334 27.1641 12.0964 27.2516C12.0594 27.339 12.0401 27.4329 12.0394 27.5278C12.0394 27.9237 12.3658 28.2449 12.7679 28.2449C13.1699 28.2449 13.4964 27.9237 13.4964 27.5278C13.4957 27.4329 13.4763 27.339 13.4393 27.2516C13.4023 27.1641 13.3485 27.0848 13.2808 27.0182C13.2131 26.9516 13.133 26.899 13.045 26.8634C12.957 26.8278 12.8628 26.8099 12.7679 26.8107ZM9.80415 25.7952C9.33782 25.7952 8.95855 26.1672 8.95855 26.6263C8.95855 27.0853 9.33782 27.4594 9.80415 27.4594C10.2715 27.4594 10.6497 27.0864 10.6497 26.6263C10.6497 26.1662 10.2715 25.7941 9.80415 25.7941V25.7952ZM6.7886 23.8801C6.51412 23.8782 6.25008 23.9853 6.05444 24.1778C5.8588 24.3703 5.74754 24.6326 5.74508 24.9071C5.74727 25.1817 5.85841 25.4443 6.05408 25.6371C6.24975 25.8298 6.51394 25.937 6.7886 25.9351C6.92469 25.9362 7.05966 25.9104 7.1858 25.8594C7.31194 25.8083 7.4268 25.7329 7.52379 25.6374C7.62079 25.542 7.69803 25.4283 7.75112 25.303C7.8042 25.1777 7.83208 25.0432 7.83316 24.9071C7.8307 24.6324 7.71929 24.37 7.52343 24.1774C7.32756 23.9849 7.06326 23.8779 6.7886 23.8801ZM4.10777 21.0273C3.44041 21.0273 2.89845 21.561 2.89845 22.218C2.89845 22.875 3.44041 23.4076 4.10777 23.4076C4.77513 23.4076 5.3171 22.875 5.3171 22.218C5.3171 21.561 4.77513 21.0273 4.10777 21.0273ZM2.29948 17.3848C1.51399 17.3848 0.876684 18.0118 0.876684 18.7858C0.876684 19.5599 1.51399 20.1869 2.29948 20.1869C3.08705 20.1869 3.72332 19.5599 3.72332 18.7858C3.72332 18.0118 3.08601 17.3848 2.29948 17.3848ZM1.64663 12.8397C0.736787 12.8397 0 13.5651 0 14.4605C0 15.3558 0.736788 16.0812 1.64767 16.0812C2.55648 16.0812 3.29326 15.3558 3.29326 14.4605C3.29326 13.5651 2.55648 12.8397 1.64663 12.8397ZM2.29948 8.73403C1.51399 8.73403 0.876684 9.36098 0.876684 10.134C0.876684 10.9071 1.51399 11.534 2.29948 11.534C3.08497 11.534 3.72124 10.9071 3.72124 10.1351C3.72124 9.36098 3.08497 8.73403 2.29948 8.73403ZM4.1057 5.51124C3.43834 5.51124 2.89637 6.04492 2.89637 6.70295C2.89637 7.36098 3.43834 7.89258 4.1057 7.89258C4.77409 7.89258 5.31503 7.35994 5.31503 6.70191C5.31503 6.04388 4.77409 5.51124 4.1057 5.51124ZM6.79067 2.98378C6.51619 2.98184 6.25216 3.08889 6.05652 3.28142C5.86088 3.47395 5.74961 3.73624 5.74715 4.01072C5.74934 4.28538 5.86048 4.54793 6.05615 4.74068C6.25182 4.93344 6.51601 5.04063 6.79067 5.0387C6.92676 5.03979 7.06173 5.01407 7.18787 4.963C7.31402 4.91193 7.42887 4.83651 7.52586 4.74105C7.62286 4.6456 7.70011 4.53197 7.75319 4.40666C7.80627 4.28134 7.83415 4.1468 7.83523 4.01072C7.83277 3.73606 7.72137 3.47362 7.5255 3.28105C7.32964 3.08849 7.06533 2.98157 6.79067 2.98378ZM9.80518 1.45839C9.58274 1.45673 9.36874 1.54344 9.21019 1.69947C9.05164 1.85549 8.9615 2.06807 8.95959 2.29051C8.9615 2.51295 9.05164 2.72553 9.21019 2.88156C9.36874 3.03758 9.58274 3.12429 9.80518 3.12264C10.0274 3.12402 10.2412 3.03719 10.3995 2.88119C10.5578 2.72519 10.6478 2.51277 10.6497 2.29051C10.6489 2.18042 10.6264 2.07156 10.5836 1.97016C10.5407 1.86876 10.4782 1.7768 10.3998 1.69953C10.3214 1.62226 10.2285 1.56119 10.1265 1.51982C10.0245 1.47844 9.91527 1.45757 9.80518 1.45839ZM12.7658 0.673931C12.3637 0.673931 12.0373 0.995175 12.0373 1.39103C12.0373 1.78688 12.3637 2.10813 12.7658 2.10813C13.1699 2.10813 13.4953 1.78688 13.4953 1.39103C13.4953 0.995175 13.1689 0.673931 12.7658 0.673931ZM15.542 0.46875C15.1959 0.46875 14.9161 0.744398 14.9161 1.08429C14.9161 1.42419 15.1959 1.70087 15.542 1.70087C15.887 1.70087 16.1679 1.42419 16.1679 1.08429C16.1679 0.744398 15.8881 0.46875 15.542 0.46875ZM18.3264 0.676004C18.2316 0.675184 18.1375 0.693055 18.0495 0.728598C17.9616 0.76414 17.8815 0.816657 17.8139 0.88315C17.7462 0.949644 17.6923 1.02881 17.6553 1.11613C17.6182 1.20345 17.5987 1.29721 17.5979 1.39207C17.5979 1.78792 17.9244 2.10813 18.3264 2.10813C18.7275 2.10813 19.0528 1.78688 19.0528 1.3931C19.0515 1.20172 18.9742 1.01871 18.838 0.884254C18.7018 0.7498 18.5178 0.674901 18.3264 0.676004ZM21.287 1.45942C20.8207 1.45942 20.4415 1.83248 20.4415 2.29051C20.4415 2.74958 20.8197 3.1216 21.287 3.1216C21.7534 3.1216 22.1316 2.74958 22.1316 2.29051C22.1297 2.06835 22.0397 1.85603 21.8813 1.7002C21.7229 1.54437 21.5092 1.45777 21.287 1.45942ZM24.2974 2.98688C24.1615 2.98579 24.0266 3.01149 23.9006 3.06251C23.7746 3.11352 23.6599 3.18886 23.563 3.28423C23.4661 3.37959 23.3889 3.4931 23.3359 3.61829C23.2828 3.74347 23.255 3.87788 23.2539 4.01383C23.2539 4.58067 23.7202 5.03973 24.2974 5.03973C24.5716 5.04167 24.8354 4.93473 25.0308 4.74239C25.2263 4.55005 25.3374 4.28803 25.3399 4.01383C25.3399 3.44699 24.8736 2.98688 24.2974 2.98688ZM26.9813 5.51227C26.6629 5.51007 26.3566 5.63432 26.1296 5.85775C25.9027 6.08118 25.7737 6.38553 25.771 6.70398C25.771 7.36201 26.314 7.89569 26.9824 7.89569C27.3008 7.8979 27.6072 7.77365 27.8341 7.55022C28.061 7.32679 28.19 7.02243 28.1927 6.70398C28.19 6.38553 28.061 6.08118 27.8341 5.85775C27.6072 5.63432 27.2998 5.51007 26.9813 5.51227ZM28.7907 8.72989C28.0062 8.72989 27.3689 9.35683 27.3689 10.1289C27.3689 10.9029 28.0062 11.5299 28.7907 11.5299C29.5772 11.5299 30.2135 10.9029 30.2135 10.1299C30.2135 9.35683 29.5772 8.72989 28.7907 8.72989ZM22.2642 16.6004C22.0962 16.5993 21.9346 16.6649 21.8149 16.7828C21.6953 16.9007 21.6273 17.0614 21.6259 17.2294C21.6259 17.5776 21.9119 17.8584 22.2642 17.8584C22.6176 17.8584 22.9036 17.5776 22.9036 17.2294C22.9029 17.1461 22.8859 17.0638 22.8534 16.9871C22.8209 16.9104 22.7736 16.8408 22.7142 16.7824C22.6548 16.724 22.5845 16.6779 22.5073 16.6466C22.4301 16.6154 22.3475 16.5997 22.2642 16.6004ZM20.6684 18.932C20.5851 18.9313 20.5025 18.947 20.4253 18.9783C20.3481 19.0095 20.2778 19.0556 20.2184 19.114C20.1591 19.1725 20.1118 19.242 20.0793 19.3187C20.0468 19.3954 20.0297 19.4777 20.029 19.561C20.029 19.9081 20.315 20.19 20.6684 20.19C21.0218 20.19 21.3078 19.9081 21.3078 19.561C21.3071 19.4777 21.29 19.3954 21.2575 19.3187C21.225 19.242 21.1777 19.1725 21.1184 19.114C21.059 19.0556 20.9887 19.0095 20.9115 18.9783C20.8343 18.947 20.7517 18.9313 20.6684 18.932ZM18.3026 20.4294C17.9192 20.4294 17.6083 20.7351 17.6083 21.1123C17.6083 21.4895 17.9192 21.7952 18.3026 21.7952C18.686 21.7952 18.9969 21.4895 18.9969 21.1112C18.9969 20.7351 18.686 20.4294 18.3026 20.4294ZM15.5047 20.8366C15.3828 20.8355 15.2619 20.8585 15.1489 20.9041C15.0359 20.9498 14.933 21.0173 14.846 21.1028C14.7591 21.1882 14.6899 21.29 14.6424 21.4022C14.5948 21.5144 14.5699 21.6349 14.5689 21.7568C14.5689 22.2646 14.9876 22.676 15.5036 22.676C16.0197 22.676 16.4383 22.2636 16.4383 21.7568C16.4375 21.635 16.4127 21.5145 16.3653 21.4023C16.3178 21.2901 16.2487 21.1883 16.1619 21.1028C16.0751 21.0174 15.9722 20.9498 15.8593 20.9042C15.7463 20.8585 15.6265 20.8355 15.5047 20.8366ZM12.714 20.2874C12.1275 20.2874 11.6528 20.7537 11.6528 21.3309C11.6528 21.9071 12.1275 22.3744 12.714 22.3744C13.2995 22.3744 13.7741 21.9081 13.7741 21.3309C13.7741 20.7537 13.2995 20.2874 12.714 20.2874ZM10.1803 18.5289C9.53057 18.5289 9.00415 19.047 9.00415 19.6874C9.00415 20.3268 9.53057 20.8449 10.1803 20.8449C10.8301 20.8449 11.3565 20.3268 11.3565 19.6874C11.3565 19.048 10.8301 18.5289 10.1803 18.5289ZM8.51192 16.1765C8.38314 16.1753 8.25539 16.1995 8.13597 16.2477C8.01656 16.2959 7.90782 16.3672 7.81599 16.4575C7.72416 16.5478 7.65105 16.6553 7.60082 16.7739C7.5506 16.8924 7.52426 17.0198 7.52332 17.1485C7.52332 17.6853 7.9658 18.1195 8.51088 18.1195C9.05596 18.1195 9.49845 17.6843 9.49845 17.1485C9.49626 16.8887 9.39101 16.6404 9.20583 16.4581C9.02066 16.2759 8.77174 16.1746 8.51192 16.1765ZM8.12021 13.59C8.0205 13.5892 7.92162 13.608 7.82921 13.6454C7.7368 13.6829 7.65267 13.7382 7.58164 13.8081C7.51061 13.8781 7.45407 13.9614 7.41526 14.0532C7.37644 14.1451 7.35612 14.2437 7.35544 14.3434C7.35544 14.7579 7.69741 15.0957 8.12021 15.0957C8.32121 15.0971 8.51454 15.0186 8.65774 14.8776C8.80094 14.7365 8.88229 14.5444 8.88394 14.3434C8.88326 14.2437 8.86297 14.1452 8.82422 14.0535C8.78547 13.9617 8.72902 13.8785 8.65811 13.8085C8.58719 13.7385 8.50318 13.6832 8.41089 13.6457C8.3186 13.6083 8.21982 13.5893 8.12021 13.59ZM8.79275 11.0625C8.70905 11.0618 8.62605 11.0777 8.54846 11.1091C8.47088 11.1405 8.40024 11.1868 8.34058 11.2455C8.28092 11.3042 8.2334 11.3741 8.20075 11.4512C8.16809 11.5282 8.15094 11.611 8.15026 11.6947C8.15026 12.0428 8.43834 12.3257 8.79275 12.3257C8.87639 12.3264 8.95935 12.3106 9.03687 12.2792C9.1144 12.2478 9.18497 12.2014 9.24454 12.1427C9.30412 12.084 9.35154 12.0141 9.38408 11.937C9.41662 11.86 9.43366 11.7773 9.4342 11.6936C9.43352 11.61 9.41636 11.5273 9.38369 11.4503C9.35102 11.3733 9.30349 11.3035 9.24381 11.2449C9.18414 11.1862 9.11349 11.14 9.03591 11.1087C8.95834 11.0774 8.87639 11.0617 8.79275 11.0625ZM10.3886 8.75476C10.2206 8.75366 10.059 8.81928 9.9393 8.93721C9.81962 9.05515 9.75163 9.21576 9.75026 9.38378C9.75026 9.73093 10.0363 10.0118 10.3896 10.0118C10.742 10.0118 11.028 9.73093 11.028 9.38378C11.0266 9.21576 10.9586 9.05515 10.8389 8.93721C10.7193 8.81928 10.5577 8.75366 10.3896 8.75476H10.3886ZM12.7513 7.13818C12.3689 7.13818 12.058 7.44492 12.058 7.82212C12.058 8.19932 12.3689 8.50502 12.7523 8.50502C13.1358 8.50502 13.4466 8.19932 13.4466 7.82108C13.4466 7.44284 13.1347 7.13818 12.7513 7.13818ZM15.5492 6.25631C15.4284 6.25536 15.3085 6.27821 15.1965 6.32358C15.0845 6.36894 14.9825 6.43592 14.8964 6.5207C14.8103 6.60548 14.7417 6.70639 14.6946 6.81767C14.6475 6.92895 14.6227 7.04842 14.6218 7.16927C14.6218 7.67393 15.0363 8.08326 15.5492 8.08326C15.6702 8.08435 15.7903 8.06156 15.9025 8.01619C16.0147 7.97083 16.1168 7.90378 16.2031 7.81888C16.2893 7.73398 16.358 7.6329 16.4051 7.52143C16.4522 7.40996 16.4769 7.29029 16.4777 7.16927C16.4777 6.66461 16.0622 6.25631 15.5492 6.25631ZM18.3472 6.55891C17.7637 6.55891 17.2902 7.02523 17.2902 7.59932C17.2902 8.17341 17.7637 8.63973 18.3472 8.63973C18.9316 8.63973 19.4041 8.17341 19.4041 7.59932C19.4041 7.02523 18.9316 6.55891 18.3472 6.55891ZM20.8684 8.08429C20.2176 8.08429 19.6902 8.6045 19.6902 9.24492C19.6902 9.88533 20.2176 10.4055 20.8684 10.4055C21.5192 10.4055 22.0477 9.88533 22.0477 9.24492C22.0477 8.6045 21.5192 8.08429 20.8684 8.08429ZM22.5399 10.8097C22.4113 10.8086 22.2838 10.8328 22.1647 10.8811C22.0455 10.9293 21.937 11.0005 21.8454 11.0907C21.7538 11.1809 21.6808 11.2882 21.6307 11.4066C21.5806 11.525 21.5543 11.6521 21.5534 11.7807C21.5534 12.3164 21.9948 12.7506 22.5399 12.7506C23.0839 12.7506 23.5254 12.3154 23.5254 11.7807C23.5244 11.6522 23.4982 11.5252 23.4482 11.4069C23.3981 11.2885 23.3253 11.1812 23.2337 11.0911C23.1422 11.0009 23.0339 10.9296 22.9148 10.8814C22.7958 10.8331 22.6684 10.8087 22.5399 10.8097ZM19.972 15.0729C19.6456 15.0729 19.3813 15.333 19.3813 15.6532C19.3813 15.9734 19.6456 16.2335 19.972 16.2335C20.2974 16.2335 20.5617 15.9744 20.5617 15.6532C20.5617 15.332 20.2974 15.0729 19.971 15.0729H19.972ZM18.8269 16.8677C18.7126 16.8668 18.5992 16.8883 18.4933 16.9312C18.3873 16.9741 18.2908 17.0374 18.2093 17.1175C18.1278 17.1977 18.0629 17.2931 18.0182 17.3984C17.9736 17.5036 17.9502 17.6166 17.9492 17.7309C17.9492 18.2076 18.343 18.5941 18.8269 18.5941C19.3109 18.5941 19.7036 18.2076 19.7036 17.7309C19.7017 17.5002 19.6083 17.2798 19.4439 17.1179C19.2795 16.956 19.0576 16.8661 18.8269 16.8677ZM16.571 18.0418C16.3295 18.0401 16.0972 18.1344 15.9251 18.3038C15.7529 18.4732 15.655 18.7039 15.6528 18.9454C15.6528 19.4449 16.0642 19.8501 16.571 19.8501C17.0777 19.8501 17.4902 19.446 17.4902 18.9454C17.488 18.7038 17.3899 18.4728 17.2176 18.3034C17.0452 18.134 16.8127 18.0399 16.571 18.0418ZM13.9316 17.9755C13.8255 17.9747 13.7202 17.9948 13.6218 18.0346C13.5234 18.0745 13.4339 18.1333 13.3582 18.2078C13.2826 18.2823 13.2224 18.371 13.181 18.4687C13.1396 18.5665 13.1179 18.6714 13.1171 18.7776C13.119 18.9918 13.2059 19.1964 13.3586 19.3466C13.5113 19.4968 13.7174 19.5802 13.9316 19.5786C14.1458 19.5802 14.3519 19.4968 14.5046 19.3466C14.6573 19.1964 14.7442 18.9918 14.7461 18.7776C14.7453 18.6714 14.7236 18.5665 14.6822 18.4687C14.6408 18.371 14.5806 18.2823 14.505 18.2078C14.4293 18.1333 14.3398 18.0745 14.2414 18.0346C14.143 17.9948 14.0378 17.9747 13.9316 17.9755ZM11.9699 16.6667C11.8921 16.666 11.8149 16.6807 11.7427 16.7098C11.6705 16.739 11.6048 16.7821 11.5493 16.8366C11.4938 16.8912 11.4495 16.9561 11.4191 17.0278C11.3887 17.0995 11.3727 17.1764 11.372 17.2542C11.372 17.5796 11.6394 17.8428 11.9699 17.8428C12.0479 17.8435 12.1252 17.8288 12.1974 17.7996C12.2697 17.7704 12.3354 17.7272 12.391 17.6725C12.4465 17.6179 12.4907 17.5528 12.5211 17.481C12.5514 17.4092 12.5673 17.3322 12.5679 17.2542C12.5672 17.1764 12.5512 17.0995 12.5208 17.0278C12.4904 16.9561 12.4461 16.8912 12.3906 16.8366C12.3351 16.7821 12.2694 16.739 12.1972 16.7098C12.125 16.6807 12.0478 16.666 11.9699 16.6667ZM11.1907 14.9703C11.1342 14.9699 11.0782 14.9806 11.0259 15.0018C10.9735 15.0231 10.9259 15.0544 10.8857 15.0941C10.8454 15.1337 10.8134 15.1809 10.7914 15.2329C10.7694 15.2849 10.7579 15.3408 10.7575 15.3972C10.7575 15.6325 10.9523 15.8242 11.1907 15.8242C11.2473 15.8249 11.3035 15.8144 11.3561 15.7932C11.4087 15.7721 11.4566 15.7408 11.497 15.7012C11.5375 15.6615 11.5697 15.6142 11.5918 15.5621C11.6139 15.5099 11.6255 15.4539 11.6259 15.3972C11.6255 15.3406 11.6139 15.2846 11.5918 15.2324C11.5697 15.1803 11.5375 15.133 11.497 15.0933C11.4566 15.0536 11.4087 15.0224 11.3561 15.0012C11.3035 14.9801 11.2473 14.9696 11.1907 14.9703ZM11.1461 12.7599C11.0692 12.7591 10.9929 12.7735 10.9215 12.8022C10.8501 12.831 10.7852 12.8735 10.7303 12.9275C10.6754 12.9814 10.6317 13.0456 10.6017 13.1164C10.5717 13.1873 10.556 13.2633 10.5554 13.3403C10.5554 13.6605 10.8197 13.9206 11.1461 13.9206C11.4715 13.9206 11.7347 13.6605 11.7347 13.3403C11.7347 13.019 11.4715 12.7599 11.1461 12.7599ZM12.2943 10.3941C12.0643 10.3925 11.8431 10.4821 11.6792 10.6433C11.5152 10.8046 11.4219 11.0243 11.4197 11.2542C11.4197 11.7309 11.8114 12.1164 12.2943 12.1164C12.5244 12.1181 12.7458 12.0283 12.9098 11.8668C13.0738 11.7054 13.167 11.4854 13.1689 11.2553C13.167 11.0251 13.0738 10.8052 12.9098 10.6437C12.7458 10.4822 12.5244 10.3925 12.2943 10.3941ZM14.5368 9.13611C14.029 9.13611 13.6166 9.54129 13.6166 10.0418C13.6166 10.5423 14.028 10.9465 14.5368 10.9465C15.0446 10.9465 15.456 10.5423 15.456 10.0418C15.456 9.54129 15.0446 9.13611 14.5368 9.13611ZM17.1834 9.42523C17.0771 9.42413 16.9716 9.44403 16.873 9.48377C16.7744 9.52351 16.6846 9.58232 16.6087 9.65683C16.5328 9.73133 16.4724 9.82008 16.4309 9.91797C16.3894 10.0159 16.3677 10.121 16.3668 10.2273C16.3668 10.6708 16.7326 11.0304 17.1834 11.0304C17.2897 11.0312 17.3951 11.0111 17.4936 10.9712C17.5921 10.9313 17.6818 10.8723 17.7575 10.7978C17.8333 10.7232 17.8936 10.6344 17.935 10.5365C17.9764 10.4387 17.9981 10.3336 17.999 10.2273C17.9981 10.1211 17.9764 10.016 17.935 9.91821C17.8935 9.82039 17.8332 9.73169 17.7575 9.6572C17.6817 9.5827 17.592 9.52387 17.4935 9.48407C17.395 9.44427 17.2897 9.42427 17.1834 9.42523ZM19.1337 11.133C18.9767 11.1319 18.8256 11.1931 18.7137 11.3033C18.6018 11.4135 18.5382 11.5635 18.5368 11.7206C18.5368 12.046 18.8041 12.3092 19.1337 12.3092C19.4632 12.3092 19.7316 12.046 19.7316 11.7206C19.7309 11.6427 19.7149 11.5658 19.6845 11.4941C19.6541 11.4225 19.6099 11.3575 19.5543 11.3029C19.4988 11.2484 19.4331 11.2053 19.3609 11.1761C19.2887 11.147 19.2115 11.1323 19.1337 11.133ZM19.9554 13.1662C19.8987 13.1656 19.8425 13.1763 19.7899 13.1975C19.7373 13.2187 19.6895 13.2501 19.649 13.2899C19.6086 13.3296 19.5764 13.3769 19.5543 13.4292C19.5322 13.4814 19.5206 13.5374 19.5202 13.5941C19.5202 13.8294 19.715 14.0211 19.9554 14.0211C20.1938 14.0211 20.3896 13.8294 20.3896 13.5941C20.3892 13.5374 20.3776 13.4814 20.3555 13.4292C20.3334 13.3769 20.3012 13.3296 20.2608 13.2899C20.2204 13.2501 20.1725 13.2187 20.1199 13.1975C20.0674 13.1763 20.0121 13.1656 19.9554 13.1662ZM22.9244 13.8377C22.5005 13.8377 22.1575 14.1765 22.1575 14.5941C22.1575 15.0107 22.5005 15.3485 22.9244 15.3485C23.3492 15.3485 23.6912 15.0107 23.6912 14.5931C23.6895 14.3913 23.6079 14.1984 23.4641 14.0567C23.3203 13.9151 23.1262 13.8363 22.9244 13.8377ZM26.0912 14.7527C25.9859 14.7519 25.8814 14.7718 25.7838 14.8114C25.6861 14.8509 25.5973 14.9093 25.5222 14.9832C25.4472 15.0571 25.3874 15.1451 25.3463 15.2421C25.3053 15.3391 25.2837 15.4432 25.2829 15.5485C25.2829 15.9879 25.6435 16.3444 26.0912 16.3444C26.5368 16.3444 26.8995 15.9879 26.8995 15.5485C26.8987 15.4432 26.8771 15.3391 26.8361 15.2421C26.795 15.1451 26.7352 15.0571 26.6602 14.9832C26.5851 14.9093 26.4962 14.8509 26.3986 14.8114C26.301 14.7718 26.1965 14.7519 26.0912 14.7527ZM25.2891 17.5631C25.1894 17.5622 25.0904 17.5811 24.998 17.6185C24.9055 17.6559 24.8213 17.7112 24.7502 17.7811C24.6791 17.8511 24.6224 17.9344 24.5835 18.0262C24.5446 18.1181 24.5241 18.2167 24.5233 18.3164C24.5233 18.733 24.8653 19.0698 25.2891 19.0698C25.713 19.0698 26.0549 18.733 26.0549 18.3164C26.0541 18.2166 26.0336 18.1179 25.9946 18.026C25.9556 17.934 25.8989 17.8507 25.8277 17.7808C25.7565 17.7108 25.6721 17.6555 25.5796 17.6182C25.487 17.5808 25.389 17.5621 25.2891 17.5631ZM23.9109 19.9216C23.8266 19.9209 23.7431 19.9368 23.665 19.9684C23.5869 20 23.5158 20.0467 23.4558 20.1058C23.3957 20.1649 23.3479 20.2352 23.3151 20.3128C23.2822 20.3904 23.2649 20.4736 23.2642 20.5579C23.2642 20.9092 23.5534 21.1941 23.9098 21.1941C23.9941 21.1948 24.0776 21.1789 24.1557 21.1473C24.2338 21.1157 24.3049 21.069 24.3649 21.0099C24.425 20.9508 24.4728 20.8805 24.5057 20.8029C24.5385 20.7254 24.5558 20.6421 24.5565 20.5579C24.5558 20.4736 24.5385 20.3904 24.5057 20.3128C24.4728 20.2352 24.425 20.1649 24.3649 20.1058C24.3049 20.0467 24.2338 20 24.1557 19.9684C24.0776 19.9368 23.9951 19.9209 23.9109 19.9216ZM22.256 21.6739C22.1093 21.6731 21.9682 21.7304 21.8638 21.8334C21.7593 21.9363 21.6998 22.0765 21.6984 22.2232C21.6984 22.5268 21.9472 22.7734 22.256 22.7734C22.3288 22.7741 22.401 22.7604 22.4685 22.7332C22.536 22.706 22.5975 22.6657 22.6495 22.6147C22.7015 22.5637 22.7429 22.503 22.7714 22.436C22.7999 22.369 22.8149 22.297 22.8155 22.2242C22.8149 22.1514 22.7999 22.0794 22.7714 22.0124C22.7429 21.9454 22.7015 21.8847 22.6495 21.8337C22.5975 21.7827 22.536 21.7424 22.4685 21.7152C22.401 21.6879 22.3288 21.6743 22.256 21.675V21.6739ZM20.5088 22.9527C20.4464 22.9521 20.3845 22.9639 20.3266 22.9873C20.2688 23.0107 20.2161 23.0453 20.1716 23.0891C20.1272 23.1329 20.0918 23.1851 20.0675 23.2426C20.0432 23.3001 20.0305 23.3618 20.0301 23.4242C20.0301 23.6833 20.2446 23.8947 20.5088 23.8947C20.5711 23.8952 20.633 23.8835 20.6908 23.8601C20.7485 23.8368 20.8012 23.8023 20.8456 23.7586C20.8901 23.7149 20.9255 23.6629 20.9499 23.6055C20.9742 23.5481 20.987 23.4865 20.9876 23.4242C20.9872 23.3618 20.9744 23.3001 20.9502 23.2426C20.9259 23.1851 20.8905 23.1329 20.846 23.0891C20.8015 23.0453 20.7488 23.0107 20.691 22.9873C20.6331 22.9639 20.5712 22.9521 20.5088 22.9527ZM18.5316 23.675C18.4589 23.6744 18.3869 23.6882 18.3195 23.7155C18.2522 23.7428 18.1909 23.7831 18.1391 23.8341C18.0873 23.8851 18.0461 23.9458 18.0178 24.0127C17.9895 24.0797 17.9746 24.1515 17.9741 24.2242C17.9741 24.5268 18.2228 24.7724 18.5316 24.7724C18.6042 24.7729 18.6762 24.7591 18.7435 24.7318C18.8108 24.7045 18.8721 24.6642 18.9237 24.6132C18.9754 24.5622 19.0166 24.5015 19.0448 24.4345C19.073 24.3676 19.0877 24.2958 19.0881 24.2232C19.0881 23.9206 18.8394 23.675 18.5316 23.675ZM16.2073 24.048C16.1234 24.0475 16.0403 24.0634 15.9627 24.095C15.885 24.1266 15.8143 24.1732 15.7547 24.2321C15.695 24.2909 15.6475 24.361 15.6149 24.4383C15.5824 24.5155 15.5653 24.5984 15.5648 24.6822C15.5648 25.0314 15.8528 25.3154 16.2073 25.3154C16.2912 25.3162 16.3744 25.3005 16.4523 25.2691C16.5301 25.2377 16.601 25.1913 16.6608 25.1325C16.7207 25.0736 16.7684 25.0036 16.8011 24.9264C16.8339 24.8491 16.8511 24.7661 16.8518 24.6822C16.8513 24.5982 16.8342 24.5151 16.8014 24.4378C16.7687 24.3604 16.7211 24.2902 16.6612 24.2313C16.6013 24.1724 16.5304 24.1259 16.4525 24.0944C16.3746 24.063 16.2913 24.0472 16.2073 24.048ZM13.5492 23.789C13.4401 23.7881 13.3318 23.8088 13.2307 23.8498C13.1296 23.8908 13.0375 23.9514 12.9597 24.028C12.882 24.1046 12.8201 24.1957 12.7776 24.2963C12.735 24.3968 12.7127 24.5047 12.7119 24.6138C12.7119 25.0687 13.087 25.4377 13.5492 25.4377C14.0114 25.4377 14.3865 25.0687 14.3865 24.6138C14.3857 24.5047 14.3634 24.3969 14.3209 24.2964C14.2783 24.1959 14.2164 24.1049 14.1387 24.0283C14.0609 23.9518 13.9688 23.8914 13.8677 23.8505C13.7665 23.8096 13.6583 23.788 13.5492 23.789ZM10.7544 22.8014C10.4943 22.7995 10.2441 22.9009 10.0587 23.0833C9.87335 23.2658 9.76799 23.5144 9.7658 23.7744C9.7658 24.3123 10.2083 24.7485 10.7544 24.7485C11.3005 24.7485 11.743 24.3123 11.743 23.7744C11.7421 23.6456 11.7157 23.5182 11.6655 23.3995C11.6153 23.2808 11.5423 23.1731 11.4505 23.0826C11.3587 22.9922 11.2499 22.9207 11.1305 22.8723C11.0111 22.8238 10.8833 22.7994 10.7544 22.8004V22.8014ZM8.27772 20.9734C7.63731 20.9734 7.1171 21.4853 7.1171 22.1164C7.1171 22.7485 7.63731 23.2594 8.27772 23.2594C8.92021 23.2594 9.43938 22.7475 9.43938 22.1164C9.43938 21.4843 8.91917 20.9734 8.27772 20.9734ZM6.22383 18.2149C5.52953 18.2149 4.96684 18.7693 4.96684 19.4522C4.96684 20.1361 5.52953 20.6905 6.22383 20.6905C6.91813 20.6905 7.48186 20.1361 7.48186 19.4522C7.48186 18.7682 6.91917 18.2149 6.22383 18.2149ZM5.05699 15.3444C4.92799 15.3433 4.80002 15.3676 4.68042 15.416C4.56081 15.4644 4.4519 15.5358 4.35991 15.6263C4.26791 15.7167 4.19464 15.8244 4.14426 15.9432C4.09389 16.0619 4.06741 16.1895 4.06632 16.3185C4.06632 16.8574 4.50984 17.2926 5.05699 17.2926C5.31746 17.2945 5.56805 17.193 5.75378 17.0104C5.93951 16.8278 6.04521 16.579 6.04767 16.3185C6.04767 15.7796 5.60415 15.3444 5.05699 15.3444ZM5.00104 12.5703C4.78739 12.5686 4.58182 12.6519 4.42949 12.8017C4.27716 12.9515 4.19052 13.1556 4.1886 13.3693C4.1886 13.8118 4.5513 14.1693 5.00104 14.1693C5.10691 14.1701 5.21191 14.15 5.31004 14.1103C5.40817 14.0705 5.4975 14.0118 5.57295 13.9375C5.64839 13.8632 5.70846 13.7748 5.74973 13.6773C5.791 13.5798 5.81266 13.4751 5.81347 13.3693C5.81156 13.1556 5.72492 12.9515 5.57258 12.8017C5.42025 12.6519 5.21468 12.5686 5.00104 12.5703ZM5.79896 9.84699C5.69913 9.84617 5.60011 9.86504 5.50757 9.90252C5.41503 9.94 5.33079 9.99536 5.25966 10.0654C5.18854 10.1355 5.13192 10.2189 5.09306 10.3109C5.05419 10.4028 5.03384 10.5016 5.03316 10.6014C5.03316 11.0169 5.37513 11.3548 5.8 11.3548C6.2228 11.3548 6.5658 11.0169 6.5658 10.6014C6.56499 10.5015 6.54451 10.4028 6.50553 10.3108C6.46655 10.2188 6.40984 10.1354 6.33863 10.0654C6.26742 9.99531 6.18312 9.93997 6.09052 9.9025C5.99792 9.86503 5.89885 9.84617 5.79896 9.84699ZM7.18135 7.72782C7.0973 7.72713 7.01393 7.74303 6.93603 7.7746C6.85813 7.80617 6.78722 7.85278 6.72735 7.91178C6.66748 7.97078 6.61984 8.04101 6.58714 8.11844C6.55444 8.19588 6.53733 8.279 6.53679 8.36305C6.53679 8.71331 6.82591 8.99725 7.18135 8.99725C7.26531 8.99793 7.34859 8.98207 7.42642 8.95057C7.50426 8.91906 7.57513 8.87254 7.63498 8.81365C7.69483 8.75476 7.7425 8.68465 7.77526 8.60734C7.80802 8.53003 7.82523 8.44702 7.82591 8.36305C7.82536 8.279 7.80825 8.19588 7.77556 8.11844C7.74286 8.04101 7.69521 7.97078 7.63534 7.91178C7.57548 7.85278 7.50456 7.80617 7.42666 7.7746C7.34876 7.74303 7.2654 7.72713 7.18135 7.72782ZM8.83316 6.14854C8.76063 6.148 8.6887 6.16174 8.62147 6.189C8.55425 6.21625 8.49306 6.25648 8.44138 6.30738C8.38971 6.35829 8.34857 6.41887 8.32031 6.48567C8.29205 6.55248 8.27723 6.6242 8.27668 6.69673C8.27668 6.99932 8.52539 7.24492 8.83316 7.24492C8.90569 7.24546 8.97762 7.23172 9.04485 7.20446C9.11207 7.17721 9.17326 7.13698 9.22494 7.08608C9.27661 7.03517 9.31775 6.97459 9.34601 6.90778C9.37427 6.84098 9.38909 6.76926 9.38964 6.69673C9.38909 6.6242 9.37427 6.55248 9.34601 6.48567C9.31775 6.41887 9.27661 6.35829 9.22494 6.30738C9.17326 6.25648 9.11207 6.21625 9.04485 6.189C8.97762 6.16174 8.90569 6.148 8.83316 6.14854ZM10.5803 5.02005C10.4541 5.01922 10.3326 5.06851 10.2427 5.15709C10.1527 5.24568 10.1016 5.36634 10.1005 5.49258C10.1019 5.61865 10.1531 5.73904 10.2431 5.8274C10.333 5.91577 10.4542 5.96492 10.5803 5.96409C10.7064 5.96492 10.8276 5.91577 10.9176 5.8274C11.0075 5.73904 11.0587 5.61865 11.0601 5.49258C11.059 5.36634 11.0079 5.24568 10.9179 5.15709C10.828 5.06851 10.7066 5.01922 10.5803 5.02005ZM12.5596 4.15062C12.4872 4.15007 12.4154 4.16379 12.3483 4.19099C12.2812 4.21819 12.2201 4.25834 12.1685 4.30915C12.117 4.35996 12.0759 4.42043 12.0477 4.48711C12.0195 4.55379 12.0047 4.62537 12.0041 4.69777C12.0041 4.99932 12.2529 5.24492 12.5606 5.24492C12.7068 5.24574 12.8473 5.18863 12.9514 5.08608C13.0555 4.98352 13.1147 4.84389 13.1161 4.69777C13.1155 4.62537 13.1007 4.55379 13.0725 4.48711C13.0443 4.42043 13.0032 4.35996 12.9517 4.30915C12.9001 4.25834 12.839 4.21819 12.7719 4.19099C12.7048 4.16379 12.633 4.15007 12.5606 4.15062H12.5596ZM14.8767 3.60139C14.7069 3.60029 14.5436 3.66653 14.4226 3.7856C14.3016 3.90467 14.2327 4.06686 14.2311 4.23663C14.2311 4.58792 14.5212 4.87186 14.8767 4.87186C15.0466 4.87324 15.2102 4.80712 15.3314 4.68802C15.4527 4.56892 15.5217 4.40657 15.5233 4.23663C15.5226 4.15239 15.5054 4.06911 15.4725 3.99154C15.4396 3.91398 15.3918 3.84365 15.3318 3.78456C15.2717 3.72548 15.2006 3.6788 15.1226 3.6472C15.0445 3.61559 14.9609 3.60071 14.8767 3.60139ZM17.5399 3.48533C17.0767 3.48533 16.7016 3.85424 16.7016 4.30916C16.7016 4.76409 17.0767 5.13507 17.5399 5.13507C18.0031 5.13507 18.3782 4.76512 18.3782 4.30916C18.3782 3.85321 18.0031 3.48533 17.5399 3.48533ZM20.257 4.11745C19.9966 4.1158 19.7462 4.21736 19.5605 4.39993C19.3748 4.58249 19.2691 4.83117 19.2663 5.09155C19.2663 5.63041 19.7098 6.06771 20.257 6.06771C20.3861 6.06867 20.5142 6.04418 20.6339 5.99564C20.7536 5.9471 20.8625 5.87546 20.9545 5.78481C21.0465 5.69417 21.1197 5.58629 21.17 5.46734C21.2203 5.34839 21.2467 5.22069 21.2477 5.09155C21.2452 4.83109 21.1395 4.58224 20.9538 4.39962C20.7681 4.217 20.5175 4.11552 20.257 4.11745ZM22.8228 5.6501C22.1803 5.6501 21.6601 6.16305 21.6601 6.79414C21.6601 7.42523 22.1813 7.93922 22.8228 7.93922C23.4653 7.93922 23.9855 7.42626 23.9855 6.79414C23.9855 6.16201 23.4653 5.6501 22.8228 5.6501ZM24.8622 8.22834C24.1679 8.22834 23.6041 8.78274 23.6041 9.46564C23.6041 10.1496 24.1668 10.704 24.8622 10.704C25.5575 10.704 26.1202 10.1496 26.1202 9.46564C26.1202 8.7817 25.5575 8.22834 24.8622 8.22834ZM26.0301 11.6263C25.4839 11.6263 25.0415 12.0615 25.0415 12.6004C25.0415 13.1392 25.4839 13.5734 26.0301 13.5734C26.5772 13.5734 27.0197 13.1382 27.0197 12.5993C27.0197 12.0605 26.5772 11.6252 26.0301 11.6252V11.6263ZM31.0881 14.4605C31.0881 15.3558 30.3513 16.0812 29.4404 16.0812C28.5316 16.0812 27.7948 15.3558 27.7948 14.4605C27.7948 13.5651 28.5316 12.8397 29.4415 12.8397C30.3513 12.8397 31.0881 13.5651 31.0881 14.4605Z" fill="#1D3462"/>
</svg>
