<svg width="120" height="52" viewBox="0 0 120 52" fill="none" xmlns="http://www.w3.org/2000/svg">
<path fill-rule="evenodd" clip-rule="evenodd" d="M105.557 15.3149C105.557 15.3144 105.556 15.3141 105.555 15.3136C105.506 15.3694 105.462 15.4248 105.42 15.4797C105.093 15.8949 104.85 16.3833 104.806 16.9378C104.806 16.9435 104.805 16.9495 104.805 16.9554C104.803 16.973 104.803 16.9906 104.801 17.0082C104.8 17.0455 104.798 17.0812 104.798 17.1152C104.798 17.73 105.079 18.9286 106.961 20.0461C108.529 20.9783 110.637 21.4919 112.896 21.4927C114.935 21.4919 116.89 21.0613 118.406 20.2807C119.422 18.386 120 16.2201 120 13.919C120 11.6106 119.419 9.43832 118.397 7.5393C116.883 6.76965 114.941 6.34537 112.916 6.34537H112.902C110.64 6.34537 108.53 6.85906 106.961 7.79202C105.079 8.90958 104.798 10.1081 104.798 10.7229C104.798 11.0763 104.856 11.5836 105.292 12.1955C104.645 12.6164 104.087 13.0626 103.639 13.5682C102.963 12.684 102.649 11.7578 102.649 10.7229C102.649 8.87134 103.79 7.17343 105.863 5.94171C107.76 4.81445 110.26 4.19374 112.902 4.19374H112.916C114.037 4.19374 115.141 4.30957 116.187 4.52873C113.742 2.01413 110.324 0.45166 106.541 0.45166C99.108 0.45166 93.0819 6.48137 93.0819 13.919C93.0819 21.3572 99.108 27.3864 106.541 27.3864C110.328 27.3864 113.748 25.8207 116.194 23.3023C115.144 23.5247 114.034 23.6431 112.907 23.6444H112.885C110.249 23.6418 107.756 23.0211 105.863 21.8961C103.79 20.6647 102.649 18.9663 102.649 17.1152C102.649 17.0489 102.65 16.9839 102.653 16.9179C102.654 16.8974 102.655 16.8773 102.657 16.8563C102.659 16.8109 102.662 16.7656 102.666 16.7203C102.668 16.6976 102.671 16.6746 102.673 16.6515C102.677 16.607 102.683 16.5625 102.689 16.518C102.692 16.497 102.695 16.4761 102.698 16.4551C102.706 16.3975 102.716 16.3406 102.727 16.2834C102.728 16.2767 102.73 16.2696 102.73 16.2624C102.743 16.1987 102.757 16.1353 102.772 16.0719C102.776 16.0531 102.782 16.0342 102.787 16.0148C102.798 15.9703 102.811 15.9259 102.823 15.8814C102.829 15.8592 102.836 15.8369 102.843 15.8146C102.856 15.7724 102.869 15.7299 102.884 15.688C102.891 15.667 102.897 15.6459 102.905 15.625C102.923 15.5743 102.941 15.5234 102.961 15.473C102.966 15.4621 102.97 15.4504 102.974 15.4395C102.998 15.3782 103.024 15.3178 103.052 15.2573C103.059 15.2397 103.068 15.2226 103.076 15.2049C103.097 15.1612 103.117 15.1184 103.138 15.0753C103.149 15.0539 103.16 15.0324 103.171 15.011C103.192 14.9712 103.213 14.9313 103.235 14.8915C103.246 14.8704 103.257 14.8503 103.269 14.8297C103.295 14.784 103.322 14.7386 103.35 14.6938C103.358 14.6799 103.365 14.6665 103.374 14.653C103.41 14.5952 103.447 14.5372 103.486 14.4801C103.496 14.4651 103.508 14.4495 103.518 14.4344C103.547 14.392 103.577 14.35 103.608 14.3081C103.623 14.2884 103.637 14.2682 103.653 14.2485C103.681 14.2103 103.71 14.173 103.739 14.1355C103.754 14.1159 103.77 14.0962 103.786 14.0765C103.82 14.0353 103.854 13.9942 103.889 13.9539C104.35 13.4151 104.933 12.9181 105.63 12.4768C105.649 12.4645 105.669 12.4523 105.688 12.4405C105.745 12.4045 105.804 12.3688 105.863 12.3336C107.76 11.2064 110.043 10.5664 112.686 10.5768C114.027 10.5823 115.306 10.8572 116.169 11.4037C117.193 12.0511 117.777 12.9354 117.777 13.919C117.777 14.9023 117.179 15.8214 116.138 16.4404C115.256 16.9642 114.107 17.2525 112.902 17.2525C110.265 17.2525 107.811 16.6641 105.916 15.5402C106.209 15.2137 106.619 14.8708 107.191 14.5309C107.42 14.3945 107.754 14.2149 107.915 14.1516C109.349 14.7865 111.053 15.1008 112.902 15.1008C114.592 15.1008 115.554 14.5246 115.554 13.9347C115.554 13.462 115.08 12.7692 112.902 12.7373C112.768 12.7352 112.633 12.7394 112.499 12.7432C112.455 12.744 112.412 12.7465 112.367 12.7482C112.278 12.7515 112.189 12.7546 112.101 12.7596C112.049 12.7625 111.997 12.7663 111.945 12.7696C111.865 12.7751 111.785 12.7801 111.706 12.7868C111.651 12.7915 111.596 12.7965 111.542 12.8015C111.466 12.8086 111.391 12.8162 111.315 12.8246C111.259 12.8309 111.204 12.8372 111.149 12.8443C111.075 12.8531 111.001 12.8628 110.927 12.8728C110.873 12.8809 110.818 12.8888 110.764 12.8968C110.691 12.9081 110.618 12.9199 110.545 12.9325C110.492 12.9413 110.439 12.9501 110.386 12.9597C110.312 12.9736 110.238 12.9878 110.165 13.0029C110.115 13.0126 110.065 13.0222 110.015 13.0327C109.937 13.05 109.859 13.068 109.781 13.086C109.737 13.0961 109.695 13.1058 109.652 13.1159C109.547 13.1418 109.442 13.1691 109.338 13.1981C109.324 13.2015 109.31 13.2048 109.296 13.2086C109.179 13.2413 109.064 13.2757 108.95 13.3114C108.912 13.3231 108.875 13.3361 108.836 13.3487C108.761 13.3735 108.685 13.3982 108.611 13.4243C108.566 13.4398 108.523 13.4562 108.479 13.4721C108.413 13.4964 108.346 13.5212 108.28 13.5464C108.234 13.5644 108.19 13.5829 108.144 13.6009C108.082 13.6265 108.019 13.6525 107.958 13.679C107.913 13.6983 107.868 13.7181 107.824 13.7381C107.764 13.7654 107.704 13.7927 107.645 13.8213C107.642 13.8225 107.639 13.8238 107.637 13.8251C107.596 13.8444 107.555 13.8641 107.515 13.8838C107.491 13.8955 107.116 14.0915 106.961 14.1838C106.551 14.4273 106 14.81 105.557 15.3149Z" fill="#1D3462"/>
<path d="M57.305 13.8201C57.305 14.9208 56.6495 15.7472 55.4005 15.7472C54.2156 15.7472 53.5597 14.9208 53.5597 13.9268C53.5597 12.805 54.2156 11.9573 55.4856 11.9573C56.6495 11.9573 57.305 12.7622 57.305 13.8201Z" fill="#1D3462"/>
<path d="M11.6981 25.0617V12.9104L15.0407 12.3388V24.3416C15.0407 25.0189 15.2517 25.2514 15.8863 25.2514C16.1827 25.2514 16.6055 25.1889 16.9238 25.1246L17.2409 27.2209C16.8173 27.4101 15.7173 27.7706 14.4913 27.7706C12.544 27.7706 11.6981 26.5636 11.6981 25.0617Z" fill="#1D3462"/>
<path d="M0.846712 13.3543H9.96445V15.916H4.33746V18.9858H9.01202L8.61106 21.5042H4.33746V25.1246H10.2615V27.6867H0.846712V13.3543Z" fill="#1D3462"/>
<path fill-rule="evenodd" clip-rule="evenodd" d="M26.6973 20.0437C26.6973 18.2236 25.639 16.8479 22.9938 16.8479C19.9691 16.8479 17.6214 18.8795 17.6214 22.6686C17.6214 25.7821 18.9962 27.8766 22.4445 27.8766C24.6875 27.8766 26.6125 26.9227 26.6125 26.9227L25.9771 24.7225C25.9771 24.7225 24.2005 25.4002 22.9733 25.4002C21.9156 25.4002 21.4287 24.8282 21.2383 23.9817C24.6022 23.7065 26.6973 22.0971 26.6973 20.0437ZM21.0688 21.8427C22.7397 21.8015 23.3752 20.8062 23.3752 20.1284C23.3752 19.5996 23.0367 19.2399 22.5712 19.2399C21.492 19.2399 21.1125 20.6366 21.0688 21.8427Z" fill="#1D3462"/>
<path d="M34.3124 20.0654C33.9727 19.6629 33.6555 19.3452 33.0848 19.3452C32.3874 19.3452 31.2864 19.6213 31.2864 22.3093C31.2864 24.9763 32.4704 25.3564 33.3805 25.3564C33.9959 25.3564 34.9094 25.0248 35.1179 24.9491C35.1386 24.9416 35.1526 24.9366 35.1583 24.9347L35.7715 27.1563C35.751 27.1779 34.5007 27.8769 32.6197 27.8769C29.1701 27.8769 27.7316 25.782 27.7316 22.6686C27.7316 18.8593 29.9313 16.8478 32.8738 16.8478C34.247 16.8478 35.3064 17.4618 35.961 18.3506L34.3124 20.0654Z" fill="#1D3462"/>
<path d="M37.9494 17.1445H36.2148V19.5994H37.8857V24.8919C37.8857 26.988 39.1556 27.7703 41.2706 27.7703C42.7087 27.7703 43.7036 27.4535 44.2748 27.2622L43.7036 25.0186C43.7036 25.0186 42.8576 25.2516 42.1795 25.2516C41.5457 25.2516 41.2068 24.9346 41.2068 24.3203V19.5994H43.3022L43.7036 17.1445H41.2068V14.3285L38.3088 14.9635L37.9494 17.1445Z" fill="#1D3462"/>
<path d="M49.1392 22.2879V27.6865H45.7969V22.1823C45.7969 18.8379 44.6336 17.7568 44.6336 17.7568L47.3202 16.9104C47.3202 16.9104 47.9762 17.5676 48.2719 18.8165C48.9702 17.4614 49.9428 16.9104 51.2555 16.9104C51.8481 16.9104 52.312 17.038 52.6307 17.1446L51.7625 20.3399C51.573 20.2346 51.235 20.1087 50.7685 20.1087C50.1772 20.1087 49.1392 20.7638 49.1392 22.2879Z" fill="#1D3462"/>
<path d="M53.7723 17.0591V25.3789C53.7723 26.8822 54.8712 27.7706 56.4591 27.7706C57.6011 27.7706 58.5111 27.3052 58.5526 27.2624L58.257 25.1674C58.1929 25.1893 57.9185 25.2513 57.7067 25.2513C57.305 25.2513 57.1128 25.0616 57.1128 24.4259V17.0591H53.7723Z" fill="#1D3462"/>
<path d="M64.6024 19.3452C65.1737 19.3452 65.4903 19.6629 65.8297 20.0654L67.4796 18.3506C66.8232 17.4618 65.7664 16.8478 64.391 16.8478C61.4502 16.8478 59.2509 18.8593 59.2509 22.6686C59.2509 25.782 60.6886 27.8769 64.1369 27.8769C66.0191 27.8769 67.2686 27.1779 67.2888 27.1563L66.6756 24.9347L66.6659 24.938L66.6346 24.9493C66.4251 25.0254 65.5137 25.3564 64.8986 25.3564C63.9896 25.3564 62.804 24.9763 62.804 22.3093C62.804 19.6213 63.9037 19.3452 64.6024 19.3452Z" fill="#1D3462"/>
<path fill-rule="evenodd" clip-rule="evenodd" d="M77.4003 22.5834C77.4003 25.9294 78.5645 27.0092 78.5645 27.0092L75.8783 27.856C75.8783 27.856 75.1154 27.1367 74.8616 25.7392C74.3956 27.0503 73.4877 27.8128 71.9627 27.8128C69.1922 27.8128 67.8807 25.7178 67.8807 22.5423C67.8807 19.3024 70.0381 16.9103 73.19 16.9103C74.7112 16.9103 76.722 17.371 77.2623 17.4948C77.346 17.514 77.3946 17.5251 77.4003 17.5251V22.5834ZM74.0585 19.5354V21.9912C74.0585 23.7702 73.3808 25.3565 72.5143 25.3565C71.4985 25.3565 71.4352 23.8965 71.4352 22.3303C71.4352 20.616 71.8155 19.3667 73.19 19.3667C73.4449 19.3667 73.8677 19.451 74.0585 19.5354Z" fill="#1D3462"/>
<path d="M79.895 12.9104V25.0617C79.895 26.5636 80.7421 27.7706 82.687 27.7706C83.9155 27.7706 85.0146 27.4101 85.4387 27.2209L85.1207 25.1246C84.8041 25.1889 84.3814 25.2514 84.0848 25.2514C83.4495 25.2514 83.2381 25.0189 83.2381 24.3416V12.3388L79.895 12.9104Z" fill="#1D3462"/>
<path d="M8.71678 35.6166C8.65472 35.5826 8.58664 35.5447 8.51333 35.5038C7.81034 35.112 6.62609 34.452 5.64849 34.452C4.67546 34.452 4.1886 34.9186 4.1886 35.5326C4.25144 36.4638 4.90863 36.9917 6.70709 37.7551C8.97057 38.7077 10.0707 39.7225 10.0707 41.8833C10.0707 44.4861 8.1242 46.5617 5.03531 46.5617C2.83478 46.5617 1.01537 45.6507 0 45.0359L1.14249 42.5388C1.54423 42.8146 3.46891 43.9997 4.59034 43.9997C5.77561 43.9997 6.3048 43.4286 6.3048 42.4122C6.3048 41.3965 5.56416 40.9933 4.31561 40.4843C1.86129 39.4699 0.423127 38.3049 0.423127 36.0181C0.423127 33.4997 2.667 31.9108 5.18259 31.9108C7.215 31.9108 8.99073 32.6319 9.94316 33.2874L8.71678 35.6166Z" fill="#1D3462"/>
<path fill-rule="evenodd" clip-rule="evenodd" d="M21.8951 45.756C21.8951 45.756 20.7321 44.677 20.7321 41.3315V36.2733C20.7264 36.2733 20.6779 36.2622 20.594 36.243C20.0534 36.1193 18.042 35.659 16.5213 35.659C13.369 35.659 11.2122 38.051 11.2122 41.2904C11.2122 44.4652 12.5223 46.5618 15.2937 46.5618C16.8178 46.5618 17.7275 45.7985 18.193 44.4862C18.4471 45.8835 19.2083 46.603 19.2083 46.603L21.8951 45.756ZM17.3886 40.739V38.284C17.1985 38.1992 16.7759 38.1144 16.5213 38.1144C15.1465 38.1144 14.7648 39.3638 14.7648 41.0772C14.7648 42.6438 14.8295 44.105 15.8452 44.105C16.7113 44.105 17.3886 42.5179 17.3886 40.739Z" fill="#1D3462"/>
<path d="M29.0234 34.177C28.8749 33.9655 28.5369 33.6474 28.1141 33.6474C27.4792 33.6474 26.9494 34.1137 26.9494 34.9186C26.9494 35.2141 26.9713 35.5116 27.0333 35.8066H29.743L29.3195 38.3464H27.4364V46.0741C27.4364 49.2697 25.3148 50.2809 23.5516 51.1213L23.481 51.1549L21.9565 48.6785C23.2906 47.9785 24.0937 47.1967 24.0937 46.1361V38.3464H22.4644V35.8066H24.0937C23.9247 35.384 23.819 34.9396 23.819 34.4309C23.819 32.3566 25.3843 31.1496 27.5848 31.1496C29.129 31.1496 29.9541 31.7212 30.6314 32.4833L29.0234 34.177Z" fill="#1D3462"/>
<path fill-rule="evenodd" clip-rule="evenodd" d="M38.924 38.7921C38.924 36.9711 37.8642 35.5951 35.2203 35.5951C32.1956 35.5951 29.8468 37.6276 29.8468 41.4163C29.8468 44.5288 31.2222 46.6238 34.6713 46.6238C36.913 46.6238 38.8385 45.6711 38.8385 45.6711L38.2039 43.4697C38.2039 43.4697 36.4265 44.1482 35.1993 44.1482C34.1424 44.1482 33.6554 43.5767 33.465 42.7295C36.8287 42.4549 38.924 40.8447 38.924 38.7921ZM35.6023 38.8773C35.6023 39.5537 34.9669 40.5487 33.2953 40.5917C33.3388 39.3843 33.7188 37.9877 34.7979 37.9877C35.2643 37.9877 35.6023 38.3464 35.6023 38.8773Z" fill="#1D3462"/>
<path d="M39.3868 35.892H41.1219L41.4817 33.7114L44.3793 33.076V35.892H46.876L46.4742 38.3467H44.3793V43.0691C44.3793 43.6831 44.719 43.9995 45.3531 43.9995C46.0305 43.9995 46.876 43.7666 46.876 43.7666L47.4476 46.0101C46.876 46.2011 45.8817 46.5191 44.443 46.5191C42.328 46.5191 41.0589 45.7366 41.0589 43.6394V38.3467H39.3868V35.892Z" fill="#1D3462"/>
<path d="M58.0316 43.9655C57.832 43.206 57.6334 42.4502 57.6431 41.5439L57.7291 35.8067H54.3647V41.2262C54.3647 42.9629 53.4977 44.0842 52.7567 44.0842C52.1011 44.0842 51.9107 43.4065 51.9107 42.4333V35.8067H48.5479V42.8773C48.5479 45.122 49.372 46.562 51.5936 46.562C53.0519 46.562 54.407 46.01 55.1472 44.7624C55.3578 45.3122 55.4447 45.7364 55.4447 46.3072C55.4447 47.5141 54.6816 48.191 53.5606 48.191C52.5243 48.191 51.6986 47.9372 50.4516 47.5141L49.669 50.0967C51.0019 50.646 52.4823 50.9847 53.7724 50.9847C56.6286 50.9847 58.4262 49.3125 58.4262 46.371C58.4262 45.467 58.2284 44.7144 58.0316 43.9655Z" fill="#1D3462"/>
<path d="M65.6823 32.1025H74.7988V34.6426H69.1713V37.9236H73.8896L73.4659 40.4428H69.1713V46.434H65.6823V32.1025Z" fill="#1D3462"/>
<path d="M76.0466 35.8066V44.1269C76.0466 45.6293 77.1467 46.5195 78.7324 46.5195C79.8757 46.5195 80.7858 46.0527 80.8282 46.01L80.5308 43.9146C80.4683 43.936 80.1919 43.9997 79.9818 43.9997C79.5801 43.9997 79.3888 43.81 79.3888 43.1738V35.8066H76.0466Z" fill="#1D3462"/>
<path d="M79.5801 32.5689C79.5801 33.6689 78.9228 34.4948 77.6764 34.4948C76.4903 34.4948 75.8353 33.6689 75.8353 32.6744C75.8353 31.5529 76.4903 30.7049 77.759 30.7049C78.9228 30.7049 79.5801 31.5097 79.5801 32.5689Z" fill="#1D3462"/>
<path d="M85.8199 46.4339V41.0362C85.8199 39.511 86.8566 38.8555 87.4483 38.8555C87.9135 38.8555 88.2524 38.9823 88.4428 39.0876L89.3093 35.8919C88.9939 35.7857 88.5267 35.659 87.9344 35.659C86.6226 35.659 85.6496 36.2087 84.9521 37.5635C84.6557 36.3142 84 35.659 84 35.659L81.313 36.5059C81.313 36.5059 82.4767 37.5853 82.4767 40.93V46.4339H85.8199Z" fill="#1D3462"/>
<path d="M97.6662 36.506L96.6085 38.8771L96.5751 38.8603L96.4937 38.8192C95.9953 38.5667 95.1031 38.1146 94.3018 38.1146C93.8575 38.1146 93.4978 38.3047 93.4978 38.7285C93.4978 39.173 94.1318 39.6173 95.0839 40.0199C96.7552 40.7185 97.7287 41.6078 97.7287 43.2365C97.7287 45.0574 96.418 46.645 93.9209 46.645C91.974 46.645 90.4088 45.9899 89.7106 45.6714L90.8115 43.2365C90.8531 43.2559 90.917 43.2892 90.9988 43.332C91.4574 43.5716 92.4788 44.1052 93.286 44.1052C93.8777 44.1052 94.3018 43.8718 94.3018 43.4287C94.3018 42.8979 93.772 42.4551 93.0532 42.1797C90.9389 41.3316 90.0922 40.3581 90.0922 38.7709C90.0922 36.9714 91.4875 35.6166 93.8362 35.6166C95.9512 35.6166 97.6662 36.506 97.6662 36.506Z" fill="#1D3462"/>
<path d="M100.224 35.892H98.4899V38.3467H100.161V43.6394C100.161 45.7366 101.431 46.5191 103.546 46.5191C104.984 46.5191 105.98 46.2011 106.549 46.0101L105.98 43.7666C105.98 43.7666 105.133 43.9995 104.455 43.9995C103.82 43.9995 103.482 43.6831 103.482 43.0691V38.3467H105.577L105.98 35.892H103.482V33.076L100.583 33.7114L100.224 35.892Z" fill="#1D3462"/>
</svg>
