<svg width="170" height="27" viewBox="0 0 170 27" fill="none" xmlns="http://www.w3.org/2000/svg">
<path fill-rule="evenodd" clip-rule="evenodd" d="M18.1894 6.39105L10.7317 0.883423L0.756071 14.3058C-0.510602 16.0083 -0.148071 18.4348 1.56169 19.6971L10.8831 26.5813L14.9759 21.0742L22.4334 26.582L32.41 13.1607C33.6757 11.4567 33.3132 9.03014 31.6044 7.76833L22.2824 0.883647L18.1894 6.39105ZM18.1894 6.39105L10.7715 16.3708C10.3498 16.9391 10.4706 17.7471 11.0399 18.1679L14.9759 21.0742L22.3945 11.0947C22.8163 10.5264 22.6954 9.71784 22.1252 9.29707L18.1894 6.39105Z" fill="#1D3462"/>
<path d="M57.5447 21.6693C57.8111 21.7247 58.147 21.7518 58.5551 21.7518H59.6364C59.7607 21.7518 59.8703 21.7091 59.9645 21.6227C60.0591 21.5364 60.098 21.4073 60.0819 21.234L59.2836 9.02542C59.2516 8.58621 59.2089 8.21301 59.1545 7.90726C59.0992 7.60199 59.0371 7.34672 58.9662 7.1424C58.8963 6.93954 58.8177 6.77065 58.7308 6.63719C58.6454 6.50421 58.5474 6.38968 58.4377 6.2965C58.3435 6.20235 58.23 6.11984 58.0965 6.04899C57.9635 5.9791 57.7956 5.91941 57.5913 5.87282C57.3884 5.82526 57.1419 5.78643 56.8512 5.75537C56.5619 5.72334 56.2052 5.70781 55.783 5.70781C55.0308 5.70781 54.4508 5.75925 54.0441 5.86117C53.637 5.96309 53.3152 6.12372 53.0803 6.34309C52.8294 6.56293 52.6382 6.87645 52.5052 7.28411C52.3722 7.69226 52.2354 8.32657 52.0941 9.18946L50.8013 17.0472C50.7857 17.2515 50.7226 17.3525 50.6139 17.3525C50.5042 17.3525 50.4407 17.2515 50.4256 17.0472L49.2274 9.23702C49.1643 8.79781 49.1061 8.42509 49.0507 8.11886C48.9964 7.81359 48.9372 7.55055 48.875 7.33119C48.812 7.11134 48.7377 6.92789 48.6513 6.77842C48.5654 6.62991 48.4591 6.49256 48.3349 6.36638C48.1155 6.14702 47.8054 5.9825 47.406 5.87282C47.0071 5.76314 46.4863 5.70781 45.8443 5.70781C45.4206 5.70781 45.06 5.71946 44.763 5.74275C44.4655 5.76702 44.2073 5.80196 43.9874 5.84855C43.7681 5.89611 43.5846 5.96309 43.4361 6.04899C43.2866 6.13537 43.1493 6.24117 43.0241 6.36638C42.8212 6.57021 42.648 6.8648 42.5072 7.24869C42.3665 7.63305 42.2568 8.24892 42.1787 9.09482L41.1445 21.2107C41.1289 21.5718 41.2697 21.7518 41.5681 21.7518H42.7421C43.4478 21.7518 43.9554 21.6106 44.2694 21.3282C44.5829 21.0457 44.7707 20.5444 44.8338 19.8222L45.6089 9.42435C45.6244 9.17393 45.6865 9.04872 45.7962 9.04872C45.8753 9.04872 45.9384 9.17393 45.985 9.42435L47.2303 17.0472C47.3555 17.8159 47.4681 18.4109 47.5715 18.8346C47.6724 19.2583 47.8326 19.5796 48.052 19.7994C48.2873 20.0498 48.5931 20.2231 48.9692 20.3168C49.3448 20.4114 49.8617 20.458 50.5193 20.458C50.8954 20.458 51.2133 20.4463 51.4715 20.423C51.7302 20.3998 51.9524 20.36 52.1407 20.3056C52.3281 20.2498 52.4897 20.1838 52.6226 20.1052C52.7556 20.0265 52.8847 19.9324 53.0104 19.8222C53.2288 19.6194 53.4055 19.3175 53.5389 18.9171C53.6719 18.5167 53.801 17.9178 53.9262 17.1171L55.2662 9.42435C55.2972 9.26808 55.3283 9.16616 55.3603 9.11957C55.3914 9.07201 55.4302 9.04872 55.4768 9.04872C55.5709 9.04872 55.6263 9.17393 55.6418 9.42435L56.2999 19.6339C56.3309 20.0741 56.3901 20.4308 56.4751 20.7045C56.5619 20.9797 56.6949 21.1952 56.8755 21.3515C57.0555 21.5092 57.2788 21.615 57.5447 21.6693Z" fill="#1D3462"/>
<path d="M117.512 12.4089H120.401C120.965 12.4089 121.388 12.5729 121.388 13.4135V19.6983C121.388 20.6796 121.176 21.0058 120.472 21.2402C119.485 21.544 117.864 21.8949 115.844 21.8949C113.071 21.8949 111.591 21.3343 110.699 20.4457C109.782 19.5586 109.031 17.6896 109.031 14.0449C109.031 10.1658 110.041 8.18036 111.075 7.22235C112.015 6.31141 113.706 5.75087 116.455 5.75087C118.263 5.75087 119.532 5.91394 120.143 6.28812C120.754 6.68559 121.247 7.82948 121.34 8.81078C121.34 9.09129 121.106 9.27814 120.87 9.25582C120.048 9.13837 118.615 9.02189 117.206 9.02189C115.445 9.02189 114.458 9.27814 113.987 9.72172C113.424 10.259 112.93 11.6853 112.93 13.8343C112.93 16.4045 113.307 17.6421 113.753 18.0856C114.152 18.4365 114.857 18.6471 115.679 18.6471C116.455 18.6471 116.925 18.6238 117.3 18.5297C117.536 18.4365 117.605 18.273 117.605 17.876V15.7493C117.605 15.4465 117.536 15.2825 117.229 15.2825H115.538C115.397 15.2825 115.279 15.2126 115.279 14.9558C115.279 14.4409 115.75 13.0393 116.196 12.7127C116.431 12.5021 116.783 12.4089 117.512 12.4089Z" fill="#1D3462"/>
<path d="M79.7171 12.409H81.009C81.5264 12.409 81.8078 12.3624 82.0427 12.1988C82.3713 11.9649 82.9823 10.9608 82.9823 9.95619C82.9823 9.67519 82.8411 9.51212 82.512 9.51212H79.9991C78.9654 9.51212 78.8955 9.37235 78.8955 8.15712V6.61528C78.8955 6.31147 78.6591 6.17121 78.4009 6.19451C76.6863 6.35806 75.7933 6.73175 75.4886 7.05934C75.2537 7.29278 75.0891 7.73636 75.0891 8.53082V9.09135C75.0891 9.34809 74.9955 9.51212 74.7363 9.51212H74.5252C74.3374 9.51212 74.1486 9.53542 74.0079 9.65189C73.6322 9.95619 73.2333 11.1704 73.2333 11.9882C73.2333 12.2226 73.3507 12.409 73.6089 12.409H74.3141C74.9484 12.409 75.0891 12.5021 75.0891 13.3898V17.6188C75.0891 19.5819 75.277 20.3997 75.8414 20.9602C76.3335 21.4732 77.2973 21.9066 78.9183 21.9066C80.4926 21.9066 81.2201 21.5897 81.5958 21.3567C82.1131 20.983 82.6528 20.0483 82.7236 19.0913C82.7236 18.8108 82.5363 18.6472 82.3242 18.6695C82.153 18.6785 81.9725 18.6966 81.7794 18.716C81.4422 18.7498 81.0663 18.7875 80.6334 18.7875C79.7875 18.7875 79.4589 18.6943 79.2007 18.4599C78.9654 18.2027 78.8955 17.8062 78.8955 16.8477V13.4835C78.8955 12.6662 78.9654 12.409 79.7171 12.409Z" fill="#1D3462"/>
<path fill-rule="evenodd" clip-rule="evenodd" d="M70.9523 10.2592C70.2481 9.65203 69.0969 9.24194 67.1707 9.24194C65.2673 9.24194 63.9045 9.7224 63.1528 10.3305C62.1899 11.1002 61.3916 12.643 61.3916 15.7267C61.3916 18.5765 62.0259 20.0019 62.9184 20.8196C63.7172 21.4966 65.1964 21.931 67.1226 21.931C69.0493 21.931 70.2714 21.6131 70.7645 21.287C71.375 20.9128 71.9394 19.8621 72.0102 19.0438C72.0102 18.8342 71.8448 18.6231 71.6341 18.6231C71.4772 18.6374 71.3021 18.6555 71.1109 18.6753L71.1097 18.6754L71.1087 18.6755C70.3546 18.7536 69.3509 18.8575 68.2272 18.8575C66.8412 18.8575 66.0661 18.6702 65.7841 18.4125C65.4546 18.1091 65.2906 17.6393 65.2906 16.9623C65.2906 16.6813 65.4085 16.5416 65.8783 16.5416H71.7972C72.1976 16.5416 72.3616 16.3552 72.3616 15.7C72.3616 12.2426 71.7273 10.9837 70.9523 10.2592ZM68.6062 14.244C68.5287 14.3215 68.3398 14.3194 68.0528 14.3162C67.9912 14.3155 67.925 14.3148 67.8545 14.3148H65.7608C65.3847 14.3148 65.3381 14.2673 65.3381 14.011C65.3381 13.4505 65.5017 12.5099 65.8074 12.2294C66.0661 11.995 66.4883 11.8552 67.029 11.8552C67.6162 11.8552 68.0894 11.995 68.2767 12.1358C68.582 12.3459 68.6994 13.2394 68.6994 13.8931C68.6994 14.0343 68.6771 14.1508 68.6062 14.244Z" fill="#1D3462"/>
<path fill-rule="evenodd" clip-rule="evenodd" d="M93.2542 10.2592C92.55 9.65203 91.3988 9.24194 89.4726 9.24194C87.5692 9.24194 86.2074 9.7224 85.4557 10.3305C84.4928 11.1002 83.6935 12.643 83.6935 15.7267C83.6935 18.5765 84.3278 20.0019 85.2203 20.8196C86.0191 21.4966 87.4998 21.931 89.4246 21.931C91.3523 21.931 92.5733 21.6131 93.0674 21.287C93.6779 20.9128 94.2408 19.8621 94.3122 19.0438C94.3122 18.8342 94.1472 18.6231 93.9361 18.6231C93.7796 18.6374 93.6049 18.6555 93.4141 18.6752L93.4131 18.6753C92.6591 18.7534 91.6538 18.8575 90.5296 18.8575C89.1431 18.8575 88.369 18.6702 88.0866 18.4125C87.758 18.1091 87.5925 17.6393 87.5925 16.9623C87.5925 16.6813 87.71 16.5416 88.1802 16.5416H94.1001C94.4995 16.5416 94.6645 16.3552 94.6645 15.7C94.6645 12.2426 94.0297 10.9837 93.2542 10.2592ZM90.9082 14.2442C90.8315 14.3217 90.6419 14.3196 90.3548 14.3164C90.2932 14.3158 90.2269 14.315 90.1564 14.315H88.0637C87.6876 14.315 87.6405 14.2675 87.6405 14.0112C87.6405 13.4507 87.8041 12.5102 88.1103 12.2296C88.369 11.9952 88.7917 11.8555 89.3314 11.8555C89.9191 11.8555 90.3918 11.9952 90.5796 12.136C90.8849 12.3461 91.0023 13.2396 91.0023 13.8933C91.0023 14.0345 90.979 14.151 90.9082 14.2442Z" fill="#1D3462"/>
<path d="M127.617 9.3718C129.027 9.3718 130.178 9.41839 130.671 9.72268C131.211 10.0731 131.564 10.9146 131.564 12.2706C131.564 12.5278 131.352 12.6923 131.165 12.669C131.028 12.6617 130.868 12.65 130.695 12.6373C130.306 12.6088 129.849 12.5754 129.426 12.5754C128.933 12.5754 128.417 12.5754 127.947 12.6452C127.453 12.7156 127.336 12.7855 127.336 13.4868V21.2727C127.336 21.5532 127.171 21.7177 126.842 21.7177H123.907C123.601 21.7177 123.53 21.5532 123.53 21.2271V10.1434C123.53 9.83916 123.67 9.69938 124 9.65231C124.987 9.51157 126.395 9.3718 127.617 9.3718Z" fill="#1D3462"/>
<path fill-rule="evenodd" clip-rule="evenodd" d="M97.6538 10.47C98.5472 9.69879 99.8396 9.25473 102.024 9.25473C104.161 9.25473 105.478 9.72208 106.229 10.4937C107.028 11.3581 107.567 12.7597 107.567 15.4226C107.567 18.367 106.699 20.0714 105.876 20.8198C105.031 21.59 103.55 22.0107 101.554 22.0107C99.5101 22.0107 98.0541 21.4735 97.2786 20.6557C96.5269 19.8385 95.9867 18.4369 95.9867 15.7963C95.9867 13.0164 96.7142 11.2882 97.6538 10.47ZM101.695 18.9275C102.399 18.9275 102.87 18.8344 103.128 18.5534C103.457 18.2501 103.763 17.2916 103.763 15.5633C103.763 13.9982 103.598 13.2037 103.245 12.8053C103.058 12.5025 102.564 12.3627 101.859 12.3627C101.132 12.3627 100.614 12.5258 100.38 12.8053C100.074 13.1804 99.7688 14.1608 99.7688 15.6332C99.7688 17.1052 99.9804 18.086 100.286 18.5068C100.567 18.7863 101.06 18.9275 101.695 18.9275Z" fill="#1D3462"/>
<path fill-rule="evenodd" clip-rule="evenodd" d="M168.544 10.1662C167.792 9.55807 166.594 9.30182 163.916 9.30182C162.483 9.30182 160.416 9.44159 159.336 9.62941C158.983 9.69784 158.842 9.81577 158.842 10.3292V26.1374C158.842 26.464 158.937 26.5815 159.265 26.5815H161.99C162.437 26.5815 162.601 26.3941 162.601 25.9035V22.2685C162.601 21.7545 162.742 21.7312 163.046 21.7545C163.54 21.7778 164.01 21.7778 164.574 21.7778C166.406 21.7778 167.628 21.357 168.357 20.7024C169.225 19.9555 170 18.3893 170 15.1654C170 12.386 169.437 10.9136 168.544 10.1662ZM165.584 18.2962C165.302 18.6 164.808 18.7403 164.033 18.7403C163.564 18.7403 163.235 18.717 162.93 18.6704C162.695 18.6 162.601 18.436 162.601 18.0162V13.18C162.601 12.6889 162.695 12.5025 162.93 12.4559C162.962 12.4522 163.001 12.4473 163.045 12.4418C163.287 12.4117 163.687 12.3618 164.104 12.3618C164.832 12.3618 165.302 12.4559 165.584 12.7127C165.889 12.9699 166.172 13.7867 166.172 15.446C166.172 16.9179 165.913 17.9463 165.584 18.2962Z" fill="#1D3462"/>
<path d="M156.232 9.51174H153.178C152.896 9.51174 152.779 9.62822 152.779 9.93251V17.9465C152.779 18.4362 152.638 18.6235 152.333 18.6934C152.028 18.7871 151.628 18.7871 151.135 18.7871C150.36 18.7871 149.936 18.6473 149.701 18.3663C149.514 18.0858 149.444 17.6184 149.444 16.6604V10.0956C149.444 9.69811 149.326 9.51174 148.949 9.51174H145.966C145.708 9.51174 145.614 9.62822 145.614 9.93251V16.9414C145.614 19.0676 145.802 20.0013 146.39 20.6793C147.047 21.4272 148.457 21.8713 151.041 21.8713C153.108 21.8713 154.846 21.6616 156.139 21.4039C156.444 21.3563 156.561 21.2175 156.561 20.937V9.9791C156.561 9.65297 156.514 9.51174 156.232 9.51174Z" fill="#1D3462"/>
<path fill-rule="evenodd" clip-rule="evenodd" d="M133.918 10.47C134.81 9.69879 136.102 9.25473 138.287 9.25473C140.425 9.25473 141.741 9.72208 142.492 10.4937C143.291 11.3581 143.83 12.7597 143.83 15.4226C143.83 18.367 142.962 20.0714 142.14 20.8198C141.295 21.59 139.814 22.0107 137.818 22.0107C135.774 22.0107 134.317 21.4735 133.541 20.6557C132.79 19.8385 132.249 18.4369 132.249 15.7963C132.249 13.0164 132.978 11.2882 133.918 10.47ZM137.959 18.9275C138.663 18.9275 139.133 18.8344 139.391 18.5534C139.72 18.2501 140.025 17.2916 140.025 15.5633C140.025 13.9982 139.861 13.2037 139.509 12.8053C139.32 12.5025 138.828 12.3627 138.123 12.3627C137.394 12.3627 136.877 12.5258 136.643 12.8053C136.337 13.1804 136.032 14.1608 136.032 15.6332C136.032 17.1052 136.243 18.086 136.548 18.5068C136.831 18.7863 137.324 18.9275 137.959 18.9275Z" fill="#1D3462"/>
</svg>
