<svg width="75" height="30" viewBox="0 0 75 30" fill="none" xmlns="http://www.w3.org/2000/svg">
<path d="M65.3768 0.52832C59.5825 0.52832 55.7991 4.49697 55.7991 11.0585C55.7991 19.2074 61.5933 21.5357 65.7472 21.5357C68.8692 21.5357 71.8324 20.2657 73.9755 18.0168L71.3033 15.3446C69.8746 16.6146 68.2342 17.3818 65.8001 17.3818C62.5723 17.3818 60.4027 15.5034 60.4027 12.9105H74.7957C74.7692 12.884 77.2827 0.52832 65.3768 0.52832ZM60.4027 9.36517C60.4027 5.87276 63.0485 4.20594 65.8795 4.20594C68.7104 4.20594 71.2768 5.92568 71.2768 9.36517H60.4027Z" fill="#1D3462"/>
<path d="M12.3822 9.02122C10.5301 8.7831 5.21216 8.99482 5.21216 6.56067C5.21216 5.13195 7.46106 4.33822 9.4983 4.33822C11.6678 4.31172 13.7844 4.9203 15.5836 6.08444L18.3616 3.33283C17.5414 2.67139 14.4988 0.52832 9.4983 0.52832C4.94758 0.52832 0.846643 2.90951 0.846643 6.71941C0.846643 12.5666 7.91084 12.5666 10.8476 12.8576C12.6468 13.0428 14.2607 13.1486 14.2607 14.8948C14.2607 16.5352 11.7737 17.4348 9.84225 17.4348C6.69378 17.4348 4.81529 16.4029 2.96326 14.7361L0 17.7258C2.56639 20.2128 6.03235 21.5621 9.60413 21.5357C14.8957 21.5357 18.732 19.2074 18.732 14.5244C18.732 11.4289 16.6419 9.57683 12.3822 9.02122Z" fill="#1D3462"/>
<path d="M27.5688 0.528343C24.632 0.501844 21.7481 1.50728 19.4463 3.33285L22.2243 6.11092C23.7853 4.94678 25.6638 4.33824 27.5952 4.3647C31.1141 4.3647 32.1724 5.76696 32.1724 7.35441V9.33874H25.9019C23.5737 9.33874 19.0229 9.92082 19.0229 15.0271C19.0229 18.7841 21.166 21.5357 26.2988 21.5357C28.8652 21.5357 30.8231 20.7155 32.1724 19.1016V21.1388H36.7231V7.67191C36.7231 2.96245 33.8392 0.528343 27.5688 0.528343ZM32.1989 13.7836C32.1989 17.6729 29.4208 17.4612 26.9602 17.4612C24.4997 17.4612 22.8593 16.7998 22.8593 15.0536C22.8593 13.4397 24.1557 12.8841 26.8544 12.8841H32.1989V13.7836Z" fill="#1D3462"/>
<path d="M50.7723 0.951649V3.20054C49.2113 1.42787 47.3592 0.52832 44.8457 0.52832C40.5331 0.52832 38.3107 2.93597 37.5699 5.52882C37.2789 6.48129 37.1995 8.30688 37.1995 11.0056C37.1995 13.5455 37.2259 15.8738 38.099 17.6464C39.3426 20.1334 42.3323 21.5357 44.8457 21.5357C47.2798 21.5357 49.3435 20.5832 50.7723 18.9429V20.2128C50.7723 21.6944 50.2696 22.6734 49.3171 23.4406C48.3646 24.2079 47.174 24.6842 45.5072 24.6842C43.9991 24.6842 42.5704 23.864 41.7502 23.2819L38.6811 26.351C40.6654 27.9649 43.0202 29.0497 45.5866 29.0761C48.0471 29.129 50.4548 28.3353 52.3862 26.7743C54.2118 25.3456 55.3759 22.6205 55.3759 19.763V0.951649H50.7723ZM50.7723 11.0056C50.7723 12.5666 50.7458 13.7307 50.6135 14.3392C50.3225 15.6356 48.8408 17.3554 46.1422 17.3554C45.4543 17.3554 42.0148 16.9585 41.6179 13.9688C41.5121 12.9899 41.4592 11.9845 41.4856 11.0056C41.4856 8.67729 41.5914 7.93646 41.6973 7.35439C41.9354 6.19025 43.4699 4.44405 46.1422 4.44405C49.3965 4.44405 50.4548 6.66649 50.6135 7.5396C50.7458 8.67728 50.7987 9.84142 50.7723 11.0056Z" fill="#1D3462"/>
</svg>
