<svg width="140" height="43" viewBox="0 0 140 43" fill="none" xmlns="http://www.w3.org/2000/svg">
<path d="M87.3883 30.2117C87.3361 30.0767 87.1921 29.9987 87.051 30.0308L87.0073 30.0433C86.5896 30.1324 86.2678 30.1073 86.042 29.957C85.7216 29.744 85.5664 29.2623 85.5664 28.4855V21.4651C85.5664 18.7227 83.9096 17.3319 80.6383 17.3319C77.7099 17.3319 75.4152 18.699 75.4152 20.4447C75.4152 21.3426 75.9698 21.9913 76.7884 22.0888C77.3232 22.1528 77.8341 21.9134 78.2039 21.5278C78.9236 20.7788 78.8319 19.8865 77.9583 18.9301C78.4748 18.3969 79.3893 18.0823 80.4322 18.0823C82.1314 18.0823 82.8568 19.0763 82.8568 21.4066V23.1816C82.4588 23.3027 82.0862 23.4168 81.4032 23.5755C80.0272 23.8943 78.1389 24.3189 76.715 25.0943C75.5394 25.7305 74.9424 26.7342 74.9424 28.0776C74.9424 29.5407 75.9162 31.2488 78.6597 31.2488C80.1966 31.2488 81.5725 30.5305 82.9852 28.9881C83.108 30.5904 83.7233 31.1918 85.2164 31.1918C85.9347 31.1918 86.5091 31.0261 87.1922 30.7004C87.377 30.6113 87.4645 30.3997 87.3883 30.2117ZM82.8568 28.0665C82.5237 28.5245 81.4342 29.8874 80.0766 29.8874C78.2434 29.8874 77.8581 28.6178 77.8581 27.5528C77.8581 25.8015 79.2185 24.9913 82.8568 24.1045V28.0665ZM118.014 31.3087C114.127 31.3087 111.196 28.3045 111.196 24.3203C111.196 20.4196 114.254 17.2456 118.014 17.2456C121.82 17.2456 124.804 20.3013 124.804 24.2048C124.804 28.5927 121.28 31.3087 118.014 31.3087ZM117.867 17.9946C116.188 17.9946 114.259 18.7073 114.259 24.2619C114.259 28.4994 115.526 30.5584 118.133 30.5584C120.626 30.5584 121.74 28.6178 121.74 24.2619C121.74 20.0452 120.472 17.9946 117.867 17.9946ZM57.9269 17.4962C57.9269 20.7287 57.1197 22.5078 52.9903 22.5078H50.8015V12.7436H53.0792C57.3511 12.7436 57.9269 15.1463 57.9269 17.4962ZM50.8015 28.4855V23.4057H52.7843C55.7423 23.4057 57.9918 22.789 59.4722 21.5709C61.0204 20.2971 61.345 18.6837 61.345 17.5547C61.345 12.9106 56.8021 11.9361 52.9903 11.9361L53.0058 11.9348H45.2764C45.1014 11.9348 44.9588 12.0768 44.9588 12.248V12.2689V12.2633C44.9588 12.422 45.0562 12.564 45.2086 12.6183C45.8973 12.8689 47.7672 12.5181 47.7672 14.4963V28.4827C47.7672 29.5004 47.31 30.2187 45.2199 30.4136C45.0534 30.4289 44.9292 30.5625 44.9292 30.724V30.7727C44.9292 30.9454 45.0703 31.0846 45.2453 31.0846H53.504C53.679 31.0846 53.8215 30.9454 53.8215 30.7727V30.7296C53.8215 30.5681 53.6917 30.4317 53.5252 30.4178C51.2545 30.2382 50.7986 29.5449 50.7986 28.4827V23.4155L50.8015 28.4855ZM67.5954 17.2387C64.0009 17.2387 61.0754 20.4489 61.0754 24.3955C61.0754 28.3908 63.8175 31.2906 67.5954 31.2906C70.7693 31.2906 72.3147 29.4196 73.1995 28.0136C73.287 27.8744 73.2489 27.6906 73.1134 27.5946L73.0711 27.5653C72.9342 27.4693 72.7437 27.4971 72.6378 27.628C71.4707 29.0716 70.449 29.9069 68.6849 29.9069C66.4537 29.9069 64.0701 28.3908 64.0701 24.1338V24.1032C64.0658 23.9152 64.0701 23.6577 64.0771 23.4168H73.2065C73.2319 23.4168 73.2517 23.3974 73.2532 23.3723L73.2589 23.2999C73.3887 21.5556 72.8877 19.9867 71.8491 18.8855C70.8344 17.808 69.3637 17.2387 67.5954 17.2387ZM64.128 22.5203C64.4286 19.608 65.5801 18.0113 67.3894 18.0113C68.294 18.0113 68.9657 18.2591 69.4399 18.7686C70.0919 19.466 70.3685 20.7287 70.2599 22.5203H64.128ZM105.435 22.6762H105.433C102.936 21.9844 101.964 21.2855 101.964 20.1816C101.964 18.9245 102.976 18.0113 104.37 18.0113C106.01 18.0113 106.713 18.7853 108.444 21.6405L108.467 21.6781C108.475 21.6934 108.491 21.7018 108.491 21.7018H108.745C108.92 21.7018 109.062 21.5612 109.062 21.3885V17.2846C109.062 17.2595 109.041 17.2387 109.041 17.2387H108.701C108.607 17.2387 108.516 17.2804 108.457 17.3528L107.904 18.0155C107.207 17.6368 106.071 17.2387 104.93 17.2387C102.063 17.2387 100.06 18.9858 100.06 21.4888C100.06 23.8387 101.639 24.7185 104.366 25.4451C107.015 26.1607 107.955 26.9055 107.955 28.2878C107.955 29.8261 106.445 30.5166 105.372 30.5166C103.376 30.5166 102.534 29.7857 100.622 26.3974L100.599 26.357C100.591 26.3417 100.575 26.3319 100.575 26.3319H100.318C100.143 26.3319 100.001 26.4739 100.001 26.6451V31.2433C100.001 31.2697 100.022 31.2906 100.049 31.2906H100.373C100.456 31.2906 100.538 31.2572 100.598 31.1987L101.471 30.337C102.494 30.9635 104.024 31.2906 105.018 31.2906C106.509 31.2906 107.736 30.8243 108.564 29.9431C109.304 29.1565 109.71 28.0428 109.71 26.8066C109.71 24.6656 108.552 23.5463 105.435 22.6762ZM90.328 29.4349C90.328 30.1435 90.1459 30.376 89.0014 30.447C88.8348 30.4581 88.705 30.5946 88.705 30.7588C88.705 30.9314 88.8475 31.0707 89.0225 31.0707H94.6718C94.844 31.0707 94.9837 30.9328 94.9837 30.7644C94.9837 30.5973 94.8524 30.4595 94.6831 30.4526C93.3763 30.3899 93.0376 30.1811 93.0376 29.4349V21.2633C93.9676 19.7375 94.6351 18.9384 95.7641 18.6976C95.7091 18.8911 95.6738 19.1208 95.6738 19.3087C95.6738 20.3013 96.3766 20.9946 97.3828 20.9946C98.3707 20.9946 99.0622 20.3013 99.0622 19.3087C99.0622 18.3705 98.4681 17.2735 96.7915 17.2735C95.4184 17.2735 94.1059 18.0503 92.9783 19.9087V17.8066C92.9783 17.5923 92.7991 17.4196 92.5817 17.4252L89.0225 17.5199C88.849 17.5254 88.7149 17.6619 88.7149 17.8317V17.8763C88.7149 18.0308 88.8278 18.163 88.9788 18.1839C90.1657 18.3496 90.3294 18.9064 90.328 19.4841V29.4349ZM129.401 17.4169C129.483 17.4169 129.562 17.4489 129.62 17.506C129.684 17.5644 129.718 17.6424 129.719 17.7287L129.73 20.0591C129.73 20.0591 130.89 17.325 134.653 17.325H134.687C137.032 17.325 138.377 18.8006 138.377 21.3732V29.4224C138.377 30.131 138.561 30.3635 139.704 30.4345C139.87 30.4442 140 30.5806 140 30.7463C140 30.9175 139.857 31.0581 139.684 31.0581H134.608C134.433 31.0581 134.29 30.9175 134.29 30.7449C134.29 30.5779 134.418 30.4414 134.579 30.4275C135.502 30.3495 135.649 30.1198 135.649 29.4224V22.1584C135.649 19.7584 134.958 18.8257 133.184 18.8257C131.984 18.8257 131.003 19.8572 130.391 20.7231C130.391 20.7231 130.077 21.1101 129.739 21.8396L129.775 29.421C129.775 30.1185 129.919 30.3482 130.816 30.4261C130.976 30.44 131.103 30.5779 131.103 30.7379C131.103 30.9175 130.961 31.0581 130.787 31.0581H125.742C125.568 31.0581 125.426 30.9175 125.426 30.7449C125.426 30.5806 125.557 30.4442 125.722 30.4331C126.865 30.3621 127.047 30.131 127.047 29.4224V19.4855C127.047 18.9064 126.884 18.3468 125.691 18.1797C125.54 18.1589 125.426 18.0252 125.426 17.8707V17.8247C125.426 17.6535 125.561 17.5171 125.735 17.5115L129.401 17.4169Z" fill="#1D3462"/>
<path fill-rule="evenodd" clip-rule="evenodd" d="M35.0419 30.9746C41.267 19.5676 39.184 8.29433 30.238 3.26607C20.3536 -2.29123 7.46734 0.73241 1.91267 12.6349C-1.91324 20.8302 -0.176054 35.073 8.72622 40.1791C17.627 45.2826 29.5719 41.0005 35.0419 30.9746ZM32.0232 18.8535C32.3266 16.5579 31.7819 13.7598 30.0305 11.9152L30.0051 11.8902C26.6407 8.14122 21.9694 7.90593 19.0114 7.97836C15.7415 8.06053 13.3932 9.12548 11.4724 10.1139C9.79591 10.9756 8.28444 12.4582 7.67058 13.1946C7.27963 13.6638 6.61494 14.6327 6.972 15.5013C7.2655 16.2224 8.36767 16.1751 8.78259 15.8674C9.00111 15.7048 9.22674 15.4976 9.47476 15.2697C9.69618 15.0663 9.93551 14.8463 10.2037 14.627C12.7285 12.5668 14.9667 11.2693 20.1813 11.2693C25.3959 11.2693 28.2213 14.4767 28.2213 17.3403C28.2213 20.2038 26.8496 22.1487 24.2571 23.4183C22.9742 24.0461 21.6024 24.5319 19.8751 24.5973C20.0007 21.8214 20.0656 19.1945 20.0656 19.1945C20.0716 18.8656 20.086 18.5466 20.0997 18.2422C20.1691 16.6981 20.2219 15.5267 19.0891 15.3023C17.7356 15.0335 15.2419 15.2981 15.1954 16.8224C15.1347 16.5955 15.4523 29.3138 15.5101 29.5644L15.5327 29.8568C15.5594 30.1797 15.6752 30.4638 15.8798 30.6906C16.0845 30.9147 16.4161 31.0539 16.7139 31.0873C16.7605 31.0915 16.807 31.0957 16.8536 31.0957C17.1373 31.0957 17.5367 31.0457 17.9389 30.9342C18.4469 30.7909 18.9578 30.5472 19.2527 30.1672C19.3334 30.0636 19.4063 29.9616 19.4662 29.8357C19.5175 29.7281 19.5594 29.603 19.5886 29.4446C19.6323 29.2108 19.7185 27.7337 19.741 27.305C22.4831 27.2799 25.2703 26.7732 27.3914 25.498C30.0658 23.893 31.6747 21.4707 32.0232 18.8535ZM17.8344 32.5601C18.1435 32.62 18.4483 32.7635 18.7207 32.9722C19.2147 33.351 19.5111 33.9425 19.5167 34.5481C19.5209 35.0702 19.2993 35.5365 18.8915 35.8665C18.5401 36.145 18.0885 36.2953 17.5861 36.2953H17.5846C17.3546 36.2953 17.1246 36.2619 16.9002 36.2006C16.5107 36.0905 16.1974 35.9083 15.9927 35.6716C15.8092 35.4614 15.6865 35.1787 15.6328 34.8516C15.551 34.3422 15.6795 33.8145 15.9899 33.3745C16.3625 32.8442 16.934 32.5282 17.5155 32.5282C17.6213 32.5282 17.73 32.5394 17.8344 32.5601Z" fill="#1D3462"/>
</svg>
