<svg width="160" height="37" viewBox="0 0 160 37" fill="none" xmlns="http://www.w3.org/2000/svg">
<path d="M154.752 0.559692C151.231 0.559692 146.264 1.62072 140.869 3.58476C136.376 5.23274 131.929 7.30965 127.12 10.3573C129.942 9.20596 135.473 7.91918 140.056 7.91918C146.242 7.91918 150.644 10.2896 144.142 18.5746C163.308 6.02287 162.767 0.559692 154.752 0.559692Z" fill="#1D3462"/>
<path d="M142.02 23.4509V17.2201C142.02 13.3372 140.101 12.2536 134.57 12.2536H123.689V23.4509H130.552V15.8656H132.381C134.412 15.8656 135.135 17.0621 135.135 18.3489V23.4509H142.02Z" fill="#1D3462"/>
<path fill-rule="evenodd" clip-rule="evenodd" d="M122.38 15.9559V15.5044C122.38 13.6532 121.319 12.2536 116.533 12.2536H109.489C105.042 12.2536 103.191 13.7661 103.191 17.0847V19.0487C103.191 21.848 105.042 23.4509 108.97 23.4509H121.522V20.1775H111.386C110.392 20.1775 110.031 19.8614 110.031 19.1164V19.0036H117.91C120.709 19.0036 122.38 18.0554 122.38 15.9559ZM115.878 16.2268C115.878 16.7235 115.675 17.0169 114.885 17.0169H110.054V16.588C110.054 15.9559 110.302 15.527 111.092 15.527H114.84C115.449 15.5044 115.878 15.7302 115.878 16.2268Z" fill="#1D3462"/>
<path d="M98.1792 15.6173H102.468V12.231H93.6642C92.2419 12.231 91.3615 12.9986 91.3615 14.2176V23.4283H98.2018L98.1792 15.6173Z" fill="#1D3462"/>
<path fill-rule="evenodd" clip-rule="evenodd" d="M89.8716 19.0939V16.6557C89.8716 13.8564 88.043 12.2536 84.0923 12.2536H71.8115V15.5044H81.6768C82.6701 15.5044 83.0313 15.8205 83.0313 16.588V16.7009H75.1526C71.834 16.7009 70.7278 18.1231 70.7278 19.9291V20.2903C70.7278 21.103 70.9762 21.8029 71.4502 22.2544C72.3984 23.18 74.2721 23.4509 76.778 23.4509H83.5957C88.0204 23.4283 89.8716 22.3898 89.8716 19.0939ZM83.0087 19.0939C83.0087 19.726 82.7604 20.1549 81.9703 20.1549H78.2679C77.6358 20.1549 77.2521 19.9743 77.2521 19.4776C77.2521 18.981 77.4778 18.6649 78.2679 18.6649H83.0087V19.0939Z" fill="#1D3462"/>
<path d="M69.712 23.4509V20.0646H64.4294V10.4702H57.5666V23.4734L69.712 23.4509Z" fill="#1D3462"/>
<path d="M44.9696 23.4509H56.0314V20.0646H46.9788C46.0984 20.0646 45.1954 19.5679 45.1954 17.9199V17.6942C45.1954 16.2268 45.9404 15.6399 46.9111 15.6399H56.0314V12.2536H44.7439C40.1611 12.2536 38.2874 14.2628 38.2874 17.333V18.3715C38.2874 21.9835 40.2966 23.4509 44.9696 23.4509Z" fill="#1D3462"/>
<path d="M30.0249 23.4509H36.8877V10.4476H32.8694C31.2214 10.4476 30.0475 11.1474 28.9187 12.1181C27.6545 13.2243 23.1169 17.1524 23.1169 17.1524V10.4476H19.076C16.7959 10.4476 15.6446 11.2377 14.3578 12.231C13.4773 12.9308 0 23.4509 0 23.4509H8.17219L16.2541 16.8138V23.4509H22.8009L30.0249 16.8589V23.4509Z" fill="#1D3462"/>
<path fill-rule="evenodd" clip-rule="evenodd" d="M97.7955 30.1105H97.0956L94.5221 36.883H95.267L95.9217 35.1222H98.9468L99.6015 36.883H100.369L97.7955 30.1105ZM97.4342 31.0586L98.6985 34.4675H96.1475L97.4342 31.0586Z" fill="#1D3462"/>
<path fill-rule="evenodd" clip-rule="evenodd" d="M103.394 30.1782H105.426C106.848 30.1782 107.796 30.991 107.796 32.3003V32.3229C107.796 33.7451 106.713 34.5127 105.358 34.5127H104.139V36.8831H103.417L103.394 30.1782ZM105.358 33.858C106.397 33.858 107.074 33.2485 107.074 32.3229V32.3003C107.074 31.3296 106.419 30.8104 105.381 30.8104H104.139V33.8354L105.358 33.858Z" fill="#1D3462"/>
<path fill-rule="evenodd" clip-rule="evenodd" d="M112.898 30.1782H110.866V36.8831H111.611V34.5127H112.83C114.185 34.5127 115.269 33.7451 115.269 32.3229V32.3003C115.269 30.991 114.32 30.1782 112.898 30.1782ZM114.546 32.3229C114.546 33.2485 113.869 33.858 112.83 33.858L111.611 33.8354V30.8104H112.853C113.891 30.8104 114.546 31.3296 114.546 32.3003V32.3229Z" fill="#1D3462"/>
<path d="M118.316 30.1782H119.039V36.2284H122.154V36.8831H118.316V30.1782Z" fill="#1D3462"/>
<path d="M126.014 30.1782H125.292V36.9056H126.014V30.1782Z" fill="#1D3462"/>
<path d="M129.604 30.1782H133.712V30.8329H130.326V33.1807H133.351V33.8354H130.326V36.2284H133.758V36.8831H129.604V30.1782Z" fill="#1D3462"/>
<path fill-rule="evenodd" clip-rule="evenodd" d="M138.86 30.1782H136.963V36.9056H138.86C140.733 36.9056 142.02 35.5285 142.02 33.5645V33.4968C142.02 31.5328 140.733 30.1782 138.86 30.1782ZM137.686 36.2284V30.8329H138.837C140.304 30.8329 141.275 31.894 141.275 33.4968V33.5645C141.275 35.1673 140.304 36.2284 138.837 36.2284H137.686Z" fill="#1D3462"/>
</svg>
