<svg width="150" height="38" viewBox="0 0 150 38" fill="none" xmlns="http://www.w3.org/2000/svg">
<path fill-rule="evenodd" clip-rule="evenodd" d="M4.77844 29.8241L7.24864 23.1167L9.60498 29.8241H4.77844ZM12.0054 36.5837H14.2704L8.39193 20.4372H6.15184L0 36.5837H2.2866L4.09294 31.6353H10.2448L12.0054 36.5837Z" fill="#1D3462"/>
<path fill-rule="evenodd" clip-rule="evenodd" d="M19.1948 31.0076C17.0958 30.5538 14.9279 30.0583 14.9279 27.5264C14.9279 25.3031 16.808 23.9016 19.6478 23.9016C21.4846 23.9016 23.2388 24.5855 24.1143 26.2572L22.2046 27.0541C22.0514 26.6075 21.0629 25.4835 19.4137 25.4835C17.7973 25.4835 16.9884 26.44 16.9884 27.2682C16.9884 28.4307 18.5253 28.915 19.8362 29.1788C22.5501 29.7248 24.9097 30.4191 24.9097 32.9775C24.9097 34.9658 23.1434 36.8339 19.7696 36.8339C17.2858 36.8339 15.5211 36.0033 14.6721 34.2675L16.8505 33.8875C17.3972 34.8383 18.3858 35.2504 19.8586 35.2504C21.685 35.2504 22.753 34.5537 22.753 33.2348C22.7538 31.8398 21.0011 31.398 19.1948 31.0076Z" fill="#1D3462"/>
<path fill-rule="evenodd" clip-rule="evenodd" d="M29.4332 24.2736H31.6637V25.9901H29.4332V32.975C29.4332 34.4237 29.4332 35.0451 30.3143 35.0451C30.7032 35.0451 31.2492 34.8888 31.6637 34.7605V36.4602C31.3005 36.5115 30.4434 36.667 29.6649 36.667C27.2797 36.667 27.2797 35.5077 27.3054 33.9074V25.9901H25.3595V24.2736H27.3054V21.3408L29.4332 20.4556V24.2736Z" fill="#1D3462"/>
<path fill-rule="evenodd" clip-rule="evenodd" d="M35.5826 24.3048V26.5032C36.7491 24.1838 38.9547 24.1316 39.7845 24.106V26.233C37.7617 26.2467 36.7699 26.6612 36.1021 27.7491C35.5537 28.6375 35.5826 29.8858 35.5826 30.9401V36.5837H33.5229V24.3048H35.5826Z" fill="#1D3462"/>
<path fill-rule="evenodd" clip-rule="evenodd" d="M63.6007 20.4396V22.4536L54.4623 34.6466H63.8299V36.5837H51.968V34.4863L61.1513 22.4303H51.9753V20.4396H63.6007Z" fill="#1D3462"/>
<path fill-rule="evenodd" clip-rule="evenodd" d="M78.8034 24.3898V26.1737C79.9499 24.1694 81.903 23.9874 82.6318 23.9874C84.1944 23.9874 86.0665 24.7691 86.6638 26.7951C86.873 27.5199 86.873 28.2711 86.873 29.3078V36.5837H84.8189V29.6445C84.8189 28.4002 84.8189 28.0386 84.6882 27.6233C84.3242 26.4584 83.1785 25.9404 82.0585 25.9404C81.1477 25.9404 80.366 26.2251 79.7142 26.8721C78.8026 27.7789 78.8026 28.7097 78.8026 29.6189V36.5837H76.7421V24.3898H78.8034Z" fill="#1D3462"/>
<path fill-rule="evenodd" clip-rule="evenodd" d="M110.567 34.4102C109.798 35.6176 108.402 36.8331 105.887 36.8331C101.548 36.8331 99.9095 33.489 99.9095 30.4848C99.9095 27.014 101.798 23.8687 105.706 23.8687C107.239 23.8687 109.386 24.3306 110.574 26.3101L108.644 27.1158C108.279 26.3117 107.493 25.3825 105.784 25.3825C102.397 25.3825 102.199 29.2413 102.199 30.3301C102.199 34.3757 104.524 35.2504 105.912 35.2504C107.502 35.2504 108.314 34.4879 108.743 33.6477L110.567 34.4102Z" fill="#1D3462"/>
<path fill-rule="evenodd" clip-rule="evenodd" d="M66.79 29.1876H73.301C73.119 25.9758 71.2677 25.433 70.033 25.433C68.2708 25.4338 67.0225 26.727 66.79 29.1876ZM74.9959 34.2515C74.2936 35.4469 72.9378 36.8187 70.2648 36.8187C66.6408 36.8187 64.5563 34.3557 64.5563 30.2267C64.5563 25.6142 67.5989 23.8511 70.1886 23.8511C72.4399 23.8511 74.5982 25.0955 75.3238 28.1774C75.5579 29.2141 75.5579 30.1489 75.5579 30.6676H66.7386C66.6873 32.7185 67.5468 35.3138 70.4467 35.2633C71.6301 35.2432 72.4632 34.706 72.9947 33.8642L74.9959 34.2515Z" fill="#1D3462"/>
<path fill-rule="evenodd" clip-rule="evenodd" d="M90.2116 29.1876H96.7234C96.5422 25.9758 94.691 25.433 93.4555 25.433C91.6948 25.4338 90.4457 26.727 90.2116 29.1876ZM98.4191 34.2515C97.7168 35.4469 96.3618 36.8187 93.6888 36.8187C90.0649 36.8187 87.9795 34.3557 87.9795 30.2267C87.9795 25.6142 91.0222 23.8511 93.611 23.8511C95.8632 23.8511 98.0199 25.0955 98.7462 28.1774C98.9796 29.2141 98.9796 30.1489 98.9796 30.6676H90.1603C90.1082 32.7185 90.9709 35.3138 93.8684 35.2633C95.0518 35.2432 95.8872 34.706 96.4172 33.8642L98.4191 34.2515Z" fill="#1D3462"/>
<path fill-rule="evenodd" clip-rule="evenodd" d="M121.827 36.5966L119.685 36.6046C119.685 36.6046 119.5 35.7395 119.439 34.795C118.817 35.4412 117.663 36.7778 115.33 36.7778C112.944 36.7778 111.173 35.3627 111.173 33.2893C111.173 32.6391 111.355 31.9921 111.719 31.4453C112.422 30.4071 113.724 29.5764 117.379 29.2918L119.322 29.1363V28.8244C119.322 27.5528 119.322 25.4258 116.583 25.4258C114.86 25.4258 114.273 26.2612 114.074 27.0156L112.177 26.2235C112.207 26.1578 112.241 26.0904 112.277 26.0223C113.006 24.6737 114.436 23.8431 116.503 23.8431C117.642 23.8431 119.116 24.1293 120.076 24.8814C121.443 25.9172 121.41 27.9577 121.41 27.9577L121.493 34.2547C121.493 34.2563 121.566 36.0843 121.827 36.5966ZM119.01 33.2116C119.322 32.5373 119.348 32.2519 119.348 30.4592C118.546 30.589 117.462 30.7446 116.134 31.0308C113.852 31.5231 113.463 32.3826 113.463 33.238C113.463 34.2242 114.242 35.0556 115.771 35.0556C117.198 35.0556 118.416 34.4848 119.01 33.2116Z" fill="#1D3462"/>
<path fill-rule="evenodd" clip-rule="evenodd" d="M50.5136 36.5966L48.3713 36.6046C48.3713 36.6046 48.1853 35.7395 48.126 34.795C47.5038 35.4412 46.3509 36.7778 44.017 36.7778C41.6294 36.7778 39.8599 35.3627 39.8599 33.2893C39.8599 32.6391 40.0419 31.9921 40.4067 31.4453C41.1099 30.4071 42.4103 29.5764 46.0639 29.2918L48.0089 29.1363V28.8244C48.0089 27.5528 48.0089 25.4258 45.2686 25.4258C43.5456 25.4258 42.9603 26.2612 42.7599 27.0156L40.8629 26.2235C40.8942 26.1578 40.9271 26.0904 40.9639 26.0223C41.6927 24.6737 43.1231 23.8431 45.1892 23.8431C46.3269 23.8431 47.8021 24.1293 48.7618 24.8814C50.1288 25.9172 50.0959 27.9577 50.0959 27.9577L50.1785 34.2547C50.1785 34.2563 50.2514 36.0843 50.5136 36.5966ZM47.6971 33.2116C48.0097 32.5373 48.0338 32.2519 48.0338 30.4592C47.2336 30.589 46.1473 30.7446 44.8212 31.0308C42.541 31.5231 42.1513 32.3826 42.1513 33.238C42.1513 34.2242 42.9282 35.0556 44.4572 35.0556C45.8835 35.0556 47.1014 34.4848 47.6971 33.2116Z" fill="#1D3462"/>
<path fill-rule="evenodd" clip-rule="evenodd" d="M149.982 19.5882C149.974 19.5129 149.965 19.4375 149.947 19.3645C149.908 19.2154 149.868 19.0663 149.811 18.9236C149.749 18.772 149.673 18.6253 149.592 18.4834C149.501 18.3271 149.4 18.1771 149.294 18.0304C149.232 17.9446 149.16 17.8645 149.087 17.7883C149.004 17.7033 148.919 17.6191 148.826 17.5454C148.616 17.3786 148.408 17.2086 148.178 17.0683C147.678 16.7612 147.179 16.4421 146.642 16.2056C145.993 15.9202 145.365 15.5819 144.695 15.3494L140.184 13.7827C140.184 12.9249 140.209 12.067 140.184 11.2099C140.146 9.93753 140.095 8.66435 139.996 7.39518C139.927 6.51165 139.822 5.63052 139.684 4.75501C139.576 4.07192 139.414 3.39845 139.262 2.72417C139.228 2.56944 139.175 2.41951 139.124 2.27038C139.078 2.13569 139.029 2.0018 138.973 1.87031C138.924 1.75165 138.869 1.63459 138.811 1.51914C138.758 1.41571 138.699 1.31469 138.637 1.21608C138.582 1.12708 138.52 1.0405 138.457 0.956311C138.399 0.880145 138.338 0.807186 138.273 0.737433C138.215 0.673293 138.152 0.61236 138.087 0.553832C138.029 0.500916 137.966 0.452009 137.902 0.404706C137.843 0.361412 137.781 0.321324 137.719 0.285245C137.66 0.251572 137.601 0.2187 137.538 0.193044C137.429 0.148146 137.319 0.105653 137.206 0.0735827C137.112 0.0471249 137.015 0.0326934 136.918 0.0190636C136.846 0.00864085 136.773 0.00383034 136.701 0.00222683C136.578 -0.000178422 136.453 -0.00258368 136.33 0.00623559C136.199 0.0158566 136.067 0.0318916 135.938 0.0575477C135.799 0.0848073 135.662 0.119283 135.528 0.164181C135.384 0.212286 135.244 0.270814 135.108 0.337359C134.957 0.411922 134.811 0.498511 134.668 0.588307C134.516 0.683716 134.367 0.783133 134.223 0.890568C133.972 1.07978 133.715 1.26338 133.487 1.47825C132.545 2.36339 131.62 3.26616 130.715 4.18817C130.233 4.67965 129.765 5.18796 129.328 5.71872C127.59 7.82331 125.86 9.93433 124.188 12.0918C123.446 13.0491 122.778 14.0617 122.091 15.0575C121.919 15.3069 121.759 15.5642 121.611 15.828C121.353 16.289 121.112 16.7588 120.876 17.2311C120.815 17.3537 120.767 17.4836 120.721 17.6127C120.676 17.7362 120.635 17.8612 120.602 17.9879C120.572 18.1074 120.545 18.2292 120.531 18.3519C120.519 18.465 120.518 18.5796 120.525 18.6927C120.529 18.7496 120.546 18.8057 120.564 18.8594C120.584 18.918 120.611 18.9741 120.641 19.0278C120.675 19.0863 120.714 19.1416 120.755 19.1946C120.8 19.2523 120.846 19.3084 120.897 19.3597C121.009 19.4696 121.122 19.577 121.243 19.6764C121.368 19.779 121.496 19.8768 121.631 19.965C121.866 20.119 122.109 20.2625 122.35 20.4036C122.456 20.4653 122.567 20.5182 122.675 20.5744C122.713 20.5936 122.598 20.5343 122.561 20.5134C122.556 20.5118 122.544 20.5046 122.548 20.5062C122.554 20.5078 122.561 20.5126 122.566 20.5158C122.626 20.5471 122.685 20.5776 122.745 20.6088C124.231 21.3849 125.722 22.1498 127.2 22.9379C128.687 23.7301 130.173 24.5246 131.641 25.3496L134.941 27.2041C133.795 28.0716 132.627 28.9094 131.504 29.8049C131.075 30.1473 130.677 30.5265 130.288 30.9138C129.972 31.2289 129.675 31.5632 129.394 31.9087C129.17 32.1853 128.965 32.478 128.774 32.7786C128.624 33.0127 128.493 33.2605 128.375 33.5114C128.285 33.7023 128.213 33.9011 128.15 34.1023C128.104 34.2434 128.074 34.3886 128.049 34.5345C128.033 34.6219 128.03 34.7125 128.025 34.8023C128.024 34.8327 128.029 34.8632 128.029 34.8937C128.031 34.9746 128.027 35.0548 128.032 35.135C128.036 35.2104 128.045 35.2857 128.057 35.3587C128.068 35.43 128.083 35.5006 128.102 35.5703C128.12 35.6361 128.143 35.7018 128.168 35.766C128.193 35.8277 128.221 35.8886 128.252 35.948C128.282 36.0057 128.313 36.0642 128.353 36.1163C128.429 36.2206 128.506 36.324 128.596 36.4154C128.687 36.5068 128.786 36.5902 128.891 36.6663C128.995 36.7433 129.107 36.8106 129.221 36.8732C129.336 36.9357 129.456 36.9902 129.578 37.0408C129.699 37.0913 129.821 37.145 129.949 37.173C130.41 37.2749 130.874 37.3679 131.342 37.4312C131.572 37.4625 131.805 37.4753 132.035 37.4569C132.833 37.3943 133.63 37.3133 134.42 37.1891C135.343 37.044 136.259 36.8499 137.172 36.6503C138.249 36.4146 139.322 36.1652 140.388 35.8854C141.142 35.6874 141.909 35.5118 142.63 35.2168C143.199 34.9851 143.773 34.7638 144.336 34.5208C144.463 34.4671 144.582 34.3966 144.701 34.3268C144.809 34.2643 144.914 34.1961 145.015 34.124C145.104 34.0606 145.193 33.9933 145.272 33.9179C145.339 33.8546 145.401 33.784 145.456 33.7087C145.503 33.6453 145.542 33.5748 145.575 33.5018C145.604 33.4377 145.626 33.3687 145.641 33.299C145.655 33.2356 145.662 33.1691 145.662 33.1041C145.662 33.0408 145.654 32.9775 145.642 32.9157C145.63 32.8556 145.612 32.7955 145.589 32.7369C145.568 32.6784 145.539 32.6215 145.508 32.567C145.476 32.5125 145.442 32.4587 145.405 32.4082C145.368 32.3577 145.329 32.3072 145.286 32.2607C145.204 32.1741 145.12 32.0867 145.031 32.0082C144.953 31.9392 144.869 31.8775 144.785 31.8181C144.703 31.7596 144.617 31.7051 144.531 31.653C143.943 31.2986 143.358 30.937 142.766 30.5883L140.288 29.1251C141.793 28.1044 143.312 27.103 144.803 26.0608C145.44 25.6158 146.067 25.1556 146.672 24.6673C147.19 24.2488 147.683 23.7998 148.165 23.3428C148.396 23.1255 148.6 22.8842 148.808 22.6461C148.903 22.5379 148.99 22.4224 149.073 22.3046C149.149 22.1979 149.226 22.0905 149.286 21.9734C149.48 21.5886 149.671 21.2013 149.833 20.8021C149.898 20.6393 149.925 20.4637 149.962 20.2922C149.979 20.2128 149.985 20.131 149.992 20.05C149.998 19.9723 150.001 19.8937 150 19.8159C149.996 19.7406 149.991 19.6636 149.982 19.5882ZM131.484 9.46049C132.324 8.58899 133.166 7.71909 134.021 6.86121C134.176 6.70487 134.35 6.56456 134.516 6.41945C134.574 6.36894 134.636 6.32083 134.698 6.27353C134.745 6.23745 134.791 6.19977 134.843 6.1677C134.879 6.14525 134.917 6.12601 134.957 6.10997C134.998 6.09313 135.04 6.0763 135.085 6.06908C135.131 6.06106 135.179 6.06187 135.227 6.06427C135.251 6.06507 135.275 6.07149 135.298 6.0795C135.322 6.08672 135.347 6.09794 135.369 6.11077C135.394 6.1244 135.418 6.14044 135.438 6.15808C135.463 6.17812 135.487 6.20057 135.507 6.22462C135.531 6.25188 135.554 6.28074 135.573 6.31121C135.596 6.34649 135.62 6.38257 135.634 6.42185C135.675 6.52768 135.712 6.63592 135.739 6.74656C135.778 6.90451 135.809 7.06486 135.834 7.22681C135.895 7.62127 135.951 8.01654 135.995 8.4126C136.053 8.92572 136.094 9.44045 136.142 9.95437L136.397 12.6907L133.347 11.9892L130.502 11.521L129.813 11.4681L129.59 11.4625C130.221 10.7946 130.847 10.1219 131.484 9.46049ZM129.572 13.2656L129.583 13.2488L129.599 13.2399L129.623 13.2375L129.659 13.2432L129.766 13.2736L130.042 13.3795L130.417 13.5462C131.386 13.9607 132.354 14.3752 133.323 14.7881C133.966 15.0623 134.609 15.3341 135.25 15.6083L136.519 16.1503L136.632 16.2008C136.7 17.2038 136.784 18.206 136.837 19.2098C136.878 19.9939 136.895 20.7796 136.914 21.5645C136.917 21.664 136.909 21.7626 136.902 21.8612C136.898 21.9165 136.893 21.9726 136.885 22.0279C136.876 22.0833 136.866 22.1386 136.85 22.1915C136.833 22.2436 136.816 22.2965 136.789 22.3446C136.765 22.3919 136.73 22.4352 136.696 22.4769C136.679 22.4978 136.656 22.5162 136.634 22.5331C136.611 22.5499 136.587 22.5667 136.561 22.5812C136.534 22.5956 136.505 22.6076 136.476 22.618C136.444 22.6293 136.411 22.6389 136.377 22.6453C136.336 22.6525 136.295 22.6565 136.254 22.6581C136.211 22.6589 136.167 22.6581 136.124 22.6525C136.077 22.6469 136.033 22.6373 135.988 22.6261C135.94 22.614 135.893 22.6012 135.848 22.5828C135.75 22.5411 135.651 22.497 135.558 22.4441C135.452 22.3839 135.35 22.3158 135.252 22.2436C135.143 22.1634 135.038 22.0777 134.937 21.9887C134.827 21.8909 134.718 21.7914 134.618 21.6848C134.399 21.4499 134.181 21.211 133.978 20.9616C133.61 20.5118 133.227 20.0701 132.904 19.5874C132.458 18.922 132.001 18.2645 131.568 17.5911C131.309 17.1894 131.043 16.7893 130.828 16.3612L129.849 14.4217L129.638 13.8036L129.59 13.62L129.561 13.4428L129.558 13.3145L129.572 13.2656ZM140.389 30.456C140.653 30.6227 140.918 30.7871 141.178 30.9587C141.514 31.1799 141.851 31.3996 142.176 31.6353C142.41 31.8045 142.634 31.9873 142.855 32.1741C142.953 32.2575 143.045 32.3473 143.134 32.4419C143.205 32.5197 143.268 32.6047 143.331 32.6896C143.335 32.6953 143.336 32.7025 143.335 32.7089C143.335 32.7241 143.333 32.7386 143.328 32.753C143.326 32.7626 143.319 32.7706 143.312 32.777C143.303 32.7859 143.292 32.7939 143.281 32.7987C143.266 32.8059 143.25 32.8099 143.233 32.8131C143.21 32.8179 143.186 32.8211 143.163 32.8227C141.877 32.9189 140.589 33.0071 139.304 33.1082L134.279 33.5026L134.123 33.5122L134.195 33.4345L134.512 33.1547C135.163 32.6704 135.794 32.1565 136.465 31.7011L139.311 29.7721C139.669 29.9998 140.029 30.2275 140.389 30.456ZM144.259 20.5639C144.246 20.6105 144.228 20.6562 144.206 20.6986C144.18 20.7484 144.149 20.7965 144.113 20.839C144.028 20.9408 143.937 21.0402 143.839 21.1308C143.629 21.3224 143.421 21.5188 143.19 21.6832C142.391 22.2492 141.602 22.8289 140.793 23.3813C140.237 23.7621 139.663 24.1181 139.095 24.4829L135.794 26.6035C135.327 26.3358 134.86 26.0672 134.392 25.8002L128.414 22.3831C127.064 21.5766 125.706 20.7836 124.365 19.9626C124.112 19.8079 123.875 19.6283 123.633 19.4567C123.556 19.4022 123.485 19.3397 123.411 19.2819C123.388 19.2643 123.362 19.2483 123.341 19.229C123.29 19.1825 123.239 19.1344 123.192 19.0831C123.163 19.051 123.139 19.0166 123.115 18.9805C123.091 18.9428 123.068 18.9035 123.052 18.8618C123.035 18.8193 123.02 18.7744 123.014 18.7279C123.006 18.6798 123.006 18.6309 123.013 18.5828C123.02 18.5299 123.035 18.4786 123.053 18.4289C123.072 18.3752 123.096 18.3223 123.126 18.2733C123.185 18.1723 123.249 18.0721 123.321 17.9783C123.404 17.8709 123.493 17.7682 123.588 17.6712C124.36 16.8767 125.144 16.0934 125.92 15.3021L128.013 13.167L128.112 13.5117L128.366 14.1179L128.383 14.1547C128.936 15.1136 129.456 16.0926 130.043 17.0314C130.717 18.1106 131.441 19.1585 132.164 20.2048C132.504 20.6946 132.858 21.1749 133.232 21.6407C133.557 22.0456 133.893 22.4433 134.257 22.8137C134.577 23.1384 134.928 23.435 135.284 23.7212C135.46 23.8624 135.658 23.9762 135.852 24.0925C135.944 24.1486 136.042 24.1935 136.141 24.2376C136.235 24.2785 136.33 24.3145 136.427 24.3458C136.522 24.3763 136.618 24.4011 136.716 24.4212C136.804 24.4396 136.894 24.454 136.984 24.4621C137.066 24.4693 137.149 24.4709 137.231 24.4677C137.307 24.4661 137.383 24.4589 137.458 24.4468C137.528 24.4364 137.598 24.4204 137.665 24.4011C137.729 24.3835 137.792 24.361 137.853 24.3346C137.91 24.3113 137.966 24.2833 138.021 24.2528C138.072 24.2239 138.124 24.1943 138.172 24.1582C138.258 24.0925 138.345 24.0243 138.423 23.9497C138.491 23.8856 138.552 23.8151 138.609 23.7413C138.681 23.6475 138.746 23.5481 138.806 23.4462C138.879 23.3228 138.948 23.1953 139.008 23.0646C139.075 22.9187 139.138 22.7704 139.188 22.618C139.292 22.3005 139.392 21.9806 139.471 21.6551C139.578 21.2158 139.696 20.7756 139.743 20.325L140.014 17.7185C140.632 18.0064 141.265 18.2677 141.869 18.5828C142.459 18.8907 143.025 19.2467 143.598 19.5866C143.665 19.6267 143.728 19.6732 143.788 19.7229C143.873 19.7935 143.955 19.868 144.032 19.9474C144.073 19.9891 144.109 20.0364 144.141 20.0845C144.173 20.1318 144.202 20.1823 144.223 20.2344C144.243 20.2857 144.257 20.3411 144.267 20.3956C144.272 20.4228 144.271 20.4509 144.269 20.479C144.27 20.5086 144.267 20.5375 144.259 20.5639Z" fill="#1D3462"/>
</svg>
