<svg width="90" height="26" viewBox="0 0 90 26" fill="none" xmlns="http://www.w3.org/2000/svg">
<path d="M30.464 0.0466309C28.2706 0.0622822 26.6992 1.03649 25.766 2.77372C24.7339 4.69501 24.9734 7.03606 26.365 8.53937C27.2692 9.5162 28.1814 10.4857 29.0938 11.4549C31.7835 14.3117 34.4781 17.1639 37.1651 20.0234C38.7949 21.7577 40.4132 23.5028 42.0382 25.2417C42.4386 25.6702 42.7068 25.6623 43.0964 25.2413C45.5289 22.6121 47.9617 19.9831 50.3987 17.3581C53.1326 14.4134 55.8756 11.4774 58.6064 8.52981C61.2844 5.63919 59.5375 1.46935 56.7371 0.391244C54.8575 -0.33233 52.8599 0.115114 51.4951 1.59378C49.785 3.44666 48.0579 5.28396 46.3414 7.13089C45.3146 8.23569 44.2924 9.34481 43.2713 10.4548C42.7913 10.9764 42.3898 10.9872 41.8988 10.4728C41.5571 10.1148 41.2223 9.75033 40.8848 9.38836C38.4019 6.72551 35.9241 4.05777 33.4334 1.40207C32.5543 0.464685 31.4341 0.0622114 30.464 0.0466309ZM12.5557 25.2222L12.556 25.1959C15.4945 25.1959 18.4329 25.1966 21.3714 25.1955C22.3862 25.1951 23.4011 25.1955 24.416 25.1849C24.9001 25.1799 25.0462 25.0599 25.0467 24.6217C25.0494 21.6805 25.0443 18.7392 25.0326 15.798C25.0309 15.3762 24.8852 15.2517 24.472 15.2473C22.8086 15.2296 21.1452 15.2124 19.4819 15.2C17.6056 15.1861 15.7292 15.1849 13.853 15.1636C12.933 15.1532 12.0126 15.126 11.094 15.0758C10.5482 15.0459 10.4254 14.8972 10.4006 14.3478C10.3714 13.7014 10.3479 13.0544 10.3414 12.4074C10.3106 9.35961 10.2861 6.31178 10.2602 3.26387C10.2532 2.45184 10.2541 1.63967 10.242 0.827711C10.2355 0.394148 10.0722 0.224532 9.63603 0.224957C6.65059 0.228002 3.66515 0.233314 0.679775 0.250169C0.0284381 0.253852 -0.00130657 0.301727 3.90204e-05 0.939962C0.0156904 8.30729 0.0327581 15.6746 0.0502508 23.0419C0.0513131 23.4773 0.0504633 23.9131 0.0663271 24.3482C0.0862985 24.8976 0.255276 25.0571 0.804419 25.0646C4.72151 25.1178 8.63859 25.1697 12.5557 25.2222ZM77.4426 0.211997V0.205694C73.4891 0.205694 69.5355 0.205552 65.582 0.205906C64.9837 0.205906 64.8606 0.329701 64.8601 0.932951C64.8578 3.69885 64.8557 6.46482 64.8546 9.23072C64.8544 9.83418 64.9838 9.96782 65.5729 9.96775C73.4683 9.96725 81.3636 9.96619 89.2589 9.96435C89.8727 9.96421 90.0007 9.83368 89.9998 9.21181C89.9958 6.45767 89.9907 3.70352 89.9851 0.949381C89.9838 0.335862 89.857 0.212209 89.2325 0.212209C85.3025 0.211855 81.3726 0.211997 77.4426 0.211997ZM77.4255 15.468V15.4617C73.4718 15.4617 69.5182 15.4614 65.5645 15.4619C64.9849 15.462 64.8604 15.5871 64.8599 16.1684C64.8574 18.9461 64.8553 21.7239 64.8544 24.5016C64.8542 25.0915 64.9888 25.2239 65.5878 25.2238C73.4715 25.2231 81.3553 25.2221 89.2389 25.2205C89.877 25.2203 90.001 25.0952 90 24.4525C89.996 21.71 89.9908 18.9676 89.9853 16.2251C89.9841 15.5854 89.8644 15.4682 89.2156 15.4681C85.2855 15.4678 81.3556 15.468 77.4255 15.468Z" fill="#1D3462"/>
<path d="M30.464 0.0466309C31.4341 0.0622114 32.5543 0.464685 33.4334 1.40207C35.9241 4.05777 38.4019 6.72551 40.8848 9.38836C41.2223 9.75033 41.5571 10.1148 41.8988 10.4728C42.3898 10.9872 42.7913 10.9764 43.2713 10.4548C44.2924 9.34481 45.3146 8.23569 46.3414 7.13089C48.0579 5.28396 49.785 3.44666 51.4951 1.59378C52.8599 0.115114 54.8575 -0.33233 56.7371 0.391244C59.5375 1.46935 61.2844 5.63919 58.6064 8.52981C55.8756 11.4774 53.1326 14.4134 50.3987 17.3581C47.9617 19.9831 45.5289 22.6121 43.0964 25.2413C42.7068 25.6623 42.4386 25.6702 42.0382 25.2417C40.4132 23.5028 38.7949 21.7577 37.1651 20.0234C34.4781 17.1639 31.7835 14.3117 29.0938 11.4549C28.1814 10.4857 27.2692 9.5162 26.365 8.53937C24.9734 7.03606 24.7339 4.69501 25.766 2.77372C26.6992 1.03649 28.2706 0.0622822 30.464 0.0466309Z" fill="#1D3462"/>
<path d="M12.5557 25.2222C8.63859 25.1697 4.72151 25.1178 0.804419 25.0646C0.255276 25.0571 0.0862985 24.8976 0.0663271 24.3482C0.0504633 23.9131 0.0513131 23.4773 0.0502508 23.0419C0.0327581 15.6746 0.0156904 8.30729 3.90204e-05 0.939962C-0.00130657 0.301727 0.0284381 0.253852 0.679775 0.250169C3.66515 0.233314 6.65059 0.228002 9.63603 0.224957C10.0722 0.224532 10.2355 0.394148 10.242 0.827711C10.2541 1.63967 10.2532 2.45184 10.2602 3.26387C10.2861 6.31178 10.3106 9.35961 10.3414 12.4074C10.3479 13.0544 10.3714 13.7014 10.4006 14.3478C10.4254 14.8972 10.5482 15.0459 11.094 15.0758C12.0126 15.126 12.933 15.1532 13.853 15.1636C15.7292 15.1849 17.6056 15.1861 19.4819 15.2C21.1452 15.2124 22.8086 15.2296 24.472 15.2473C24.8852 15.2517 25.0309 15.3762 25.0326 15.798C25.0443 18.7392 25.0494 21.6805 25.0467 24.6217C25.0462 25.0599 24.9001 25.1799 24.416 25.1849C23.4011 25.1955 22.3862 25.1951 21.3714 25.1955C18.4329 25.1966 15.4945 25.1959 12.556 25.1959L12.5557 25.2222Z" fill="#1D3462"/>
<path d="M77.4426 0.211997C81.3726 0.211997 85.3025 0.211855 89.2325 0.212209C89.857 0.212209 89.9838 0.335862 89.9851 0.949381C89.9907 3.70352 89.9958 6.45767 89.9998 9.21181C90.0007 9.83368 89.8727 9.96421 89.2589 9.96435C81.3636 9.96619 73.4683 9.96725 65.5729 9.96775C64.9838 9.96782 64.8544 9.83418 64.8546 9.23072C64.8557 6.46482 64.8578 3.69885 64.8601 0.932951C64.8606 0.329701 64.9837 0.205906 65.582 0.205906C69.5355 0.205552 73.4891 0.205694 77.4426 0.205694V0.211997Z" fill="#1D3462"/>
<path d="M77.4255 15.468C81.3556 15.468 85.2855 15.4678 89.2156 15.4681C89.8644 15.4682 89.9841 15.5854 89.9853 16.2251C89.9908 18.9676 89.996 21.71 90 24.4525C90.001 25.0952 89.877 25.2203 89.2389 25.2205C81.3553 25.2221 73.4715 25.2231 65.5878 25.2238C64.9888 25.2239 64.8542 25.0915 64.8544 24.5016C64.8553 21.7239 64.8574 18.9461 64.8599 16.1684C64.8604 15.5871 64.9849 15.462 65.5645 15.4619C69.5182 15.4614 73.4718 15.4617 77.4255 15.4617V15.468Z" fill="#1D3462"/>
</svg>
