<svg width="140" height="45" viewBox="0 0 140 45" fill="none" xmlns="http://www.w3.org/2000/svg">
<path d="M59.4713 36.5636C59.4713 37.8216 59.0566 38.891 58.2589 39.7717C57.4294 40.6523 56.5041 41.0612 55.4194 41.0612C54.9408 41.0612 54.4941 40.9983 54.0155 40.8411C53.5689 40.6838 53.1222 40.4951 52.7393 40.2749L52.1012 41.2499L51.5588 41.1241C51.5907 40.7153 51.6227 40.1806 51.6227 39.583C51.6227 38.9854 51.6546 38.4192 51.6546 37.8531V29.4868C51.6546 29.2981 51.6227 29.1094 51.5269 28.8892C51.4312 28.7005 51.3355 28.5433 51.176 28.4804C51.0803 28.4174 50.8888 28.3545 50.6336 28.3231C50.3783 28.2916 50.155 28.2602 49.9955 28.2602V27.694L53.1541 27.5053L53.2817 27.6311V33.2296L53.3455 33.2611C53.6965 32.8837 54.1113 32.6006 54.526 32.4119C54.9408 32.2232 55.3875 32.1288 55.8022 32.1288C56.8551 32.1288 57.7485 32.5377 58.4504 33.3554C59.1204 34.1732 59.4713 35.2426 59.4713 36.5636ZM57.6527 36.6265C57.6527 36.2176 57.6208 35.7773 57.5251 35.3369C57.4294 34.8966 57.3018 34.5192 57.0784 34.1732C56.887 33.8272 56.6318 33.5756 56.3127 33.3554C55.9937 33.1353 55.6108 33.0409 55.1641 33.0409C54.7494 33.0409 54.3984 33.1353 54.1113 33.2925C53.7922 33.4498 53.537 33.67 53.2817 33.9216V38.8596C53.3136 38.9854 53.3774 39.1426 53.4732 39.3314C53.5689 39.5201 53.7284 39.6773 53.8879 39.866C54.0474 40.0233 54.2708 40.1491 54.4941 40.2435C54.7175 40.3378 54.9727 40.4007 55.2918 40.4007C55.9937 40.4007 56.568 40.0548 57.0146 39.3943C57.4613 38.7338 57.6527 37.7902 57.6527 36.6265Z" fill="#1D3462"/>
<path d="M59.535 43.5774C59.535 43.2943 59.5988 43.0427 59.7902 42.8854C59.9497 42.6967 60.1412 42.6024 60.3964 42.6024C60.5878 42.6024 60.7474 42.6338 60.875 42.6967C61.0026 42.7596 61.1302 42.854 61.2259 42.9484C61.3216 43.0427 61.4174 43.1371 61.5131 43.2943C61.6088 43.4516 61.7045 43.5774 61.7364 43.6717C62.0236 43.5145 62.3745 43.1056 62.7893 42.4766C63.2041 41.8161 63.4912 41.2499 63.6507 40.7467C63.1083 39.3943 62.5979 38.1676 62.1512 37.0982C61.7045 36.0289 61.2259 34.928 60.7474 33.7643C60.6516 33.5127 60.4602 33.2925 60.1731 33.1353C59.8859 32.978 59.6626 32.8837 59.3754 32.8522V32.2861H63.2998V32.8837C63.1402 32.8837 62.9169 32.9151 62.6617 32.978C62.4064 33.0409 62.3107 33.1353 62.3107 33.1982C62.3107 33.2296 62.3107 33.2925 62.3426 33.3554C62.3745 33.4498 62.4064 33.5127 62.4383 33.6071C62.6617 34.1732 62.9807 34.991 63.4593 36.0603C63.9379 37.1297 64.2569 37.9789 64.5122 38.6394C64.7674 38.0418 65.0546 37.3813 65.3417 36.7208C65.6289 36.0603 65.9479 35.3055 66.2989 34.3934C66.3308 34.299 66.3946 34.1417 66.4584 33.953C66.5222 33.7643 66.586 33.6071 66.586 33.4498C66.586 33.2925 66.4584 33.1667 66.2031 33.0409C65.9479 32.9151 65.6927 32.8208 65.4374 32.7893V32.2232H68.6279V32.7578C68.4684 32.7893 68.2132 32.8837 67.926 33.0409C67.6389 33.1982 67.4155 33.4498 67.2879 33.7643C66.586 35.3369 65.9798 36.7837 65.4374 38.1047C64.895 39.3943 64.4803 40.3693 64.225 40.9669C63.8741 41.7846 63.5231 42.3822 63.236 42.854C62.9488 43.2943 62.6617 43.6718 62.4064 43.9234C62.1512 44.175 61.8959 44.3322 61.6726 44.3952C61.4493 44.4895 61.2259 44.521 61.0026 44.521C60.5559 44.521 60.205 44.4266 59.9497 44.2064C59.6626 44.1121 59.535 43.8605 59.535 43.5774Z" fill="#1D3462"/>
<path d="M78.6782 41.0927C77.9444 41.0927 77.2425 40.9354 76.5406 40.6523C75.8706 40.3693 75.2644 39.9604 74.7539 39.4257C74.2434 38.891 73.8286 38.2305 73.5096 37.4442C73.1905 36.6579 73.0629 35.7773 73.0629 34.8022C73.0629 33.8272 73.2224 32.9466 73.5096 32.1603C73.7967 31.374 74.2434 30.682 74.7539 30.1159C75.2963 29.5497 75.9025 29.1094 76.6363 28.7949C77.3701 28.4804 78.1358 28.3231 78.9334 28.3231C79.5396 28.3231 80.082 28.386 80.5925 28.5433C81.0711 28.7005 81.5497 28.8892 81.9964 29.1723L82.3473 28.5747H83.0492L83.113 32.9151H82.4111C82.3154 32.5062 82.1878 32.0344 81.9964 31.5312C81.8049 31.028 81.5816 30.6191 81.3583 30.2731C81.0711 29.8957 80.7521 29.5812 80.3692 29.361C79.9863 29.1408 79.5396 29.015 79.0611 29.015C78.4868 29.015 77.9763 29.1408 77.4977 29.3925C77.0191 29.6441 76.6044 29.9901 76.2534 30.4933C75.9025 30.9651 75.6472 31.5627 75.4558 32.2546C75.2644 32.9466 75.1686 33.7643 75.1686 34.645C75.1686 35.4313 75.2644 36.1547 75.4558 36.7837C75.6472 37.4442 75.9344 38.0104 76.3172 38.5136C76.7001 39.0168 77.1149 39.3943 77.6253 39.6459C78.1358 39.9289 78.7101 40.0548 79.3163 40.0548C79.7949 40.0548 80.2097 39.9918 80.6244 39.8346C81.0392 39.6773 81.3582 39.4886 81.6454 39.2684C81.9325 39.0168 82.1878 38.7338 82.4111 38.4192C82.6345 38.1047 82.8259 37.7587 82.9535 37.3813L83.6235 37.6958C83.113 38.891 82.4749 39.7717 81.6454 40.2749C80.784 40.8411 79.8268 41.0927 78.6782 41.0927Z" fill="#1D3462"/>
<path d="M84.0703 40.8096V40.2435C84.1979 40.2435 84.3574 40.212 84.485 40.212C84.6126 40.212 84.7403 40.1806 84.8679 40.1491C85.0274 40.0862 85.155 39.9918 85.2188 39.866C85.2827 39.7402 85.3465 39.583 85.3465 39.3628V34.1417C85.3465 33.953 85.3146 33.7958 85.2188 33.6385C85.1231 33.4812 85.0274 33.3554 84.8679 33.2611C84.7722 33.1982 84.6126 33.1353 84.3893 33.0724C84.166 33.0095 83.9745 32.978 83.815 32.978V32.4119L86.846 32.2232L86.9736 32.349V39.2684C86.9736 39.4572 87.0055 39.6459 87.1012 39.7717C87.1651 39.8975 87.2927 39.9918 87.4841 40.0548C87.6117 40.1177 87.7393 40.1491 87.867 40.1806C87.9946 40.212 88.1222 40.2435 88.2817 40.2435V40.8096H84.0703ZM87.1332 28.8892C87.1332 29.2038 87.0374 29.4868 86.8141 29.7384C86.5908 29.9901 86.3355 30.1159 86.0165 30.1159C85.7293 30.1159 85.4741 29.9901 85.2507 29.7699C85.0274 29.5497 84.9317 29.2667 84.9317 28.9836C84.9317 28.6691 85.0274 28.386 85.2507 28.1658C85.4741 27.9457 85.7293 27.8199 86.0165 27.8199C86.3355 27.8199 86.6227 27.9457 86.846 28.1658C87.0055 28.3231 87.1332 28.5747 87.1332 28.8892Z" fill="#1D3462"/>
<path d="M96.0029 39.9289C96.2262 40.1491 96.4176 40.4007 96.5453 40.6838C96.6729 40.9669 96.7367 41.3128 96.7367 41.7217C96.7367 42.1306 96.641 42.508 96.4814 42.8854C96.29 43.2314 96.0348 43.5459 95.6519 43.829C95.269 44.1121 94.7905 44.3008 94.2481 44.4581C93.7057 44.6153 93.0357 44.6782 92.2381 44.6782C90.9299 44.6782 89.9728 44.4895 89.3028 44.1121C88.6647 43.7347 88.3456 43.2 88.3456 42.4766C88.3456 41.879 88.569 41.4386 89.0475 41.0927C89.5261 40.7467 90.1004 40.558 90.8342 40.5265V40.4007C90.6747 40.3378 90.4833 40.2749 90.2918 40.212C90.1004 40.1491 89.9409 40.0548 89.8133 39.9289C89.6537 39.8031 89.5261 39.6773 89.4623 39.4886C89.3666 39.3314 89.3347 39.1112 89.3347 38.891C89.3347 38.5765 89.4304 38.2934 89.6537 38.0418C89.8771 37.7902 90.1961 37.57 90.6428 37.3813V37.2555C90.0685 37.0039 89.6537 36.6579 89.3347 36.249C89.0156 35.8402 88.888 35.3684 88.888 34.8337C88.888 34.0159 89.2071 33.3869 89.8133 32.8522C90.4195 32.349 91.1852 32.0659 92.1423 32.0659C92.3976 32.0659 92.6528 32.0974 92.9081 32.1288C93.1633 32.1917 93.4185 32.2546 93.7057 32.3175H96.7048V33.1353H94.6948V33.1982C94.9181 33.4498 95.0776 33.7014 95.1733 34.0159C95.269 34.299 95.3329 34.6135 95.3329 34.8966C95.3329 35.6514 95.0138 36.2805 94.4076 36.7837C93.8014 37.287 93.0676 37.57 92.27 37.57H91.2171C91.0895 37.6015 90.9299 37.6958 90.8023 37.8217C90.6428 37.9475 90.579 38.1047 90.579 38.3249C90.579 38.545 90.6428 38.7023 90.7704 38.7967C90.898 38.891 91.0257 38.9854 91.2171 39.0168C91.3766 39.0483 91.5681 39.0797 91.7914 39.1112C92.0147 39.1112 92.2381 39.1426 92.4933 39.1426C92.7485 39.1426 93.0995 39.1741 93.5462 39.2055C93.9928 39.237 94.3119 39.237 94.5033 39.2684C94.7586 39.2684 95.0457 39.3314 95.301 39.4572C95.5243 39.583 95.7795 39.7402 96.0029 39.9289ZM95.301 42.0048C95.301 41.6903 95.2371 41.4072 95.0776 41.2185C94.9181 40.9983 94.6948 40.8725 94.3757 40.8096C94.2162 40.7782 93.8652 40.7467 93.3867 40.7467C92.8762 40.7152 92.3019 40.7152 91.6319 40.7152C90.9938 40.8411 90.5471 41.0298 90.2918 41.3128C90.0366 41.5959 89.909 41.9733 89.909 42.4137C89.909 42.6024 89.9409 42.7911 90.0366 42.9798C90.1323 43.1685 90.2599 43.3258 90.4833 43.483C90.6747 43.6403 90.9618 43.7661 91.3128 43.8605C91.6638 43.9548 92.0785 44.0177 92.5571 44.0177C93.4185 44.0177 94.0886 43.8605 94.5671 43.5459C95.0776 43.1685 95.301 42.6653 95.301 42.0048ZM93.6419 34.8966C93.6419 34.2361 93.5143 33.7014 93.2271 33.2925C92.94 32.8837 92.5571 32.6949 92.0466 32.6949C91.7595 32.6949 91.5361 32.7578 91.3447 32.8522C91.1533 32.978 90.9937 33.1353 90.8661 33.324C90.7385 33.5127 90.6747 33.7329 90.6109 34.0159C90.5471 34.2675 90.5471 34.5506 90.5471 34.8337C90.5471 35.4627 90.6747 35.9974 90.9618 36.3748C91.249 36.7837 91.6 36.9724 92.0466 36.9724C92.5571 36.9724 92.94 36.7837 93.1952 36.3748C93.5143 35.9974 93.6419 35.4942 93.6419 34.8966Z" fill="#1D3462"/>
<path d="M106.978 40.8096H102.767V40.2435C102.894 40.2435 103.054 40.212 103.213 40.212C103.373 40.212 103.501 40.1806 103.596 40.1491C103.756 40.0862 103.883 39.9918 103.947 39.866C104.011 39.7402 104.075 39.583 104.075 39.3628V34.991C104.075 34.3934 103.915 33.9216 103.628 33.6071C103.341 33.2925 102.99 33.1038 102.575 33.1038C102.256 33.1038 101.969 33.1667 101.714 33.2611C101.459 33.3554 101.235 33.4812 101.044 33.6071C100.852 33.7329 100.693 33.8901 100.597 34.0474C100.47 34.2046 100.406 34.3305 100.342 34.4248V39.2999C100.342 39.4886 100.374 39.6459 100.47 39.7717C100.565 39.8975 100.661 39.9918 100.82 40.0548C100.948 40.1177 101.076 40.1491 101.203 40.1806C101.331 40.212 101.491 40.2435 101.65 40.2435V40.8096H97.4385V40.2435C97.5662 40.2435 97.7257 40.212 97.8533 40.212C97.9809 40.212 98.1085 40.1806 98.2362 40.1491C98.3957 40.0862 98.5233 39.9918 98.5871 39.866C98.6509 39.7402 98.7147 39.583 98.7147 39.3628V34.1417C98.7147 33.953 98.6828 33.7643 98.5871 33.6071C98.4914 33.4498 98.3957 33.324 98.2362 33.1982C98.1404 33.1353 97.9809 33.0724 97.8533 33.0409C97.6938 33.0095 97.5342 32.978 97.3747 32.978V32.4119L100.246 32.2232L100.374 32.349V33.5442H100.406C100.533 33.4183 100.725 33.2296 100.916 33.0409C101.14 32.8522 101.331 32.6949 101.522 32.5691C101.746 32.4433 102.001 32.3175 102.288 32.2232C102.575 32.1288 102.926 32.0974 103.277 32.0974C104.107 32.0974 104.713 32.349 105.128 32.8522C105.511 33.3554 105.734 34.0474 105.734 34.8651V39.2684C105.734 39.4572 105.766 39.6459 105.83 39.7402C105.893 39.866 106.021 39.9604 106.181 40.0233C106.308 40.0862 106.436 40.1177 106.532 40.1491C106.627 40.1806 106.787 40.1806 106.946 40.212V40.8096H106.978Z" fill="#1D3462"/>
<path d="M114.859 33.324C115.21 33.7329 115.465 34.2046 115.656 34.7079C115.848 35.2426 115.943 35.8402 115.943 36.5321C115.943 37.1926 115.816 37.8216 115.592 38.3563C115.369 38.9225 115.05 39.3943 114.699 39.7717C114.316 40.1806 113.87 40.4636 113.391 40.6838C112.912 40.904 112.402 40.9983 111.86 40.9983C111.349 40.9983 110.902 40.9354 110.583 40.8411C110.264 40.7467 109.977 40.5894 109.786 40.4322H109.722V42.9798C109.722 43.2 109.754 43.3572 109.849 43.483C109.945 43.6088 110.041 43.7347 110.232 43.7976C110.36 43.8605 110.583 43.8919 110.839 43.9548C111.094 44.0177 111.317 44.0177 111.477 44.0492V44.6153H106.659V44.0492C106.85 44.0492 107.01 44.0177 107.169 44.0177C107.329 43.9863 107.488 43.9863 107.616 43.9234C107.776 43.8605 107.903 43.7661 107.967 43.6088C108.031 43.4516 108.063 43.2943 108.063 43.1056V34.0788C108.063 33.9216 108.031 33.7329 107.935 33.5756C107.839 33.4183 107.744 33.2925 107.584 33.1982C107.488 33.1353 107.329 33.0724 107.138 33.0409C106.946 33.0095 106.787 32.978 106.595 32.978V32.4119L109.53 32.2232L109.658 32.3175V33.2611L109.722 33.2925C110.009 32.9466 110.392 32.6635 110.839 32.4433C111.285 32.2232 111.732 32.0974 112.179 32.0974C112.721 32.0974 113.2 32.2232 113.646 32.4433C114.093 32.6635 114.54 32.9466 114.859 33.324ZM113.455 39.4257C113.678 39.0797 113.87 38.6709 113.965 38.1991C114.061 37.7273 114.125 37.1926 114.125 36.6265C114.125 36.2176 114.093 35.7773 113.997 35.3369C113.901 34.8966 113.774 34.5192 113.55 34.1732C113.359 33.8272 113.104 33.5756 112.785 33.3554C112.466 33.1353 112.083 33.0409 111.636 33.0409C111.221 33.0409 110.839 33.1353 110.551 33.324C110.264 33.5127 109.977 33.7329 109.754 33.9845V38.9854C109.818 39.1426 109.881 39.2999 110.009 39.4572C110.137 39.6144 110.264 39.7717 110.392 39.8975C110.583 40.0548 110.775 40.1491 110.966 40.2435C111.189 40.3378 111.445 40.3693 111.732 40.3693C112.051 40.3693 112.37 40.2749 112.689 40.1177C112.976 39.9918 113.231 39.7402 113.455 39.4257Z" fill="#1D3462"/>
<path d="M125.228 36.4692C125.228 37.0668 125.132 37.6644 124.941 38.2305C124.749 38.7967 124.462 39.2999 124.111 39.7088C123.696 40.1806 123.25 40.4951 122.707 40.7467C122.165 40.9669 121.591 41.0927 120.921 41.0927C120.378 41.0927 119.868 40.9983 119.357 40.7782C118.847 40.558 118.432 40.2749 118.049 39.8975C117.666 39.5201 117.379 39.0483 117.156 38.4821C116.932 37.916 116.805 37.3184 116.805 36.6265C116.805 35.3055 117.188 34.2046 117.985 33.3869C118.783 32.5377 119.804 32.1288 121.048 32.1288C122.261 32.1288 123.25 32.5377 124.015 33.324C124.781 34.1103 125.228 35.1482 125.228 36.4692ZM123.409 36.5007C123.409 36.0603 123.377 35.62 123.282 35.1482C123.186 34.6764 123.058 34.2676 122.899 33.9216C122.707 33.5756 122.452 33.2925 122.165 33.0724C121.846 32.8522 121.495 32.7578 121.048 32.7578C120.602 32.7578 120.219 32.8522 119.9 33.0724C119.581 33.2925 119.325 33.5756 119.134 33.953C118.942 34.299 118.815 34.7079 118.751 35.1482C118.687 35.5885 118.623 36.0289 118.623 36.4378C118.623 37.0039 118.655 37.5071 118.751 37.9789C118.847 38.4507 118.974 38.8596 119.198 39.237C119.389 39.6144 119.644 39.8975 119.932 40.0862C120.219 40.3064 120.602 40.4007 121.048 40.4007C121.782 40.4007 122.356 40.0548 122.771 39.3628C123.218 38.6709 123.409 37.7273 123.409 36.5007Z" fill="#1D3462"/>
<path d="M131.736 36.6579C131.96 36.8781 132.151 37.0982 132.279 37.3813C132.406 37.6644 132.47 37.9789 132.47 38.3563C132.47 39.1426 132.183 39.7717 131.577 40.2749C130.971 40.7782 130.205 41.0298 129.248 41.0298C128.737 41.0298 128.291 40.9354 127.876 40.7782C127.461 40.5894 127.142 40.4322 126.983 40.2749L126.823 40.8411H126.153L126.057 37.8846H126.664C126.695 38.1047 126.823 38.3563 126.951 38.6709C127.11 38.9854 127.27 39.237 127.493 39.4886C127.716 39.7402 128.004 39.9604 128.323 40.1177C128.642 40.2749 128.993 40.3693 129.375 40.3693C129.95 40.3693 130.365 40.2435 130.652 39.9918C130.939 39.7402 131.098 39.3943 131.098 38.9225C131.098 38.6709 131.035 38.4821 130.939 38.2934C130.843 38.1047 130.715 37.9789 130.524 37.8217C130.333 37.6958 130.109 37.57 129.822 37.4757C129.535 37.3813 129.216 37.2555 128.897 37.1612C128.61 37.0668 128.323 36.9724 127.972 36.8152C127.653 36.6894 127.365 36.5007 127.11 36.3119C126.855 36.1232 126.632 35.8716 126.472 35.5571C126.313 35.274 126.217 34.9281 126.217 34.5192C126.217 33.8272 126.472 33.2296 127.014 32.7578C127.557 32.2861 128.227 32.0344 129.12 32.0344C129.471 32.0344 129.79 32.0659 130.141 32.1603C130.492 32.2546 130.779 32.349 131.003 32.4748L131.194 32.0344H131.832L131.96 34.7708H131.354C131.226 34.1732 130.971 33.67 130.556 33.2925C130.141 32.9151 129.663 32.7264 129.088 32.7264C128.61 32.7264 128.227 32.8522 127.972 33.0724C127.685 33.324 127.557 33.6071 127.557 33.9216C127.557 34.1732 127.589 34.3934 127.685 34.5821C127.78 34.7393 127.908 34.8966 128.099 35.0224C128.259 35.1482 128.482 35.2426 128.769 35.3369C129.025 35.4313 129.375 35.5571 129.758 35.6829C130.141 35.8087 130.492 35.9345 130.843 36.0918C131.226 36.2805 131.513 36.4692 131.736 36.6579Z" fill="#1D3462"/>
<path d="M138.692 40.4322C138.309 40.5894 137.958 40.7152 137.607 40.8096C137.256 40.904 136.841 40.9669 136.363 40.9669C135.629 40.9669 135.118 40.7782 134.831 40.4322C134.544 40.0862 134.385 39.583 134.385 38.9225V33.1667H132.821V32.3804H134.417V29.7384H136.012V32.3804H138.469V33.1982H136.012V37.9475C136.012 38.2934 136.012 38.608 136.044 38.8281C136.076 39.0797 136.139 39.2684 136.235 39.4572C136.331 39.6144 136.458 39.7402 136.65 39.8346C136.841 39.9289 137.097 39.9604 137.416 39.9604C137.575 39.9604 137.767 39.9604 138.054 39.9289C138.341 39.8975 138.532 39.866 138.66 39.8346V40.4322H138.692Z" fill="#1D3462"/>
<path d="M3.03099 20.9947H9.60347V23.6367H0V8.85419H9.41204V11.4962H3.03099V15.0188H8.61441V17.6923H3.03099V20.9947Z" fill="#1D3462"/>
<path d="M41.3172 8.85419C44.6991 8.85419 46.2306 11.2446 46.2306 13.6978C46.2306 16.1511 44.731 18.4786 41.3172 18.4786H38.2224V23.6367H35.1914V8.85419H41.3172ZM41.1577 15.8366C42.6253 15.8366 43.1677 14.7357 43.1677 13.6664C43.1677 12.597 42.6253 11.4647 41.2215 11.4647H38.2224V15.8366H41.1577Z" fill="#1D3462"/>
<path d="M55.6427 23.6367L52.0693 18.3213H51.0483V23.6367H48.0173V8.85419H54.0155C57.4613 8.85419 58.9289 11.2446 58.9289 13.6978C58.9289 15.8051 57.4294 17.8495 55.3236 18.2269L59.1842 23.6682H55.6427V23.6367ZM51.0483 15.9309H53.4731C55.1641 15.9309 55.8979 14.9245 55.8979 13.7293C55.8979 12.5341 55.1322 11.4647 53.7284 11.4647H51.0483V15.9309Z" fill="#1D3462"/>
<path d="M64.2572 20.9947H70.8297V23.6367H61.2262V8.85419H70.6383V11.4962H64.2572V15.0188H69.8725V17.6923H64.2891V20.9947H64.2572Z" fill="#1D3462"/>
<path d="M72.2653 19.3592H75.2963C75.3282 20.3971 76.3492 21.2778 77.753 21.2778C79.093 21.2778 79.9864 20.5544 79.9864 19.485C79.9864 18.6673 79.3802 18.1011 78.104 17.6923L76.2854 17.189C72.9991 16.3398 72.4248 14.3898 72.4248 13.0688C72.4248 10.4268 74.722 8.60257 77.5935 8.60257C80.433 8.60257 82.6026 10.301 82.6026 13.1002H79.5716C79.5716 12.0623 78.8378 11.2446 77.5297 11.2446C76.3492 11.2446 75.4558 12.0309 75.4558 13.0059C75.4558 13.3833 75.5515 14.1067 77.1468 14.5785L78.8378 15.0503C81.103 15.7108 83.0812 16.843 83.0812 19.3592C83.0812 22.3157 80.5287 23.9198 77.6892 23.9198C74.4668 23.8883 72.2653 21.9383 72.2653 19.3592Z" fill="#1D3462"/>
<path d="M110.041 20.9947H116.614V23.6367H107.01V8.85419H116.422V11.4962H110.041V15.0188H115.625V17.6923H110.041V20.9947Z" fill="#1D3462"/>
<path d="M102.033 23.6367H99.0018V11.4962H95.0137V8.85419H106.021V11.4962H102.033V23.6367Z" fill="#1D3462"/>
<path d="M136.012 23.6367H132.981V11.4962H128.993V8.85419H140V11.4962H136.012V23.6367Z" fill="#1D3462"/>
<path d="M118.049 19.3592H121.08C121.112 20.3971 122.133 21.2778 123.537 21.2778C124.877 21.2778 125.77 20.5544 125.77 19.485C125.77 18.6673 125.164 18.1011 123.888 17.6923L122.069 17.189C118.783 16.3398 118.209 14.3898 118.209 13.0373C118.209 10.3953 120.506 8.57112 123.377 8.57112C126.217 8.57112 128.387 10.2695 128.387 13.0688H125.356C125.356 12.0309 124.622 11.2131 123.314 11.2131C122.133 11.2131 121.24 11.9994 121.24 12.9744C121.24 13.3519 121.336 14.0753 122.931 14.547L124.622 15.0188C126.887 15.6793 128.865 16.8116 128.865 19.3278C128.865 22.2843 126.313 23.8883 123.473 23.8883C120.251 23.8883 118.049 21.9383 118.049 19.3592Z" fill="#1D3462"/>
<path d="M84.3575 19.3592H87.3885C87.4204 20.3971 88.4414 21.2778 89.8452 21.2778C91.1852 21.2778 92.0786 20.5544 92.0786 19.485C92.0786 18.6673 91.4724 18.1011 90.1962 17.6923L88.3776 17.189C85.0913 16.3398 84.517 14.3898 84.517 13.0373C84.517 10.3953 86.8142 8.57112 89.6857 8.57112C92.5252 8.57112 94.6948 10.2695 94.6948 13.0688H91.6638C91.6638 12.0309 90.93 11.2131 89.6219 11.2131C88.4414 11.2131 87.548 11.9994 87.548 12.9744C87.548 13.3519 87.6437 14.0753 89.239 14.547L90.93 15.0188C93.1952 15.6793 95.1734 16.8116 95.1734 19.3278C95.1734 22.2843 92.621 23.8883 89.7814 23.8883C86.559 23.8883 84.3575 21.9383 84.3575 19.3592Z" fill="#1D3462"/>
<path d="M23.8335 11.1502L27.4388 14.7043L37.3932 4.8912H30.2145L23.8335 11.1502Z" fill="#1D3462"/>
<path d="M27.4388 17.7866L23.8335 21.3407L38.2547 35.5256H45.4333L27.4388 17.7866Z" fill="#1D3462"/>
<path d="M25.875 16.2454H18.6964L7.17859 27.5997H14.3573L25.875 16.2454Z" fill="#1D3462"/>
<path d="M25.875 16.2454L10.3377 0.928223H3.15906L18.6964 16.2454H25.875Z" fill="#1D3462"/>
</svg>
