<svg width="29" height="28" viewBox="0 0 29 28" fill="none" xmlns="http://www.w3.org/2000/svg">
<path d="M24.8571 23.8577H20.7079V17.36C20.7079 15.8105 20.6802 13.8159 18.55 13.8159C16.3889 13.8159 16.0583 15.504 16.0583 17.2471V23.8572H11.9092V10.4953H15.8923V12.3213C16.7033 10.9346 18.2727 10.1034 19.8781 10.163C24.0834 10.163 24.8588 12.929 24.8588 16.5276L24.8571 23.8577ZM7.22763 8.66874C5.90674 8.66874 4.81932 7.58194 4.81932 6.26105C4.81932 4.94017 5.90624 3.85325 7.22712 3.85325C8.54789 3.85325 9.63468 4.93992 9.63493 6.26055C9.63493 7.58119 8.54827 8.66861 7.22763 8.66874ZM9.30215 23.8577H5.14873V10.4953H9.30215V23.8577ZM26.9255 0.00017772H3.06369C1.94358 -0.0124725 1.01109 0.898344 0.997437 2.01846V25.9793C1.01059 27.1 1.94295 28.0119 3.06369 27.9998H26.9255C28.049 28.014 28.9846 27.1023 28.9996 25.9793V2.01683C28.9846 0.894336 28.0477 -0.0146018 26.9255 0.00017772Z" fill="#F4E6D7"/>
</svg>
