<svg width="30" height="30" viewBox="0 0 30 30" fill="none" xmlns="http://www.w3.org/2000/svg">
<path fill-rule="evenodd" clip-rule="evenodd" d="M15 0C6.7191 0 0 6.7191 0 15C0 23.2809 6.7191 30 15 30C23.2646 30 30 23.2809 30 15C30 6.7191 23.2646 0 15 0ZM24.9078 6.91431C26.6974 9.09435 27.7712 11.8764 27.8037 14.8861C27.3807 14.8048 23.1508 13.9425 18.8883 14.4794C18.7907 14.2679 18.7093 14.0401 18.6117 13.8124C18.3514 13.1941 18.0586 12.5597 17.7657 11.9577C22.4837 10.038 24.6312 7.27224 24.9078 6.91431ZM15 2.21258C18.2538 2.21258 21.231 3.43275 23.4924 5.43384C23.2646 5.75922 21.3286 8.346 16.7733 10.0542C14.6746 6.19848 12.3482 3.0423 11.9902 2.55423C12.9501 2.32646 13.9588 2.21258 15 2.21258ZM9.5499 3.41649C9.89154 3.87201 12.1692 7.04448 14.3004 10.8189C8.31345 12.4132 3.02604 12.3807 2.45662 12.3807C3.28632 8.41107 5.97072 5.10846 9.5499 3.41649ZM2.18004 15.0163C2.18004 14.8861 2.18004 14.756 2.18004 14.6258C2.73319 14.6421 8.94795 14.7234 15.3416 12.8037C15.7158 13.5195 16.0575 14.2516 16.3829 14.9837C16.2202 15.0326 16.0412 15.0814 15.8785 15.1301C9.27333 17.2614 5.75922 23.0857 5.46639 23.5738C3.43275 21.3124 2.18004 18.3026 2.18004 15.0163ZM15 27.82C12.0391 27.82 9.30585 26.8113 7.14207 25.1193C7.36986 24.6475 9.9729 19.6367 17.1963 17.115C17.2289 17.0987 17.2451 17.0987 17.2777 17.0824C19.0835 21.7516 19.8156 25.6724 20.0108 26.795C18.4653 27.462 16.7733 27.82 15 27.82ZM22.1421 25.6237C22.0119 24.8427 21.3287 21.1009 19.6529 16.4968C23.6714 15.8623 27.1855 16.9035 27.6247 17.0499C27.0716 20.6128 25.0217 23.6876 22.1421 25.6237Z" fill="#F4E6D7"/>
</svg>
