<svg width="109" height="35" viewBox="0 0 109 35" fill="none" xmlns="http://www.w3.org/2000/svg">
<path d="M24.3203 2L20.3203 8.92813L16.3204 2H3L20.3203 32L37.6406 2H24.3203Z" stroke="#1D3462" stroke-width="3"/>
<path d="M24.3204 2.00011L20.3204 8.92824L16.3205 2.00011H9.92822L20.3204 19.9998L30.7126 2.00011H24.3204Z" stroke="#1D3462" stroke-width="3"/>
<path d="M49.5 13.7441H48V15.2441V18.6564V20.1564H49.5H53.8578V24.5V26H55.3578H59.1682H60.6682V24.5V20.1564H65.0687H66.5687V18.6564V15.2441V13.7441H65.0687H60.6682V9.5V8H59.1682H55.3578H53.8578V9.5V13.7441H49.5Z" stroke="#1D3462" stroke-width="3"/>
<path d="M89.0974 22.909C88.3223 22.1268 87.7091 21.1994 87.293 20.1799C86.8769 19.1604 86.666 18.0688 86.6724 16.9677C86.6696 15.8666 86.8863 14.776 87.31 13.7596C87.7336 12.7432 88.3556 11.8215 89.1396 11.0484C89.4754 10.7499 89.7468 10.3859 89.9371 9.97891C90.1274 9.57187 90.2326 9.13027 90.2463 8.68115C90.26 8.23204 90.1818 7.78485 90.0167 7.36698C89.8515 6.9491 89.6028 6.56934 89.2858 6.25093C88.9688 5.93252 88.5901 5.68217 88.1729 5.51521C87.7558 5.34825 87.3089 5.26819 86.8597 5.27994C86.4106 5.29168 85.9685 5.39498 85.5607 5.58352C85.1528 5.77205 84.7877 6.04185 84.4878 6.37639C81.6703 9.17724 80.0807 12.9825 80.0687 16.9553C80.0566 20.9281 81.6231 24.7429 84.4236 27.5608C84.7225 27.8949 85.0864 28.1646 85.493 28.3534C85.8996 28.5423 86.3405 28.6463 86.7886 28.6593C87.2367 28.6722 87.6828 28.5938 88.0996 28.4287C88.5165 28.2636 88.8953 28.0154 89.2131 27.6991C89.5308 27.3828 89.7809 27.0052 89.9479 26.5891C90.115 26.1731 90.1955 25.7274 90.1847 25.2792C90.1739 24.831 90.0719 24.3897 89.8849 23.9822C89.698 23.5747 89.43 23.2095 89.0974 22.909V22.909Z" stroke="#1D3462" stroke-width="3"/>
<path d="M89.1394 11.0483C90.7194 9.48418 92.8551 8.61028 95.0784 8.61819C97.3017 8.6261 99.4312 9.51517 101 11.0905C101.298 11.4281 101.662 11.7012 102.069 11.893C102.477 12.0848 102.919 12.1913 103.369 12.2058C103.819 12.2204 104.267 12.1428 104.686 11.9777C105.105 11.8127 105.486 11.5637 105.805 11.246C106.124 10.9284 106.375 10.5488 106.542 10.1307C106.709 9.71258 106.789 9.26471 106.776 8.81462C106.764 8.36453 106.659 7.92174 106.469 7.51347C106.28 7.1052 106.008 6.74009 105.672 6.44057C104.29 5.04122 102.646 3.92858 100.833 3.16656C99.0206 2.40454 97.0751 2.00813 95.1087 2.00012C93.1423 1.99211 91.1937 2.37265 89.3748 3.11988C87.5559 3.86711 85.9025 4.96631 84.5096 6.35435C84.1726 6.65133 83.8997 7.01396 83.7076 7.42006C83.5155 7.82615 83.4084 8.26717 83.3926 8.71612C83.3769 9.16506 83.453 9.61249 83.6162 10.031C83.7793 10.4496 84.0262 10.8304 84.3417 11.1502C84.6571 11.4701 85.0345 11.7221 85.4508 11.8911C85.867 12.06 86.3134 12.1422 86.7625 12.1327C87.2116 12.1231 87.654 12.022 88.0627 11.8356C88.4714 11.6492 88.8378 11.3813 89.1394 11.0483V11.0483Z" stroke="#1D3462" stroke-width="3"/>
<path d="M100.98 22.9512C100.198 23.7278 99.2709 24.3426 98.251 24.7603C97.2312 25.178 96.139 25.3904 95.037 25.3853C93.9353 25.387 92.8443 25.1688 91.8279 24.7436C90.8115 24.3184 89.8901 23.6947 89.1177 22.909C88.8192 22.5732 88.4553 22.3018 88.0482 22.1115C87.6412 21.9212 87.1996 21.816 86.7505 21.8023C86.3014 21.7886 85.8542 21.8667 85.4363 22.0319C85.0184 22.1971 84.6387 22.4458 84.3203 22.7628C84.0019 23.0798 83.7515 23.4585 83.5845 23.8757C83.4176 24.2928 83.3375 24.7397 83.3493 25.1888C83.361 25.638 83.4643 26.0801 83.6529 26.4879C83.8414 26.8958 84.1112 27.2609 84.4457 27.5608C85.8296 28.9601 87.4761 30.0724 89.2907 30.8342C91.1053 31.5959 93.0524 31.9921 95.0204 31.9999C96.9884 32.0078 98.9386 31.6271 100.759 30.8799C102.58 30.1326 104.235 29.0334 105.63 27.6452C105.938 27.3399 106.183 26.9768 106.351 26.5768C106.519 26.1768 106.607 25.7476 106.609 25.3138C106.611 24.8799 106.527 24.45 106.363 24.0484C106.199 23.6468 105.957 23.2814 105.652 22.9732C105.347 22.665 104.984 22.42 104.584 22.252C104.184 22.0841 103.755 21.9967 103.321 21.9946C102.887 21.9926 102.457 22.076 102.055 22.2401C101.654 22.4043 101.288 22.6459 100.98 22.9512V22.9512Z" stroke="#1D3462" stroke-width="3"/>
<path d="M89.1397 11.0485C88.6769 11.5107 88.0873 11.8251 87.4456 11.9517C86.8039 12.0783 86.139 12.0115 85.5354 11.7597C84.9317 11.5079 84.4164 11.0825 84.0549 10.5374C83.6933 9.99233 83.5018 9.35215 83.5047 8.69807C83.5075 8.044 83.7045 7.40551 84.0708 6.86359C84.437 6.32166 84.956 5.90073 85.5618 5.65419C86.1677 5.40764 86.8331 5.34659 87.4737 5.47878C88.1142 5.61096 88.7011 5.93043 89.1599 6.39666C89.771 7.01779 90.1119 7.85534 90.1081 8.72672C90.1043 9.5981 89.7562 10.4327 89.1397 11.0485Z" stroke="#1D3462" stroke-width="3"/>
<path d="M89.0753 27.5609C88.6123 28.0229 88.0226 28.337 87.3808 28.4634C86.7391 28.5898 86.0742 28.5227 85.4707 28.2707C84.8671 28.0186 84.352 27.593 83.9907 27.0478C83.6293 26.5026 83.4381 25.8623 83.4412 25.2082C83.4443 24.5542 83.6416 23.9158 84.008 23.374C84.3745 22.8322 84.8936 22.4115 85.4996 22.1652C86.1055 21.9189 86.7709 21.8581 87.4115 21.9905C88.052 22.123 88.6387 22.4427 89.0973 22.9091C89.7082 23.5304 90.0487 24.3681 90.0446 25.2395C90.0405 26.1109 89.6921 26.9453 89.0753 27.5609V27.5609Z" stroke="#1D3462" stroke-width="3"/>
</svg>
