<svg version="1.1" id="Layer_1" xmlns="http://www.w3.org/2000/svg" x="0" y="0" viewBox="0 0 109 35" style="enable-background:new 0 0 109 35" xml:space="preserve"><style>.st0{fill:none;stroke:#1d3462;stroke-width:3}</style><path class="st0" d="m24.3 2-4 6.9-4-6.9H3l17.3 30L37.6 2H24.3z"/><path class="st0" d="m24.3 2-4 6.9-4-6.9H9.9l10.4 18L30.7 2h-6.4zM49.5 13.7H48v6.4h5.9V26h6.8v-5.8h5.9v-6.4h-5.9V8h-6.8v5.7h-4.4zM89.1 22.9c-.8-.8-1.4-1.7-1.8-2.7-.4-1-.6-2.1-.6-3.2s.2-2.2.6-3.2c.4-1 1-1.9 1.8-2.7.3-.3.6-.7.8-1.1.2-.4.3-.8.3-1.3 0-.4-.1-.9-.2-1.3-.2-.4-.4-.8-.7-1.1-.3-.3-.7-.6-1.1-.7-.4-.2-.9-.2-1.3-.2s-.9.1-1.3.3c-.4.2-.8.5-1.1.8-2.8 2.7-4.4 6.5-4.4 10.5s1.6 7.8 4.4 10.6c.3.3.7.6 1.1.8.4.2.8.3 1.3.3.4 0 .9-.1 1.3-.2.4-.2.8-.4 1.1-.7.3-.3.6-.7.7-1.1.2-.4.2-.9.2-1.3s-.1-.9-.3-1.3c-.2-.5-.5-.9-.8-1.2z"/><path class="st0" d="M89.1 11c1.6-1.6 3.7-2.4 5.9-2.4s4.4.9 5.9 2.5c.3.3.7.6 1.1.8.4.2.8.3 1.3.3.4 0 .9-.1 1.3-.2.4-.2.8-.4 1.1-.7.3-.3.6-.7.7-1.1.2-.4.2-.9.2-1.3 0-.5-.1-.9-.3-1.3-.2-.4-.5-.8-.8-1.1-1.4-1.4-3-2.5-4.8-3.3C99 2.4 97.1 2 95.1 2c-2 0-3.9.4-5.7 1.1S85.9 5 84.5 6.4c-.3.3-.6.7-.8 1.1-.2.4-.3.8-.3 1.3 0 .4.1.9.2 1.3.2.4.4.8.7 1.1.3.3.7.6 1.1.7.4.2.9.3 1.3.2.4 0 .9-.1 1.3-.3.5-.2.8-.4 1.1-.8zM101 23c-.8.8-1.7 1.4-2.7 1.8-1 .4-2.1.6-3.2.6s-2.2-.2-3.2-.6c-1-.4-1.9-1-2.7-1.8-.3-.3-.7-.6-1.1-.8-.4-.2-.8-.3-1.3-.3-.4 0-.9.1-1.3.2-.4.2-.8.4-1.1.7-.3.3-.6.7-.7 1.1-.2.4-.2.9-.2 1.3s.1.9.3 1.3c.2.4.5.8.8 1.1 1.4 1.4 3 2.5 4.8 3.3 1.8.8 3.8 1.2 5.7 1.2 2 0 3.9-.4 5.7-1.1 1.8-.7 3.5-1.8 4.9-3.2.3-.3.6-.7.7-1.1.2-.4.3-.8.3-1.3 0-.4-.1-.9-.2-1.3-.2-.4-.4-.8-.7-1.1-.3-.3-.7-.6-1.1-.7-.4-.2-.8-.3-1.3-.3-.4 0-.9.1-1.3.2-.4.2-.8.4-1.1.8z"/><path class="st0" d="M89.1 11c-.5.5-1.1.8-1.7.9s-1.3.1-1.9-.2c-.6-.3-1.1-.7-1.5-1.2-.4-.5-.6-1.2-.6-1.8 0-.7.2-1.3.6-1.8.4-.5.9-1 1.5-1.2.6-.2 1.3-.3 1.9-.2.6.1 1.2.5 1.7.9.6.6 1 1.5.9 2.3s-.2 1.7-.9 2.3zM89.1 27.6c-.5.5-1.1.8-1.7.9-.6.1-1.3.1-1.9-.2-.6-.3-1.1-.7-1.5-1.3-.4-.5-.6-1.2-.5-1.8 0-.7.2-1.3.6-1.8.4-.5.9-1 1.5-1.2.6-.2 1.3-.3 1.9-.2.6.1 1.2.5 1.7.9.6.6 1 1.5.9 2.3-.1.9-.4 1.7-1 2.4z"/></svg>