<svg width="24" height="34" viewBox="0 0 24 34" fill="none" xmlns="http://www.w3.org/2000/svg">
<path d="M7.00001 32C9.76001 32 12 29.76 12 27V22H7.00001C4.24 22 2 24.24 2 27C2 29.76 4.24 32 7.00001 32Z" stroke="#1D3462" stroke-width="3"/>
<path d="M2 17C2 14.24 4.24 12 7.00001 12H12V22H7.00001C4.24 22 2 19.76 2 17Z" stroke="#1D3462" stroke-width="3"/>
<path d="M2 7.00001C2 4.24 4.24 2 7.00001 2H12V12H7.00001C4.24 12 2 9.76001 2 7.00001Z" stroke="#1D3462" stroke-width="3"/>
<path d="M12 2H17C19.76 2 22 4.24 22 7.00001C22 9.76001 19.76 12 17 12H12V2Z" stroke="#1D3462" stroke-width="3"/>
<path d="M22 17C22 19.76 19.76 22 17 22C14.24 22 12 19.76 12 17C12 14.24 14.24 12 17 12C19.76 12 22 14.24 22 17Z" stroke="#1D3462" stroke-width="3"/>
</svg>
