<svg width="30" height="27" viewBox="0 0 30 27" fill="none" xmlns="http://www.w3.org/2000/svg">
<path fill-rule="evenodd" clip-rule="evenodd" d="M20.9685 2.68079C22.8845 4.22203 24.2303 6.35487 24.8997 8.90434L30 6.01361V14.2434L25.3917 16.8307V20.0915H30V27H0V12.8151C0 9.04033 1.22245 5.82487 3.45645 3.55002C5.692 1.27359 8.88084 0 12.6959 0C15.99 0 18.817 0.950067 20.9685 2.68079ZM6.95853 12.3584V20.0915H18.4332V12.3584C18.4332 10.52 17.8732 9.18571 16.9371 8.30623C15.9944 7.4205 14.5768 6.90848 12.6959 6.90848C10.8149 6.90848 9.39732 7.4205 8.45457 8.30623C7.51848 9.18571 6.95853 10.52 6.95853 12.3584Z" fill="#1D3462"/>
</svg>
